<svg width="24" height="24" viewBox="0 0 24 24" fill="none" xmlns="http://www.w3.org/2000/svg">
<path d="M10.2002 3.6001H16.2002C18.4093 3.6001 20.2002 5.39096 20.2002 7.6001V15.6001" stroke="#69696B" stroke-width="2"/>
<path d="M15.7998 12.3201C15.7998 11.0713 15.7975 10.2397 15.7083 9.61124C15.6246 9.02159 15.479 8.73295 15.269 8.51549C15.1227 8.36405 14.9467 8.22299 14.7428 8.09869C14.4045 7.89246 13.9336 7.75161 13.0972 7.6767C12.2524 7.60104 11.1536 7.6001 9.5998 7.6001C8.04598 7.6001 6.94721 7.60104 6.10241 7.6767C5.26602 7.75161 4.79512 7.89246 4.45681 8.09869C4.25291 8.22299 4.07691 8.36405 3.93064 8.51549L3.21136 7.82076L3.93064 8.51549C3.7206 8.73295 3.575 9.02159 3.49133 9.61124C3.40214 10.2397 3.3998 11.0713 3.3998 12.3201V16.4801C3.3998 17.7289 3.40214 18.5605 3.49133 19.189C3.575 19.7786 3.7206 20.0672 3.93064 20.2847C4.07691 20.4361 4.25291 20.5772 4.45682 20.7015C4.79512 20.9077 5.26602 21.0486 6.10241 21.1235C6.94721 21.1992 8.04598 21.2001 9.5998 21.2001C11.1536 21.2001 12.2524 21.1992 13.0972 21.1235C13.9336 21.0486 14.4045 20.9077 14.7428 20.7015C14.9467 20.5772 15.1227 20.4361 15.269 20.2847C15.479 20.0672 15.6246 19.7786 15.7083 19.189C15.7975 18.5605 15.7998 17.7289 15.7998 16.4801V12.3201Z" stroke="#69696B" stroke-width="2"/>
</svg>
