<svg width="44" height="44" viewBox="0 0 44 44" fill="none" xmlns="http://www.w3.org/2000/svg">
<g clip-path="url(#clip0_858_418)">
<path d="M22.0025 44.005C34.1542 44.005 44.005 34.1542 44.005 22.0025C44.005 9.85086 34.1542 0 22.0025 0C9.85086 0 0 9.85086 0 22.0025C0 34.1542 9.85086 44.005 22.0025 44.005Z" fill="#F8E049"/>
<path d="M22.0022 9.04604C14.2162 9.04604 7.90112 14.0359 7.90112 20.1954C7.90112 24.2013 10.5768 27.7153 14.5927 29.6781C14.2966 30.7775 13.5235 33.669 13.3679 34.2864C13.1771 35.0545 13.649 35.0444 13.9602 34.8386C14.2012 34.678 17.8256 32.2132 19.3868 31.1489C20.2352 31.2744 21.1087 31.3397 22.0022 31.3397C29.7882 31.3397 36.1033 26.3499 36.1033 20.1904C36.1033 14.0309 29.7882 9.04102 22.0022 9.04102" fill="#371C1D"/>
<path d="M12.1639 18.1418H13.6147C13.6147 18.1418 13.6247 22.1276 13.6147 23.0563C13.6147 23.734 15.1257 23.7441 15.1207 23.0664V18.192C15.1207 18.192 15.6127 18.192 16.5715 18.192C17.4751 18.192 17.4751 16.7713 16.5715 16.7713C15.5524 16.7713 12.1589 16.7412 12.1589 16.7412C11.3055 16.7412 11.3105 18.1317 12.1589 18.1317" fill="#F8E049"/>
<mask id="mask0_858_418" style="mask-type:luminance" maskUnits="userSpaceOnUse" x="11" y="16" width="7" height="8">
<path d="M12.1639 18.1418H13.6147C13.6147 18.1418 13.6247 22.1276 13.6147 23.0563C13.6147 23.734 15.1257 23.7441 15.1207 23.0664V18.192C15.1207 18.192 15.6127 18.192 16.5715 18.192C17.4751 18.192 17.4751 16.7713 16.5715 16.7713C15.5524 16.7713 12.1589 16.7412 12.1589 16.7412C11.3055 16.7412 11.3105 18.1317 12.1589 18.1317" fill="white"/>
</mask>
<g mask="url(#mask0_858_418)">
<path d="M17.4806 16.751H11.311V23.7438H17.4806V16.751Z" fill="#F8E049"/>
</g>
<path d="M19.1111 18.3987L19.9193 20.9287H18.2376L19.1111 18.3987ZM18.2075 17.2139C17.851 18.0021 16.5609 21.7169 16.1342 22.7008C15.823 23.4136 17.1583 23.9959 17.4695 23.2831L17.7607 22.269H20.4162C20.4162 22.269 20.3259 22.3092 20.6773 23.2429C20.9634 23.9959 22.3439 23.4738 22.0578 22.7208C21.6512 21.6416 20.2405 17.7661 19.9845 17.219C19.864 16.9629 19.4424 16.7822 19.0307 16.7822C18.6894 16.7822 18.3581 16.9077 18.2175 17.219" fill="#F8E049"/>
<mask id="mask1_858_418" style="mask-type:luminance" maskUnits="userSpaceOnUse" x="16" y="16" width="7" height="8">
<path d="M19.1111 18.3987L19.9193 20.9287H18.2376L19.1111 18.3987ZM18.2075 17.2139C17.851 18.0021 16.5609 21.7169 16.1342 22.7008C15.823 23.4136 17.1583 23.9959 17.4695 23.2831L17.7607 22.269H20.4162C20.4162 22.269 20.3259 22.3092 20.6773 23.2429C20.9634 23.9959 22.3439 23.4738 22.0578 22.7208C21.6512 21.6416 20.2405 17.7661 19.9845 17.219C19.864 16.9629 19.4424 16.7822 19.0307 16.7822C18.6894 16.7822 18.3581 16.9077 18.2175 17.219" fill="white"/>
</mask>
<g mask="url(#mask1_858_418)">
<path d="M22.3335 16.7773H15.8176V23.991H22.3335V16.7773Z" fill="#F8E049"/>
</g>
<path d="M22.5591 17.444C22.5591 18.704 22.5641 22.7752 22.5641 22.7752C22.5641 22.7752 22.4486 23.5834 23.1414 23.5834C23.8342 23.5834 25.3753 23.5734 26.058 23.5734C26.7407 23.5734 26.7357 22.1226 26.058 22.1226C25.3803 22.1226 24.1303 22.1176 24.1303 22.1176C24.1303 22.1176 24.1353 18.3526 24.1303 17.439C24.1303 16.9972 23.7388 16.7764 23.3472 16.7764C22.9557 16.7764 22.5591 16.9972 22.5591 17.444Z" fill="#F8E049"/>
<mask id="mask2_858_418" style="mask-type:luminance" maskUnits="userSpaceOnUse" x="22" y="16" width="5" height="8">
<path d="M22.5591 17.444C22.5591 18.704 22.5641 22.7752 22.5641 22.7752C22.5641 22.7752 22.4486 23.5834 23.1414 23.5834C23.8342 23.5834 25.3753 23.5734 26.058 23.5734C26.7407 23.5734 26.7357 22.1226 26.058 22.1226C25.3803 22.1226 24.1303 22.1176 24.1303 22.1176C24.1303 22.1176 24.1353 18.3526 24.1303 17.439C24.1303 16.9972 23.7388 16.7764 23.3472 16.7764C22.9557 16.7764 22.5591 16.9972 22.5591 17.444Z" fill="white"/>
</mask>
<g mask="url(#mask2_858_418)">
<path d="M26.7357 16.7812H22.4486V23.5883H26.7357V16.7812Z" fill="#F8E049"/>
</g>
<path d="M26.9225 17.2435C26.9376 17.7957 26.9025 22.8006 26.9075 23.172C26.9075 23.7594 28.3984 23.7544 28.3984 23.172C28.3984 22.4943 28.3984 21.2042 28.3984 21.2042L28.8351 20.8528L30.7478 23.4632C31.1343 23.9752 32.3541 23.0516 31.9676 22.5395L29.9345 19.8639C29.9345 19.8639 31.315 18.373 31.8572 17.8308C32.1734 17.5145 31.1945 16.5256 30.8733 16.8419C30.567 17.1481 28.4034 19.3117 28.4034 19.3117C28.4034 19.3117 28.4235 17.9513 28.4034 17.2033C28.3934 16.9172 28.047 16.7816 27.6906 16.7816C27.3091 16.7816 26.9175 16.9372 26.9225 17.2435Z" fill="#F8E049"/>
<mask id="mask3_858_418" style="mask-type:luminance" maskUnits="userSpaceOnUse" x="26" y="16" width="7" height="8">
<path d="M26.9225 17.2435C26.9376 17.7957 26.9025 22.8006 26.9075 23.172C26.9075 23.7594 28.3984 23.7544 28.3984 23.172C28.3984 22.4943 28.3984 21.2042 28.3984 21.2042L28.8351 20.8528L30.7478 23.4632C31.1343 23.9752 32.3541 23.0516 31.9676 22.5395L29.9345 19.8639C29.9345 19.8639 31.315 18.373 31.8572 17.8308C32.1734 17.5145 31.1945 16.5256 30.8733 16.8419C30.567 17.1481 28.4034 19.3117 28.4034 19.3117C28.4034 19.3117 28.4235 17.9513 28.4034 17.2033C28.3934 16.9172 28.047 16.7816 27.6906 16.7816C27.3091 16.7816 26.9175 16.9372 26.9225 17.2435Z" fill="white"/>
</mask>
<g mask="url(#mask3_858_418)">
<path d="M32.3485 16.5303H26.9019V23.9749H32.3485V16.5303Z" fill="#F8E049"/>
</g>
</g>
<defs>
<clipPath id="clip0_858_418">
<rect width="44" height="44" fill="white"/>
</clipPath>
</defs>
</svg>
