<svg width="85" height="17" viewBox="0 0 85 17" fill="none" xmlns="http://www.w3.org/2000/svg">
<path d="M77.4205 3.89244C78.661 3.51688 79.7308 3.3291 80.6298 3.3291C82.0866 3.3291 83.0539 3.72173 83.5319 4.507C84.0099 5.29226 84.2489 6.21978 84.2489 7.28956C84.2489 8.26829 84.3001 9.1446 84.4025 9.91848C84.5163 10.6924 84.7155 11.3866 85 12.0011L83.1563 12.7864C82.9173 12.4336 82.7409 12.0524 82.6271 11.6426C82.2971 11.9158 81.9614 12.1263 81.62 12.2743C81.2785 12.4222 80.8973 12.519 80.4762 12.5645C80.2827 12.5872 80.0153 12.5986 79.6739 12.5986C78.513 12.5986 77.7107 12.3539 77.2669 11.8646C76.8344 11.3752 76.6182 10.8119 76.6182 10.1745C76.6182 9.07063 77.1417 8.25122 78.1887 7.71633C79.2357 7.18144 80.5615 6.77743 82.1662 6.50429C82.1207 6.06045 81.9841 5.71903 81.7565 5.48004C81.5403 5.24105 81.1704 5.12155 80.6469 5.12155C80.0324 5.12155 79.1731 5.30364 78.0692 5.66782L77.4205 3.89244ZM78.6667 10.1745C78.6667 10.5956 79.0252 10.8062 79.7421 10.8062C79.947 10.8062 80.186 10.7891 80.4591 10.755C80.8119 10.7094 81.1533 10.6184 81.4834 10.4818C81.8134 10.3339 82.0979 10.1689 82.3369 9.98677C82.2914 9.70225 82.2573 9.28686 82.2345 8.74059C82.2345 8.52436 82.2288 8.35934 82.2174 8.24553C81.1818 8.42762 80.3282 8.68938 79.6568 9.03079C78.9967 9.36083 78.6667 9.74208 78.6667 10.1745Z" fill="#021508"/>
<path d="M66.4951 12.4616V3.5847H68.5436L68.7485 4.96744C69.0899 4.44393 69.4939 4.04561 69.9605 3.77248C70.4271 3.48796 70.9449 3.3457 71.514 3.3457C71.7643 3.3457 71.9863 3.36846 72.1797 3.41399C73.0219 3.56193 73.6592 4.04561 74.0917 4.86502C74.5241 5.68442 74.7404 6.64608 74.7404 7.75V12.4616H72.6919V8.26213C72.6919 7.64758 72.5951 7.09562 72.4017 6.60625C72.2082 6.11688 71.8838 5.79254 71.4286 5.63321C71.2579 5.57631 71.0872 5.54785 70.9165 5.54785C70.5637 5.54785 70.1995 5.6389 69.8239 5.82099C69.4598 6.00308 69.1525 6.27052 68.9021 6.62332C68.6631 6.96474 68.5436 7.37444 68.5436 7.85243V12.4616H66.4951Z" fill="#021508"/>
<path d="M62.6949 2.47529C62.3535 2.47529 62.0576 2.35579 61.8072 2.1168C61.5682 1.8778 61.4487 1.5876 61.4487 1.24618C61.4487 0.893379 61.5682 0.597482 61.8072 0.358489C62.0576 0.119496 62.3535 0 62.6949 0C63.0363 0 63.3265 0.119496 63.5655 0.358489C63.8159 0.597482 63.9411 0.893379 63.9411 1.24618C63.9411 1.5876 63.8159 1.8778 63.5655 2.1168C63.3265 2.35579 63.0363 2.47529 62.6949 2.47529ZM61.6707 12.4618V3.43126H63.7192V12.4618H61.6707Z" fill="#021508"/>
<path d="M52.8599 12.4616V3.58475H54.9084L55.0791 4.89922C55.4091 4.44399 55.8188 4.07981 56.3082 3.80667C56.7976 3.53354 57.3211 3.39697 57.8787 3.39697C58.4591 3.39697 59.0225 3.55061 59.5687 3.85789L58.4762 6.0259C58.112 5.74138 57.7023 5.59912 57.2471 5.59912C56.8488 5.59912 56.4675 5.70724 56.1033 5.92347C55.7505 6.1397 55.4603 6.4356 55.2327 6.81116C55.0165 7.18672 54.9084 7.59073 54.9084 8.0232V12.4616H52.8599Z" fill="#021508"/>
<path d="M43.955 13.9302C44.6834 14.2033 45.3549 14.3399 45.9694 14.3399C46.4929 14.3399 46.9368 14.2432 47.301 14.0497C47.6765 13.8676 47.9553 13.6286 48.1374 13.3327C48.3309 13.0482 48.4276 12.758 48.4276 12.4621V12.0012C47.7107 12.2174 47.0164 12.3255 46.345 12.3255C45.5256 12.3255 44.7972 12.1605 44.1599 11.8305C43.534 11.5118 43.0446 11.0509 42.6918 10.4477C42.339 9.83319 42.1626 9.10483 42.1626 8.26266C42.1626 7.27254 42.4585 6.40762 43.0503 5.66788C43.6421 4.92814 44.4103 4.3648 45.3549 3.97785C46.2995 3.57953 47.2839 3.38037 48.3081 3.38037C49.0934 3.38037 49.8161 3.49987 50.4761 3.73886V12.4621C50.4761 13.0767 50.2941 13.6741 49.9299 14.2546C49.5657 14.835 49.0422 15.3073 48.3593 15.6714C47.6879 16.0356 46.9026 16.2177 46.0036 16.2177C45.1386 16.2177 44.2168 16.0356 43.2381 15.6714L43.955 13.9302ZM44.2111 8.26266C44.2111 8.96826 44.3932 9.51453 44.7574 9.90147C45.1329 10.277 45.6508 10.4648 46.3108 10.4648C46.9368 10.4648 47.6424 10.3055 48.4276 9.98682V5.27525C47.722 5.2411 47.0449 5.34353 46.3962 5.58252C45.7475 5.82151 45.2183 6.17431 44.8086 6.64092C44.4103 7.10753 44.2111 7.64811 44.2111 8.26266Z" fill="#021508"/>
<path d="M33.7695 13.9302C34.4979 14.2033 35.1693 14.3399 35.7839 14.3399C36.3074 14.3399 36.7512 14.2432 37.1154 14.0497C37.491 13.8676 37.7698 13.6286 37.9519 13.3327C38.1453 13.0482 38.2421 12.758 38.2421 12.4621V12.0012C37.5251 12.2174 36.8309 12.3255 36.1594 12.3255C35.34 12.3255 34.6117 12.1605 33.9743 11.8305C33.3484 11.5118 32.859 11.0509 32.5062 10.4477C32.1535 9.83319 31.9771 9.10483 31.9771 8.26266C31.9771 7.27254 32.2729 6.40762 32.8647 5.66788C33.4565 4.92814 34.2247 4.3648 35.1693 3.97785C36.1139 3.57953 37.0983 3.38037 38.1226 3.38037C38.9079 3.38037 39.6305 3.49987 40.2906 3.73886V12.4621C40.2906 13.0767 40.1085 13.6741 39.7443 14.2546C39.3801 14.835 38.8566 15.3073 38.1738 15.6714C37.5023 16.0356 36.7171 16.2177 35.818 16.2177C34.9531 16.2177 34.0313 16.0356 33.0525 15.6714L33.7695 13.9302ZM34.0256 8.26266C34.0256 8.96826 34.2077 9.51453 34.5718 9.90147C34.9474 10.277 35.4652 10.4648 36.1253 10.4648C36.7512 10.4648 37.4568 10.3055 38.2421 9.98682V5.27525C37.5365 5.2411 36.8593 5.34353 36.2106 5.58252C35.5619 5.82151 35.0327 6.17431 34.623 6.64092C34.2247 7.10753 34.0256 7.64811 34.0256 8.26266Z" fill="#021508"/>
<path d="M21.854 12.4616V3.5847H23.9025L24.1074 4.96744C24.4488 4.44393 24.8528 4.04561 25.3194 3.77248C25.786 3.48796 26.3038 3.3457 26.8729 3.3457C27.1232 3.3457 27.3452 3.36846 27.5386 3.41399C28.3808 3.56193 29.0181 4.04561 29.4506 4.86502C29.883 5.68442 30.0993 6.64608 30.0993 7.75V12.4616H28.0508V8.26213C28.0508 7.64758 27.954 7.09562 27.7605 6.60625C27.5671 6.11688 27.2427 5.79254 26.7875 5.63321C26.6168 5.57631 26.4461 5.54785 26.2754 5.54785C25.9226 5.54785 25.5584 5.6389 25.1828 5.82099C24.8187 6.00308 24.5114 6.27052 24.261 6.62332C24.022 6.96474 23.9025 7.37444 23.9025 7.85243V12.4616H21.854Z" fill="#021508"/>
<path d="M0.966797 0.921928C1.80896 0.660174 2.74786 0.529297 3.7835 0.529297C4.8419 0.529297 5.83771 0.694316 6.77092 1.02435C7.71551 1.34301 8.49508 1.88928 9.10964 2.66316C9.73557 3.42567 10.077 4.42716 10.1339 5.66765C10.1908 7.0447 9.98025 8.23967 9.50227 9.25255C9.03566 10.2654 8.29592 11.045 7.28304 11.5913C6.28155 12.1375 5.02968 12.4107 3.52744 12.4107C2.77632 12.4107 1.92277 12.331 0.966797 12.1717V0.921928ZM3.01531 10.5158C3.1405 10.5272 3.32828 10.5329 3.57865 10.5329C6.73108 10.5329 8.23333 8.93389 8.08538 5.73593C8.03986 4.56373 7.61877 3.71587 6.82213 3.19236C6.02549 2.65747 5.04675 2.39003 3.88593 2.39003C3.60141 2.39003 3.31121 2.4071 3.01531 2.44124V10.5158Z" fill="#021508"/>
</svg>
