<svg width="85" height="17" viewBox="0 0 85 17" fill="none" xmlns="http://www.w3.org/2000/svg">
<path d="M77.4215 3.89232C78.662 3.51676 79.7317 3.32898 80.6308 3.32898C82.0875 3.32898 83.0549 3.72161 83.5329 4.50687C84.0109 5.29214 84.2498 6.21966 84.2498 7.28944C84.2498 8.26817 84.3011 9.14448 84.4035 9.91836C84.5173 10.6922 84.7165 11.3865 85.001 12.001L83.1573 12.7863C82.9183 12.4335 82.7419 12.0522 82.6281 11.6425C82.2981 11.9157 81.9623 12.1262 81.6209 12.2742C81.2795 12.4221 80.8983 12.5188 80.4772 12.5644C80.2837 12.5871 80.0163 12.5985 79.6748 12.5985C78.514 12.5985 77.7117 12.3538 77.2678 11.8644C76.8354 11.3751 76.6191 10.8117 76.6191 10.1744C76.6191 9.0705 77.1426 8.2511 78.1897 7.71621C79.2367 7.18132 80.5625 6.77731 82.1672 6.50417C82.1217 6.06033 81.9851 5.71891 81.7575 5.47992C81.5413 5.24092 81.1714 5.12143 80.6479 5.12143C80.0333 5.12143 79.1741 5.30352 78.0702 5.6677L77.4215 3.89232ZM78.6677 10.1744C78.6677 10.5955 79.0261 10.806 79.7431 10.806C79.948 10.806 80.187 10.789 80.4601 10.7548C80.8129 10.7093 81.1543 10.6183 81.4844 10.4817C81.8144 10.3338 82.0989 10.1687 82.3379 9.98664C82.2924 9.70213 82.2582 9.28674 82.2355 8.74047C82.2355 8.52423 82.2298 8.35921 82.2184 8.24541C81.1828 8.4275 80.3292 8.68925 79.6578 9.03067C78.9977 9.36071 78.6677 9.74196 78.6677 10.1744Z" fill="#021508"/>
<path d="M66.4961 12.4616V3.58476H68.5446L68.7495 4.9675C69.0909 4.44399 69.4949 4.04567 69.9615 3.77254C70.4281 3.48802 70.9459 3.34576 71.515 3.34576C71.7653 3.34576 71.9872 3.36853 72.1807 3.41405C73.0229 3.562 73.6602 4.04567 74.0927 4.86508C74.5251 5.68448 74.7414 6.64614 74.7414 7.75007V12.4616H72.6928V8.26219C72.6928 7.64764 72.5961 7.09568 72.4026 6.60631C72.2092 6.11695 71.8848 5.7926 71.4296 5.63327C71.2589 5.57637 71.0882 5.54791 70.9175 5.54791C70.5647 5.54791 70.2005 5.63896 69.8249 5.82105C69.4607 6.00314 69.1535 6.27058 68.9031 6.62338C68.6641 6.9648 68.5446 7.37451 68.5446 7.85249V12.4616H66.4961Z" fill="#021508"/>
<path d="M62.6954 2.47522C62.354 2.47522 62.0581 2.35573 61.8077 2.11673C61.5687 1.87774 61.4492 1.58754 61.4492 1.24612C61.4492 0.893318 61.5687 0.597421 61.8077 0.358428C62.0581 0.119435 62.354 -6.10352e-05 62.6954 -6.10352e-05C63.0368 -6.10352e-05 63.327 0.119435 63.566 0.358428C63.8164 0.597421 63.9416 0.893318 63.9416 1.24612C63.9416 1.58754 63.8164 1.87774 63.566 2.11673C63.327 2.35573 63.0368 2.47522 62.6954 2.47522ZM61.6711 12.4617V3.4312H63.7197V12.4617H61.6711Z" fill="#021508"/>
<path d="M52.8594 12.4616V3.58472H54.9079L55.0786 4.89918C55.4086 4.44396 55.8183 4.07978 56.3077 3.80664C56.7971 3.53351 57.3206 3.39694 57.8782 3.39694C58.4586 3.39694 59.022 3.55058 59.5683 3.85786L58.4757 6.02587C58.1115 5.74135 57.7018 5.59909 57.2466 5.59909C56.8483 5.59909 56.467 5.70721 56.1029 5.92344C55.7501 6.13967 55.4598 6.43557 55.2322 6.81113C55.016 7.18669 54.9079 7.5907 54.9079 8.02317V12.4616H52.8594Z" fill="#021508"/>
<path d="M43.9546 13.93C44.6829 14.2032 45.3544 14.3397 45.9689 14.3397C46.4924 14.3397 46.9363 14.243 47.3005 14.0495C47.676 13.8674 47.9548 13.6284 48.1369 13.3325C48.3304 13.048 48.4271 12.7578 48.4271 12.4619V12.001C47.7102 12.2172 47.0159 12.3254 46.3445 12.3254C45.5251 12.3254 44.7967 12.1603 44.1594 11.8303C43.5335 11.5116 43.0441 11.0507 42.6913 10.4476C42.3385 9.833 42.1621 9.10464 42.1621 8.26248C42.1621 7.27236 42.458 6.40743 43.0498 5.66769C43.6416 4.92795 44.4098 4.36461 45.3544 3.97767C46.299 3.57935 47.2834 3.38019 48.3076 3.38019C49.0929 3.38019 49.8156 3.49968 50.4757 3.73868V12.4619C50.4757 13.0765 50.2936 13.674 49.9294 14.2544C49.5652 14.8348 49.0417 15.3071 48.3589 15.6713C47.6874 16.0354 46.9021 16.2175 46.0031 16.2175C45.1381 16.2175 44.2163 16.0354 43.2376 15.6713L43.9546 13.93ZM44.2106 8.26248C44.2106 8.96807 44.3927 9.51435 44.7569 9.90129C45.1325 10.2768 45.6503 10.4646 46.3103 10.4646C46.9363 10.4646 47.6419 10.3053 48.4271 9.98664V5.27506C47.7215 5.24092 47.0444 5.34335 46.3957 5.58234C45.747 5.82133 45.2178 6.17413 44.8081 6.64074C44.4098 7.10734 44.2106 7.64792 44.2106 8.26248Z" fill="#021508"/>
<path d="M33.769 13.93C34.4974 14.2032 35.1688 14.3397 35.7834 14.3397C36.3069 14.3397 36.7507 14.243 37.1149 14.0495C37.4905 13.8674 37.7693 13.6284 37.9514 13.3325C38.1449 13.048 38.2416 12.7578 38.2416 12.4619V12.001C37.5246 12.2172 36.8304 12.3254 36.1589 12.3254C35.3395 12.3254 34.6112 12.1603 33.9739 11.8303C33.3479 11.5116 32.8586 11.0507 32.5058 10.4476C32.153 9.833 31.9766 9.10464 31.9766 8.26248C31.9766 7.27236 32.2725 6.40743 32.8642 5.66769C33.456 4.92795 34.2242 4.36461 35.1688 3.97767C36.1134 3.57935 37.0978 3.38019 38.1221 3.38019C38.9074 3.38019 39.63 3.49968 40.2901 3.73868V12.4619C40.2901 13.0765 40.108 13.674 39.7438 14.2544C39.3797 14.8348 38.8561 15.3071 38.1733 15.6713C37.5019 16.0354 36.7166 16.2175 35.8175 16.2175C34.9526 16.2175 34.0308 16.0354 33.052 15.6713L33.769 13.93ZM34.0251 8.26248C34.0251 8.96807 34.2072 9.51435 34.5713 9.90129C34.9469 10.2768 35.4647 10.4646 36.1248 10.4646C36.7507 10.4646 37.4563 10.3053 38.2416 9.98664V5.27506C37.536 5.24092 36.8589 5.34335 36.2102 5.58234C35.5615 5.82133 35.0323 6.17413 34.6226 6.64074C34.2242 7.10734 34.0251 7.64792 34.0251 8.26248Z" fill="#021508"/>
<path d="M21.8535 12.4616V3.58476H23.902L24.1069 4.9675C24.4483 4.44399 24.8523 4.04567 25.3189 3.77254C25.7855 3.48802 26.3033 3.34576 26.8724 3.34576C27.1227 3.34576 27.3447 3.36853 27.5381 3.41405C28.3803 3.562 29.0176 4.04567 29.4501 4.86508C29.8825 5.68448 30.0988 6.64614 30.0988 7.75007V12.4616H28.0503V8.26219C28.0503 7.64764 27.9535 7.09568 27.7601 6.60631C27.5666 6.11695 27.2422 5.7926 26.787 5.63327C26.6163 5.57637 26.4456 5.54791 26.2749 5.54791C25.9221 5.54791 25.5579 5.63896 25.1823 5.82105C24.8182 6.00314 24.5109 6.27058 24.2605 6.62338C24.0215 6.9648 23.902 7.37451 23.902 7.85249V12.4616H21.8535Z" fill="#021508"/>
<path d="M0.966797 0.922111C1.80896 0.660357 2.74786 0.52948 3.7835 0.52948C4.8419 0.52948 5.83771 0.694499 6.77092 1.02454C7.71551 1.34319 8.49508 1.88947 9.10964 2.66335C9.73557 3.42585 10.077 4.42734 10.1339 5.66783C10.1908 7.04489 9.98025 8.23985 9.50227 9.25273C9.03566 10.2656 8.29592 11.0452 7.28304 11.5914C6.28155 12.1377 5.02968 12.4109 3.52744 12.4109C2.77632 12.4109 1.92277 12.3312 0.966797 12.1719V0.922111ZM3.01531 10.516C3.1405 10.5274 3.32828 10.5331 3.57865 10.5331C6.73108 10.5331 8.23333 8.93407 8.08538 5.73612C8.03986 4.56391 7.61877 3.71606 6.82213 3.19255C6.02549 2.65766 5.04675 2.39021 3.88593 2.39021C3.60141 2.39021 3.31121 2.40728 3.01531 2.44143V10.516Z" fill="#021508"/>
<ellipse cx="19.9532" cy="5.1911" rx="1.00417" ry="1.3389" transform="rotate(4.39813 19.9532 5.1911)" fill="#021508"/>
<path d="M17.0162 3.69483C16.2563 3.50591 15.6163 3.5806 15.758 3.01067C15.8997 2.44074 16.8803 1.41316 17.6402 1.60209C18.4002 1.79101 18.6515 3.1249 18.5098 3.69483C18.3681 4.26476 17.7761 3.88376 17.0162 3.69483Z" fill="#021508"/>
<ellipse cx="13.4339" cy="3.58696" rx="1.00417" ry="1.3389" transform="rotate(29.8872 13.4339 3.58696)" fill="#021508"/>
<path fill-rule="evenodd" clip-rule="evenodd" d="M15.433 11.3562C15.7921 11.411 16.15 11.3584 16.4896 11.2164C16.8188 11.4594 17.2102 11.6282 17.6428 11.6943C19.0667 11.9119 20.3973 10.934 20.6149 9.51009C20.8245 8.13835 19.9246 6.85314 18.5852 6.56634C18.3874 5.20219 17.6171 4.1518 16.5585 3.99005C15.5978 3.84326 14.6451 4.46591 14.0315 5.51133C13.9238 5.48024 13.8128 5.45573 13.699 5.43834C12.2751 5.22078 10.9445 6.19869 10.7269 7.62255C10.5094 9.04642 11.4873 10.3771 12.9111 10.5946C13.3185 10.6569 13.7182 10.6213 14.0865 10.5053C14.4374 10.9662 14.8984 11.2745 15.433 11.3562Z" fill="#021508"/>
</svg>
