<svg width="66" height="66" viewBox="0 0 66 66" fill="none" xmlns="http://www.w3.org/2000/svg">
<circle cx="33" cy="33" r="33" fill="#8FCC93" fill-opacity="0.5"/>
<circle cx="32.8261" cy="32.8261" r="25.8261" fill="#8FCC93"/>
<path d="M17.7789 28.7026L17.7768 28.7095L17.7754 28.7166L15.0618 42.2686C14.9157 42.7578 15.0033 43.2871 15.3023 43.6917C15.5732 44.0602 15.9848 44.2717 16.4292 44.2717H49.0217L49.0297 44.2757H49.0651C49.5189 44.2757 49.9349 44.0549 50.2053 43.6739C50.5028 43.2621 50.5838 42.7199 50.4271 42.2593L47.1788 28.6314L47.1794 28.6313L47.1749 28.6181C46.9725 28.0197 46.432 27.6059 45.8231 27.6059H19.1562C18.5228 27.6059 17.9792 28.0407 17.7789 28.7026ZM19.1522 28.7004H19.3022V28.6964H45.8191C45.9406 28.6964 46.0705 28.7923 46.1183 28.9206L49.3664 42.5475L49.3659 42.5476L49.3697 42.5593C49.424 42.7255 49.4 42.8981 49.3072 43.0273C49.2607 43.0901 49.18 43.1692 49.0571 43.1692H16.4252C16.3099 43.1692 16.2293 43.0939 16.1816 43.0332C16.0945 42.9129 16.0615 42.7439 16.1219 42.5392L16.1225 42.5393L16.1251 42.5262L18.8385 28.9752C18.8972 28.7944 19.0316 28.7004 19.1522 28.7004Z" fill="white" stroke="white" stroke-width="0.3"/>
<path d="M38.9686 35.957H38.9686C38.9686 35.7312 39.1032 35.5166 39.3255 35.4333L39.3259 35.4331C39.6442 35.3147 39.8782 35.1819 40.0355 34.985C40.1906 34.791 40.2862 34.5154 40.2862 34.0805C40.2862 33.7076 40.174 33.333 39.9144 33.053C39.6573 32.7756 39.2394 32.5735 38.5916 32.5735C38.2608 32.5735 37.907 32.7261 37.5091 33.0211C37.1121 33.3155 36.687 33.7397 36.2152 34.2573C36.1111 34.3721 35.9631 34.4381 35.8087 34.4381H29.8118C29.6573 34.4381 29.5092 34.372 29.4051 34.257M38.9686 35.957L29.5163 34.1563M38.9686 35.957L38.9687 35.9605M38.9686 35.957L38.9687 35.9605M29.4051 34.257L29.5163 34.1563M29.4051 34.257C29.4051 34.257 29.4052 34.2571 29.4052 34.2571L29.5163 34.1563M29.4051 34.257C28.9977 33.8079 28.576 33.3853 28.1261 33.075C27.6771 32.7655 27.2084 32.5735 26.7055 32.5735C25.8264 32.5735 25.1985 33.1887 25.1985 34.0406C25.1985 34.4823 25.3115 34.7661 25.4717 34.9623C25.6334 35.1605 25.8559 35.2852 26.1062 35.3849M29.5163 34.1563C28.6978 33.254 27.7915 32.4235 26.7055 32.4235C25.7472 32.4235 25.0485 33.1023 25.0485 34.0406C25.0485 34.9788 25.5316 35.3182 26.0547 35.5258M26.1062 35.3849L26.1021 35.3835L26.0547 35.5258M26.1062 35.3849C26.1074 35.3854 26.1087 35.3859 26.11 35.3864L26.0547 35.5258M26.1062 35.3849L26.0547 35.5258M38.9687 35.9605C38.9741 36.1959 39.1274 36.3991 39.3471 36.4708C39.3473 36.4709 39.3475 36.4709 39.3478 36.471L39.3786 36.4813C39.6288 36.581 39.8513 36.7056 40.0131 36.9038C40.1732 37.1 40.2862 37.3838 40.2862 37.8256C40.2862 38.6774 39.6583 39.2926 38.7792 39.2926C38.2763 39.2926 37.8076 39.1007 37.3587 38.7911C36.9088 38.4808 36.487 38.0582 36.0797 37.6092C35.9756 37.4941 35.8275 37.428 35.673 37.428H29.676M38.9687 35.9605L29.676 37.428M29.676 37.428C29.5216 37.428 29.3736 37.494 29.2696 37.6089L29.676 37.428ZM26.1375 35.3953C26.1373 35.3953 26.1372 35.3952 26.137 35.3951L26.0906 35.5378L26.138 35.3955L26.1375 35.3953ZM29.9175 38.5266H35.432C36.3378 39.496 37.3951 40.3911 38.7792 40.3911C40.2612 40.3911 41.3847 39.2882 41.3847 37.8256C41.3847 36.8872 41.0223 36.3073 40.62 35.9507C41.0508 35.5794 41.3847 35.0018 41.3847 34.0805C41.3847 33.4374 41.1704 32.785 40.7083 32.292C40.2442 31.7968 39.5418 31.475 38.5916 31.475C37.9917 31.475 37.4344 31.7276 36.9267 32.0876C36.4368 32.435 35.9819 32.8905 35.5673 33.3396H30.0528C29.1503 32.3715 28.1534 31.475 26.7055 31.475C25.2235 31.475 24.1 32.578 24.1 34.0406C24.1 34.9793 24.4628 35.5594 24.8653 35.9159C24.4347 36.2891 24.1 36.8633 24.1 37.7857C24.1 38.4287 24.3144 39.0812 24.7764 39.5741C25.2406 40.0694 25.9429 40.3911 26.8931 40.3911C27.4931 40.3911 28.0504 40.1385 28.558 39.7786C29.048 39.4311 29.5028 38.9757 29.9175 38.5266Z" fill="white" stroke="white" stroke-width="0.3"/>
<path d="M23.1361 26.0048C23.2845 25.8777 23.3502 25.6847 23.3173 25.4981L23.3171 25.4973C23.2948 25.3744 23.2836 25.2477 23.2836 25.1289C23.2836 24.0674 24.0403 23.2387 24.9303 23.2387C25.5918 23.2387 26.1962 23.6921 26.4538 24.4203L26.4538 24.4203L26.455 24.4235C26.514 24.579 26.6341 24.7006 26.7939 24.7557C26.9541 24.8109 27.1245 24.788 27.2648 24.7017L27.265 24.7015C27.5147 24.5473 27.7792 24.4684 28.0566 24.4684C28.5811 24.4684 29.083 24.7632 29.3987 25.2683C29.5065 25.4409 29.7032 25.5473 29.9149 25.5258C29.9143 25.5259 29.9136 25.5259 29.913 25.526L29.9012 25.3764C29.7494 25.3924 29.6057 25.3166 29.5259 25.1888C29.1865 24.6458 28.6395 24.3184 28.0566 24.3184C27.7491 24.3184 27.4577 24.4062 27.1862 24.5739C27.0824 24.6378 26.9586 24.6538 26.8428 24.6138C26.727 24.5739 26.6392 24.4861 26.5952 24.3703C26.3198 23.5917 25.665 23.0887 24.9303 23.0887C23.9401 23.0887 23.1336 24.003 23.1336 25.1289C23.1336 25.2567 23.1456 25.3924 23.1696 25.5242C23.1935 25.6599 23.1456 25.7997 23.0378 25.8915M23.1361 26.0048C23.1365 26.0045 23.1368 26.0042 23.1372 26.0038L23.0378 25.8915M23.1361 26.0048C22.9935 26.1303 22.791 26.1747 22.6077 26.1138C22.4638 26.0672 22.316 26.0455 22.1714 26.0455C21.2813 26.0455 20.5247 26.8742 20.5247 27.9357C20.5247 28.2382 20.2779 28.485 19.9754 28.485C19.673 28.485 19.4262 28.2382 19.4262 27.9357C19.4262 26.3007 20.6469 24.947 22.1714 24.947H22.174C22.1779 24.947 22.1818 24.947 22.1859 24.947M23.1361 26.0048C23.1358 26.0051 23.1354 26.0054 23.1351 26.0057L23.0378 25.8915M23.0378 25.8915C22.934 25.9833 22.7863 26.0153 22.6545 25.9713L22.1859 24.947M22.1859 24.947C22.2705 23.3939 23.4541 22.1361 24.9263 22.1361C25.8821 22.1361 26.7358 22.6584 27.2306 23.4988C27.4938 23.4095 27.7693 23.3619 28.0486 23.3619C28.6834 23.3619 29.2873 23.6011 29.7666 24.0174C30.2781 23.3486 31.0423 22.9426 31.8775 22.9426C32.6396 22.9426 33.3388 23.281 33.842 23.843" fill="white" stroke="white" stroke-width="0.3"/>
</svg>
