<svg width="66" height="66" viewBox="0 0 66 66" fill="none" xmlns="http://www.w3.org/2000/svg">
<circle cx="33" cy="33" r="33" fill="#9498FF" fill-opacity="0.5"/>
<circle cx="32.8261" cy="32.8261" r="25.8261" fill="#9498FF"/>
<path d="M19.1786 27.8177L19.0725 27.7116L19.1786 27.8177L27.104 19.8923L26.9979 19.7862L27.104 19.8923C27.1502 19.846 27.2107 19.8209 27.2794 19.8204C27.3481 19.8209 27.4086 19.846 27.4548 19.8923L42.1558 34.5932C42.2024 34.6399 42.2276 34.7011 42.2276 34.7706C42.2276 34.8401 42.2024 34.9013 42.1558 34.948L34.2303 42.8734C34.1412 42.9626 33.9687 42.9626 33.8795 42.8734L19.1786 28.1725C19.1319 28.1258 19.1067 28.0646 19.1067 27.9951C19.1067 27.9256 19.1319 27.8644 19.1786 27.8177ZM27.2814 19.5204V19.5204H27.2774L27.2814 19.5204ZM33.1035 43.6436C33.1036 43.6438 33.1038 43.6439 33.1039 43.644C33.3655 43.9099 33.7121 44.0398 34.0569 44.0398C34.4017 44.0398 34.7483 43.9099 35.0099 43.6441C35.01 43.6439 35.0102 43.6438 35.0103 43.6436L42.9339 35.7201C42.934 35.7199 42.9342 35.7198 42.9343 35.7196C43.1912 35.4671 43.3301 35.1249 43.3301 34.7666C43.3301 34.407 43.1862 34.0655 42.9348 33.8141L28.2339 19.1132C27.7242 18.6034 26.8386 18.6034 26.3289 19.1132L18.4044 27.0376C18.4043 27.0378 18.4041 27.038 18.404 27.0381C18.1471 27.2907 18.0082 27.6328 18.0082 27.9911C18.0082 28.3494 18.1472 28.6915 18.404 28.9441C18.4041 28.9442 18.4043 28.9444 18.4044 28.9445L33.1035 43.6436Z" fill="white" stroke="white" stroke-width="0.3"/>
<path d="M40.1756 45.0142L40.1756 45.0143L40.1784 45.0169C40.2842 45.1174 40.4191 45.1729 40.5612 45.1739V45.1739H40.5652V45.1739C40.7039 45.173 40.8414 45.1235 40.9507 45.0142C41.165 44.7999 41.165 44.4534 40.9507 44.2391L37.4811 40.7695C37.2668 40.5552 36.9203 40.5552 36.706 40.7695C36.4917 40.9838 36.4917 41.3303 36.706 41.5446L40.1756 45.0142Z" fill="white" stroke="white" stroke-width="0.3"/>
<path d="M43.5253 41.6646L43.5252 41.6646L43.528 41.6673C43.6338 41.7678 43.7687 41.8233 43.9108 41.8243V41.8243H43.9148V41.8243C44.0536 41.8234 44.191 41.7739 44.3004 41.6646C44.5146 41.4503 44.5146 41.1038 44.3004 40.8895L40.8307 37.4199C40.6164 37.2056 40.2699 37.2056 40.0556 37.4199C39.8413 37.6342 39.8413 37.9807 40.0556 38.195L43.5253 41.6646ZM44.0882 41.4525C44.0394 41.5013 43.9796 41.5239 43.9129 41.5243C43.85 41.5238 43.788 41.5 43.7359 41.451L40.2678 37.9829C40.1706 37.8857 40.1706 37.7292 40.2678 37.632C40.3649 37.5349 40.5215 37.5349 40.6186 37.632L44.0882 41.1016C44.1854 41.1988 44.1854 41.3553 44.0882 41.4525Z" fill="white" stroke="white" stroke-width="0.3"/>
<path d="M21.1865 31.7308L21.1865 31.7308L21.1893 31.7335C21.2951 31.834 21.43 31.8895 21.5721 31.8905V31.8905H21.5761V31.8905C21.7148 31.8896 21.8523 31.8401 21.9616 31.7308L31.0169 22.6755C31.2312 22.4612 31.2312 22.1147 31.0169 21.9004C30.8026 21.6861 30.4561 21.6861 30.2418 21.9004L21.1865 30.9557C20.9722 31.17 20.9722 31.5165 21.1865 31.7308ZM21.7495 31.5187C21.7006 31.5675 21.6408 31.59 21.5741 31.5905C21.5113 31.59 21.4494 31.5662 21.3973 31.5173C21.3015 31.4201 21.3019 31.2645 21.3986 31.1678L30.454 22.1125C30.5511 22.0154 30.7077 22.0154 30.8048 22.1125C30.9019 22.2096 30.9019 22.3662 30.8048 22.4633L21.7495 31.5187Z" fill="white" stroke="white" stroke-width="0.3"/>
<path d="M24.9521 35.1485L24.9521 35.1485L24.9549 35.1512C25.0607 35.2517 25.1956 35.3072 25.3377 35.3082V35.3082H25.3417V35.3082C25.4804 35.3073 25.6179 35.2578 25.7272 35.1485L28.9932 31.8825C29.2075 31.6682 29.2075 31.3217 28.9932 31.1074C28.7789 30.8931 28.4324 30.8931 28.2181 31.1074L24.9521 34.3734C24.7378 34.5877 24.7378 34.9342 24.9521 35.1485Z" fill="white" stroke="white" stroke-width="0.3"/>
<path d="M27.9892 38.1866L27.9892 38.1866L27.992 38.1893C28.0978 38.2898 28.2327 38.3453 28.3748 38.3463V38.3463H28.3788V38.3463C28.5175 38.3453 28.655 38.2959 28.7643 38.1866L32.0303 34.9206C32.2446 34.7063 32.2446 34.3598 32.0303 34.1455C31.816 33.9312 31.4695 33.9312 31.2552 34.1455L27.9892 37.4115C27.7749 37.6258 27.7749 37.9723 27.9892 38.1866Z" fill="white" stroke="white" stroke-width="0.3"/>
<path d="M39.8833 50.2361L39.8833 50.2361L39.8861 50.2388C39.9919 50.3393 40.1268 50.3948 40.2689 50.3958V50.3958H40.2729V50.3958C40.4116 50.3948 40.5491 50.3454 40.6584 50.2361L49.5261 41.3684C49.7404 41.1541 49.7404 40.8076 49.5261 40.5933L47.4699 38.5371C47.2556 38.3228 46.9091 38.3228 46.6948 38.5371L37.8271 47.4048C37.6128 47.6191 37.6128 47.9656 37.8271 48.1799L39.8833 50.2361ZM40.2689 49.0674L38.9918 47.7903L47.0803 39.7017L48.3575 40.9789L40.2689 49.0674Z" fill="white" stroke="white" stroke-width="0.3"/>
<path d="M19.0902 20.5792L19.0902 20.5792L15.8681 17.3571M19.0902 20.5792L15.8681 17.3571M19.0902 20.5792L19.093 20.5819M19.0902 20.5792L19.093 20.5819M15.8681 17.3571C15.6538 17.1428 15.6538 16.7963 15.8681 16.582C16.0824 16.3677 16.4289 16.3677 16.6432 16.582L19.8653 19.8041C20.0796 20.0184 20.0796 20.3649 19.8653 20.5792C19.756 20.6885 19.6185 20.7379 19.4798 20.7389V20.7389H19.4758V20.7389M15.8681 17.3571L19.4758 20.7389M19.093 20.5819C19.1987 20.6824 19.3337 20.7379 19.4758 20.7389M19.093 20.5819L19.4758 20.7389" fill="white" stroke="white" stroke-width="0.3"/>
<path d="M20.5696 25.5182H20.7196V25.4944C20.8064 25.4707 20.8887 25.4251 20.9592 25.3545C21.1735 25.1402 21.1735 24.7937 20.9592 24.5794C20.349 23.9692 19.9702 23.2511 19.8462 22.5892C19.722 21.9264 19.8545 21.3366 20.2405 20.9506L20.2408 20.9504C20.6246 20.5648 21.2142 20.4321 21.8776 20.5563C22.54 20.6803 23.2591 21.0591 23.8693 21.6693C24.0836 21.8836 24.4301 21.8836 24.6444 21.6693C24.8587 21.455 24.8587 21.1085 24.6444 20.8942C23.8391 20.0889 22.8609 19.6002 21.9261 19.4654C20.9914 19.3306 20.0896 19.5495 19.4616 20.1754C18.8334 20.8015 18.6145 21.7036 18.7498 22.6388C18.8851 23.5741 19.3748 24.5532 20.1801 25.3585L20.1801 25.3586L20.1829 25.3612C20.2896 25.4626 20.4261 25.5182 20.5696 25.5182Z" fill="white" stroke="white" stroke-width="0.3"/>
</svg>
