<svg width="66" height="66" viewBox="0 0 66 66" fill="none" xmlns="http://www.w3.org/2000/svg">
<circle cx="33" cy="33" r="33" fill="#FFB23F" fill-opacity="0.5"/>
<circle cx="32.8261" cy="32.8261" r="25.8261" fill="#FFB23F"/>
<path d="M20.3239 32.0442H45.3418C46.311 32.0442 47.1009 31.2544 47.1009 30.2852V30.0417C47.1009 29.0724 46.311 28.2826 45.3418 28.2826H20.3239C19.3547 28.2826 18.5648 29.0724 18.5648 30.0417V30.2852C18.5648 31.2544 19.3547 32.0442 20.3239 32.0442ZM19.6634 30.0417C19.6634 29.6773 19.9595 29.3811 20.3239 29.3811H45.3418C45.7061 29.3811 46.0023 29.6773 46.0023 30.0417V30.2852C46.0023 30.6495 45.7061 30.9457 45.3418 30.9457H20.3239C19.9595 30.9457 19.6634 30.6495 19.6634 30.2852V30.0417Z" fill="white" stroke="white" stroke-width="0.3"/>
<path d="M20.3239 50.5149H45.3418C46.311 50.5149 47.1009 49.7251 47.1009 48.7559V48.5124C47.1009 47.5431 46.311 46.7533 45.3418 46.7533H20.3239C19.3547 46.7533 18.5648 47.5431 18.5648 48.5124V48.7559C18.5648 49.7251 19.3547 50.5149 20.3239 50.5149ZM19.6634 48.5124C19.6634 48.148 19.9595 47.8518 20.3239 47.8518H45.3418C45.7061 47.8518 46.0023 48.148 46.0023 48.5124V48.7559C46.0023 49.1202 45.7061 49.4164 45.3418 49.4164H20.3239C19.9595 49.4164 19.6634 49.1202 19.6634 48.7559V48.5124Z" fill="white" stroke="white" stroke-width="0.3"/>
<path d="M21.1707 47.8511H44.4918C44.7943 47.8511 45.0411 47.6043 45.0411 47.3019V31.495C45.0411 31.1925 44.7943 30.9457 44.4918 30.9457H21.1707C20.8683 30.9457 20.6215 31.1925 20.6215 31.495V47.3019C20.6215 47.6043 20.8683 47.8511 21.1707 47.8511ZM43.9425 32.0442V46.7526H21.72V32.0442H43.9425Z" fill="white" stroke="white" stroke-width="0.3"/>
<path d="M45.6377 26.4053L45.6376 26.4048C45.5686 26.042 45.3263 25.6737 45.0419 25.2512C44.8623 24.9877 44.6737 24.7052 44.5172 24.3964L44.5168 24.3957C44.3692 24.1005 44.259 23.7825 44.1565 23.4869L44.1539 23.4794L44.1536 23.4784C43.9919 23.0013 43.8478 22.5824 43.5812 22.2602L43.5812 22.2601C43.3533 21.9845 42.9992 21.77 42.5936 21.5267C42.5803 21.5187 42.5668 21.5107 42.5534 21.5027C42.2601 21.3276 41.9455 21.1398 41.6602 20.8982C41.3883 20.6742 41.1561 20.4052 40.9385 20.153C40.9297 20.1429 40.921 20.1328 40.9123 20.1227C40.5974 19.7594 40.3179 19.4406 39.9759 19.2397C39.5439 18.9881 39.0374 18.8839 38.4718 18.7676L38.4643 18.7661C38.1143 18.6945 37.7379 18.6169 37.3844 18.4977C37.0074 18.3707 36.6525 18.2032 36.3178 18.0439C35.7964 17.7973 35.3337 17.5792 34.8809 17.5305L34.8805 17.5305C34.3348 17.4702 33.7679 17.6205 33.1874 17.7777L33.1873 17.7777C32.8921 17.8575 32.5824 17.9391 32.2711 17.9924L32.2702 17.9925C31.9738 18.0413 31.6745 18.0736 31.3865 18.1016C31.3863 18.1016 31.3861 18.1016 31.386 18.1016L31.3802 18.1022C30.7211 18.171 30.1514 18.2304 29.7286 18.4877L29.7283 18.4879C29.2052 18.8047 28.8847 19.3859 28.5179 20.0509L28.5123 20.061L28.5122 20.0611L28.2607 20.5163L28.2587 20.5199L28.2587 20.5199C28.1194 20.7561 27.9477 20.9608 27.7843 21.152L27.784 21.1524C27.6736 21.2809 27.5731 21.3997 27.4935 21.5157C27.414 21.6318 27.3623 21.7355 27.342 21.8316C27.3239 21.9214 27.3301 22.0317 27.3559 22.1656C27.3816 22.299 27.4241 22.4429 27.4704 22.6L27.4705 22.6004C27.5463 22.8515 27.6266 23.1286 27.652 23.4254C27.6766 23.7046 27.6381 23.9816 27.6038 24.2288C27.6023 24.2397 27.6008 24.2504 27.5993 24.2612C27.5993 24.2612 27.5993 24.2613 27.5993 24.2613L27.5973 24.2757C27.5758 24.4337 27.5561 24.5792 27.5501 24.7149C27.544 24.8543 27.5532 24.9727 27.5852 25.0724C27.6135 25.1568 27.6687 25.2478 27.748 25.3502C27.8246 25.4493 27.9171 25.5506 28.0181 25.6613L28.0279 25.672L28.0286 25.6728L28.0343 25.679C28.2305 25.8908 28.444 26.1214 28.6041 26.4122M45.6377 26.4053L28.4728 26.4846M45.6377 26.4053C45.7254 26.8589 45.5951 27.3334 45.4411 27.8847M45.6377 26.4053L45.4954 23.9013M28.6041 26.4122C28.6042 26.4122 28.6042 26.4122 28.6042 26.4123L28.4728 26.4846M28.6041 26.4122C28.6041 26.4121 28.6041 26.412 28.604 26.4119L28.4728 26.4846M28.6041 26.4122C28.7589 26.6917 28.8347 26.9983 28.9019 27.271M28.4728 26.4846C28.6165 26.7441 28.6884 27.0316 28.7563 27.3071M28.9019 27.271C28.9018 27.2709 28.9018 27.2708 28.9018 27.2707L28.7563 27.3071M28.9019 27.271C28.9801 27.5841 29.0459 27.8361 29.178 28.0054L29.1784 28.0059C29.3649 28.2473 29.3207 28.589 29.0796 28.7753C28.8396 28.9607 28.4928 28.9191 28.3095 28.6755M28.9019 27.271C28.9019 27.2711 28.9019 27.2711 28.9019 27.2712L28.7563 27.3071M28.7563 27.3071L28.3095 28.6755M28.3095 28.6755C28.3097 28.6758 28.3099 28.6761 28.3101 28.6763L28.4289 28.5847M28.3095 28.6755L29.0597 28.0976C29.1955 28.2733 29.1635 28.5209 28.9878 28.6566C28.8122 28.7924 28.5606 28.7604 28.4289 28.5847M28.3095 28.6755C28.0325 28.316 27.9231 27.8827 27.8362 27.5351C27.7748 27.2896 27.7232 27.0873 27.6427 26.9402M28.3095 28.6755L26.2656 21.6156C26.1693 22.0882 26.3057 22.5461 26.4158 22.9157L26.4166 22.9181L26.4168 22.9188C26.4859 23.1464 26.5441 23.3418 26.5585 23.5183L26.5586 23.5191C26.5728 23.6827 26.548 23.8808 26.5156 24.1117C26.4604 24.4907 26.3933 24.9559 26.5455 25.4172C26.677 25.8202 26.9558 26.1249 27.2014 26.3933C27.2091 26.4016 27.2166 26.4099 27.2242 26.4181L27.2242 26.4182L27.2384 26.4337C27.4081 26.6191 27.5518 26.7762 27.6427 26.9402M28.3095 28.6755C28.3093 28.6753 28.3091 28.675 28.3089 28.6747L28.4289 28.5847M28.3095 28.6755L28.4289 28.5847M27.6427 26.9402C27.6427 26.9403 27.6428 26.9404 27.6428 26.9405L27.7741 26.8679L27.6425 26.94C27.6426 26.94 27.6426 26.9401 27.6427 26.9402ZM36.7858 17.0542C36.2389 16.7926 35.6412 16.5088 34.9968 16.4417C34.9966 16.4417 34.9965 16.4416 34.9963 16.4416L34.9808 16.5908L36.7216 17.1897M36.7858 17.0542C36.786 17.0542 36.7862 17.0543 36.7863 17.0544L36.7216 17.1897M36.7858 17.0542C36.7856 17.0541 36.7854 17.054 36.7852 17.0539L36.7216 17.1897M36.7858 17.0542C36.8017 17.0616 36.8177 17.0691 36.8337 17.0766C37.1352 17.2179 37.4381 17.3599 37.7363 17.463M36.7216 17.1897C36.7384 17.1976 36.7553 17.2055 36.7722 17.2134C37.072 17.354 37.3817 17.4991 37.6878 17.605M37.7363 17.463C37.7362 17.463 37.736 17.4629 37.7358 17.4629L37.6878 17.605M37.7363 17.463C38.0182 17.5582 38.3319 17.6239 38.6728 17.6952L38.6842 17.6976M37.7363 17.463C37.7365 17.4631 37.7367 17.4631 37.7368 17.4632L37.6878 17.605M37.6878 17.605L38.6842 17.6976M38.6842 17.6976L38.6848 17.6977L38.654 17.8445L38.6842 17.6976ZM45.4954 23.9013L45.4959 23.9022C45.6186 24.1475 45.7845 24.395 45.9493 24.6402L45.9497 24.6406L45.97 24.6712C46.2722 25.1243 46.6028 25.62 46.7109 26.2013C46.8439 26.9081 46.6568 27.586 46.5002 28.1536L46.4925 28.1815L46.4923 28.1821L46.4883 28.1964C46.4256 28.4198 46.3692 28.6206 46.3315 28.8167L46.1842 28.7884M45.4954 23.9013C45.3873 23.6887 45.3024 23.4438 45.2078 23.1711M45.4954 23.9013L45.2078 23.1711M46.1842 28.7884L46.3316 28.816C46.2822 29.0796 46.0527 29.2599 45.7969 29.2618V29.2618C45.7957 29.2618 45.7944 29.2618 45.793 29.2618C45.773 29.2619 45.7284 29.2621 45.6836 29.2492C45.3945 29.1862 45.198 28.9045 45.2586 28.6067C45.3077 28.3617 45.3727 28.118 45.4411 27.8847M46.1842 28.7884C46.2231 28.586 46.281 28.3799 46.343 28.1589L46.3479 28.1416L45.7969 29.1118C45.9829 29.1099 46.1485 28.9787 46.1842 28.7884ZM45.4411 27.8847C45.4412 27.8844 45.4413 27.8841 45.4413 27.8838L45.5853 27.926M45.4411 27.8847C45.441 27.885 45.4409 27.8853 45.4408 27.8856L45.5853 27.926M45.5853 27.926C45.5174 28.1575 45.4535 28.3971 45.4056 28.6367M45.5853 27.926L45.5871 27.9195C45.7381 27.3789 45.8804 26.8699 45.7849 26.3768L45.4056 28.6367M45.4056 28.6367C45.3617 28.8523 45.5054 29.0599 45.721 29.1038C45.7437 29.1113 45.7699 29.1118 45.7929 29.1118L45.4056 28.6367ZM45.192 23.1255L45.1884 23.115C45.015 22.6065 44.8238 22.046 44.4273 21.566L45.192 23.1255ZM45.192 23.1255C45.1973 23.1408 45.2026 23.156 45.2078 23.1711M45.192 23.1255L45.2078 23.1711M40.5257 18.2975C40.5256 18.2974 40.5255 18.2974 40.5254 18.2973L40.4507 18.4274L40.526 18.2977C40.5259 18.2976 40.5258 18.2976 40.5257 18.2975ZM41.742 19.4113C41.7419 19.4112 41.7418 19.4111 41.7417 19.4109L41.6286 19.5095L41.7424 19.4117C41.7423 19.4116 41.7421 19.4115 41.742 19.4113ZM43.1553 20.5908L43.1546 20.5903L44.4273 21.566C44.0739 21.1369 43.5975 20.8536 43.1595 20.5932L43.1553 20.5908Z" fill="white" stroke="white" stroke-width="0.3"/>
<path d="M32.7246 28.7386H32.6892C32.5405 28.7386 32.3921 28.6779 32.283 28.558C32.2829 28.5579 32.2828 28.5578 32.2828 28.5578L31.2329 27.4081L31.2248 27.3992L31.2252 27.3989C29.7798 25.5353 29.437 23.3887 30.3632 21.7783L30.3635 21.7778C31.0634 20.5696 32.3578 19.8269 33.9882 19.6675L33.9885 19.6675C35.5651 19.5163 37.2929 19.9331 38.8529 20.8327L38.853 20.8328C40.2927 21.6636 41.3806 22.9294 42.0568 24.2527C42.7315 25.5733 43.0041 26.9675 42.7901 28.0585L42.7899 28.0596C42.7301 28.3531 42.4418 28.5533 42.1456 28.492M32.7246 28.7386L38.3079 21.7874C39.5233 22.4877 40.4619 23.5728 41.0531 24.7039C41.6462 25.8385 41.88 26.9997 41.7131 27.849L41.7128 27.8506C41.658 28.1466 41.85 28.4317 42.1456 28.492M32.7246 28.7386L32.7351 28.7334M32.7246 28.7386L32.7351 28.7334M42.1456 28.492C42.1457 28.492 42.1457 28.492 42.1458 28.4921L42.1758 28.3451L42.1453 28.492C42.1454 28.492 42.1455 28.492 42.1456 28.492ZM32.7351 28.7334C32.8525 28.7256 32.9713 28.6812 33.0679 28.5897L32.9647 28.4808L33.0666 28.5909C33.2868 28.3873 33.3026 28.0418 33.1 27.8174L33.0992 27.8164L32.0733 26.6991C30.9005 25.1833 30.6414 23.5119 31.3219 22.3313C31.8308 21.4531 32.8068 20.889 34.101 20.7646C35.4425 20.6363 36.9368 20.9977 38.3078 21.7874L32.7351 28.7334Z" fill="white" stroke="white" stroke-width="0.3"/>
<path d="M27.0375 39.7723C27.0375 42.9664 29.6312 45.563 32.8242 45.5679L32.8251 45.5719C36.0222 45.5719 38.6207 42.9734 38.6207 39.7763C38.6207 39.2307 38.545 38.689 38.3973 38.1707L38.437 33.4904C38.442 33.2908 38.3362 33.1091 38.1667 33.0108C37.9966 32.912 37.7877 32.9118 37.6175 33.0104C37.6173 33.0105 37.617 33.0106 37.6168 33.0108L35.1041 34.4422C33.6622 33.8227 31.9906 33.8268 30.5495 34.4426L27.9632 33.0015L27.9632 33.0015L27.9623 33.001C27.7906 32.9068 27.5829 32.9136 27.4156 33.0108L27.4156 33.0107L27.4138 33.0119C27.2451 33.1131 27.1493 33.2999 27.1493 33.4918H27.1493L27.1493 33.4954L27.2606 38.1718C27.1132 38.6895 27.0375 39.227 27.0375 39.7723ZM35.4068 35.5306L37.3365 34.43L37.3066 38.2379V38.2391C37.3066 38.2889 37.3116 38.3441 37.3288 38.4018C37.4606 38.8477 37.5302 39.3044 37.5302 39.7723C37.5302 42.3605 35.4213 44.4693 32.8331 44.4693C30.2448 44.4693 28.136 42.3644 28.136 39.7723C28.136 39.3073 28.2019 38.8471 28.337 38.4069L28.3371 38.4069L28.3384 38.4023C28.3546 38.3428 28.3596 38.2892 28.3596 38.2351H28.3597L28.3596 38.2316L28.2698 34.4253L30.2607 35.5353L30.2612 35.5356C30.4219 35.6243 30.613 35.6233 30.7702 35.5474L30.7702 35.5474L30.771 35.547C32.0589 34.9166 33.6073 34.9166 34.8952 35.547L34.896 35.5474C35.0564 35.6248 35.2474 35.6186 35.405 35.5317L35.405 35.5317L35.4068 35.5306Z" fill="white" stroke="white" stroke-width="0.3"/>
<path d="M30.688 39.694C31.0344 39.694 31.3131 39.4152 31.3131 39.0689C31.3131 38.7225 31.0344 38.4437 30.688 38.4437C30.3417 38.4437 30.0629 38.7225 30.0629 39.0689C30.0629 39.4152 30.3417 39.694 30.688 39.694Z" fill="white" stroke="white" stroke-width="0.3"/>
<path d="M34.981 39.694C35.3273 39.694 35.6061 39.4152 35.6061 39.0689C35.6061 38.7225 35.3273 38.4437 34.981 38.4437C34.6346 38.4437 34.3559 38.7225 34.3559 39.0689C34.3559 39.4152 34.6346 39.694 34.981 39.694Z" fill="white" stroke="white" stroke-width="0.3"/>
<path d="M30.1352 41.4686C30.1352 42.3662 30.8654 43.0919 31.7584 43.0919C32.6561 43.0919 33.3817 42.3617 33.3817 41.4686C33.3817 41.1662 33.1349 40.9193 32.8325 40.9193C32.53 40.9193 32.2832 41.1662 32.2832 41.4686C32.2832 41.7571 32.0469 41.9934 31.7584 41.9934C31.47 41.9934 31.2337 41.7571 31.2337 41.4686C31.2337 41.1662 30.9869 40.9193 30.6844 40.9193C30.382 40.9193 30.1352 41.1662 30.1352 41.4686Z" fill="white" stroke="white" stroke-width="0.3"/>
<path d="M32.2836 41.4686C32.2836 42.3662 33.0138 43.0919 33.9069 43.0919C34.8045 43.0919 35.5302 42.3617 35.5302 41.4686C35.5302 41.1662 35.2833 40.9193 34.9809 40.9193C34.6785 40.9193 34.4316 41.1662 34.4316 41.4686C34.4316 41.7571 34.1954 41.9934 33.9069 41.9934C33.6184 41.9934 33.3821 41.7571 33.3821 41.4686C33.3821 41.1662 33.1353 40.9193 32.8329 40.9193C32.5304 40.9193 32.2836 41.1662 32.2836 41.4686Z" fill="white" stroke="white" stroke-width="0.3"/>
<path d="M33.1413 41.5156H33.1541L33.1972 41.4759L33.5006 41.1964L33.5126 41.1853L33.522 41.1719C33.7383 40.862 33.5216 40.433 33.1355 40.433H32.5246C32.1442 40.433 31.9207 40.8606 32.1381 41.1719L32.1474 41.1853L32.1594 41.1964L32.4629 41.4759L32.4627 41.4761L32.4695 41.4817C32.5803 41.5723 32.7075 41.6218 32.8382 41.6204C32.9487 41.6191 33.0525 41.5815 33.1413 41.5156Z" fill="white" stroke="white" stroke-width="0.3"/>
</svg>
