<svg width="34" height="34" viewBox="0 0 34 34" fill="none" xmlns="http://www.w3.org/2000/svg">
<circle cx="17" cy="17" r="17" fill="#8FCC93"/>
<path d="M17 19.5C18.3807 19.5 19.5 18.3807 19.5 17C19.5 15.6193 18.3807 14.5 17 14.5C15.6193 14.5 14.5 15.6193 14.5 17C14.5 18.3807 15.6193 19.5 17 19.5Z" stroke="white" stroke-width="2" stroke-linecap="round" stroke-linejoin="round"/>
<path d="M23.1663 19.4999C23.0554 19.7513 23.0223 20.0301 23.0713 20.3004C23.1204 20.5707 23.2492 20.8202 23.4413 21.0166L23.4913 21.0666C23.6463 21.2214 23.7692 21.4052 23.8531 21.6075C23.937 21.8098 23.9802 22.0267 23.9802 22.2458C23.9802 22.4648 23.937 22.6817 23.8531 22.884C23.7692 23.0863 23.6463 23.2701 23.4913 23.4249C23.3366 23.5799 23.1527 23.7028 22.9504 23.7867C22.7481 23.8706 22.5312 23.9137 22.3122 23.9137C22.0931 23.9137 21.8763 23.8706 21.6739 23.7867C21.4716 23.7028 21.2878 23.5799 21.133 23.4249L21.083 23.3749C20.8866 23.1828 20.6372 23.0539 20.3668 23.0049C20.0965 22.9559 19.8177 22.989 19.5663 23.0999C19.3199 23.2056 19.1097 23.381 18.9616 23.6045C18.8135 23.8281 18.7341 24.0901 18.733 24.3583V24.4999C18.733 24.9419 18.5574 25.3659 18.2449 25.6784C17.9323 25.991 17.5084 26.1666 17.0663 26.1666C16.6243 26.1666 16.2004 25.991 15.8878 25.6784C15.5753 25.3659 15.3997 24.9419 15.3997 24.4999V24.4249C15.3932 24.1491 15.3039 23.8816 15.1434 23.6572C14.9829 23.4328 14.7586 23.2618 14.4997 23.1666C14.2483 23.0557 13.9695 23.0226 13.6992 23.0716C13.4289 23.1206 13.1794 23.2495 12.983 23.4416L12.933 23.4916C12.7782 23.6465 12.5944 23.7695 12.3921 23.8534C12.1897 23.9372 11.9729 23.9804 11.7538 23.9804C11.5348 23.9804 11.3179 23.9372 11.1156 23.8534C10.9133 23.7695 10.7295 23.6465 10.5747 23.4916C10.4197 23.3368 10.2968 23.153 10.2129 22.9507C10.129 22.7483 10.0859 22.5314 10.0859 22.3124C10.0859 22.0934 10.129 21.8765 10.2129 21.6742C10.2968 21.4719 10.4197 21.288 10.5747 21.1333L10.6247 21.0833C10.8168 20.8869 10.9457 20.6374 10.9947 20.3671C11.0437 20.0967 11.0106 19.8179 10.8997 19.5666C10.794 19.3201 10.6186 19.1099 10.3951 18.9618C10.1715 18.8138 9.9095 18.7343 9.64134 18.7333H9.49967C9.05765 18.7333 8.63372 18.5577 8.32116 18.2451C8.0086 17.9325 7.83301 17.5086 7.83301 17.0666C7.83301 16.6246 8.0086 16.2006 8.32116 15.8881C8.63372 15.5755 9.05765 15.3999 9.49967 15.3999H9.57467C9.8505 15.3935 10.118 15.3042 10.3424 15.1437C10.5668 14.9832 10.7378 14.7589 10.833 14.4999C10.9439 14.2486 10.977 13.9698 10.928 13.6994C10.879 13.4291 10.7501 13.1797 10.558 12.9833L10.508 12.9333C10.353 12.7785 10.2301 12.5946 10.1462 12.3923C10.0624 12.19 10.0192 11.9731 10.0192 11.7541C10.0192 11.5351 10.0624 11.3182 10.1462 11.1159C10.2301 10.9135 10.353 10.7297 10.508 10.5749C10.6628 10.42 10.8466 10.297 11.0489 10.2132C11.2513 10.1293 11.4681 10.0861 11.6872 10.0861C11.9062 10.0861 12.1231 10.1293 12.3254 10.2132C12.5277 10.297 12.7116 10.42 12.8663 10.5749L12.9163 10.6249C13.1127 10.817 13.3622 10.9459 13.6325 10.9949C13.9028 11.0439 14.1817 11.0108 14.433 10.8999H14.4997C14.7461 10.7943 14.9564 10.6189 15.1044 10.3953C15.2525 10.1717 15.3319 9.90974 15.333 9.64159V9.49992C15.333 9.05789 15.5086 8.63397 15.8212 8.32141C16.1337 8.00885 16.5576 7.83325 16.9997 7.83325C17.4417 7.83325 17.8656 8.00885 18.1782 8.32141C18.4907 8.63397 18.6663 9.05789 18.6663 9.49992V9.57492C18.6674 9.84307 18.7469 10.1051 18.8949 10.3286C19.043 10.5522 19.2532 10.7276 19.4997 10.8333C19.751 10.9442 20.0298 10.9773 20.3002 10.9283C20.5705 10.8792 20.8199 10.7504 21.0163 10.5583L21.0663 10.5083C21.2211 10.3533 21.4049 10.2304 21.6073 10.1465C21.8096 10.0626 22.0265 10.0194 22.2455 10.0194C22.4645 10.0194 22.6814 10.0626 22.8837 10.1465C23.0861 10.2304 23.2699 10.3533 23.4247 10.5083C23.5796 10.663 23.7026 10.8469 23.7864 11.0492C23.8703 11.2515 23.9135 11.4684 23.9135 11.6874C23.9135 11.9064 23.8703 12.1233 23.7864 12.3257C23.7026 12.528 23.5796 12.7118 23.4247 12.8666L23.3747 12.9166C23.1826 13.113 23.0537 13.3624 23.0047 13.6328C22.9557 13.9031 22.9887 14.1819 23.0997 14.4333V14.4999C23.2053 14.7464 23.3807 14.9566 23.6043 15.1047C23.8279 15.2527 24.0899 15.3322 24.358 15.3333H24.4997C24.9417 15.3333 25.3656 15.5088 25.6782 15.8214C25.9907 16.134 26.1663 16.5579 26.1663 16.9999C26.1663 17.4419 25.9907 17.8659 25.6782 18.1784C25.3656 18.491 24.9417 18.6666 24.4997 18.6666H24.4247C24.1565 18.6677 23.8945 18.7471 23.671 18.8952C23.4474 19.0432 23.272 19.2534 23.1663 19.4999Z" stroke="white" stroke-width="2" stroke-linecap="round" stroke-linejoin="round"/>
</svg>
