<svg width="40" height="40" viewBox="0 0 40 40" fill="none" xmlns="http://www.w3.org/2000/svg">
<rect x="1" y="1" width="38" height="38" rx="9" fill="white" stroke="#8FCC93" stroke-width="2"/>
<g clip-path="url(#clip0_951_3036)">
<path d="M26.0001 18H24.7401C24.366 16.551 23.5929 15.236 22.5088 14.2044C21.4246 13.1728 20.0728 12.466 18.607 12.1643C17.1412 11.8626 15.6202 11.978 14.2168 12.4976C12.8133 13.0171 11.5838 13.9199 10.6678 15.1034C9.75177 16.2868 9.1861 17.7035 9.03502 19.1924C8.88393 20.6812 9.1535 22.1826 9.81309 23.526C10.4727 24.8693 11.4958 26.0007 12.7663 26.7916C14.0368 27.5824 15.5036 28.0011 17.0001 28H26.0001C27.3262 28 28.598 27.4732 29.5356 26.5355C30.4733 25.5979 31.0001 24.3261 31.0001 23C31.0001 21.6739 30.4733 20.4021 29.5356 19.4645C28.598 18.5268 27.3262 18 26.0001 18Z" stroke="#8FCC93" stroke-width="2" stroke-linecap="round" stroke-linejoin="round"/>
</g>
<defs>
<clipPath id="clip0_951_3036">
<rect width="24" height="24" fill="white" transform="translate(8 8)"/>
</clipPath>
</defs>
</svg>
