<svg width="40" height="40" viewBox="0 0 40 40" fill="none" xmlns="http://www.w3.org/2000/svg">
<rect x="1" y="1" width="38" height="38" rx="9" fill="white" stroke="#8FCC93" stroke-width="2"/>
<g clip-path="url(#clip0_951_3033)">
<path d="M28 25.5797C29.0513 25.1193 29.9121 24.3113 30.4381 23.2913C30.9641 22.2712 31.1232 21.1013 30.8886 19.9779C30.6541 18.8545 30.0402 17.8459 29.1501 17.1215C28.2599 16.3972 27.1477 16.0011 26 15.9997H24.74C24.4231 14.7722 23.8189 13.6377 22.9773 12.6895C22.1358 11.7414 21.081 11.0068 19.8998 10.5463C18.7186 10.0859 17.4449 9.91273 16.1837 10.0412C14.9225 10.1696 13.7098 10.5959 12.6457 11.285C11.5816 11.9741 10.6965 12.9062 10.0633 14.0045C9.43018 15.1028 9.06711 16.3359 9.00404 17.6021C8.94098 18.8682 9.17974 20.1313 9.70064 21.2871C10.2215 22.4429 11.0097 23.4583 12 24.2497" stroke="#8FCC93" stroke-width="2" stroke-linecap="round" stroke-linejoin="round"/>
<path d="M16 24H16.01" stroke="#8FCC93" stroke-width="2" stroke-linecap="round" stroke-linejoin="round"/>
<path d="M16 28H16.01" stroke="#8FCC93" stroke-width="2" stroke-linecap="round" stroke-linejoin="round"/>
<path d="M20 26H20.01" stroke="#8FCC93" stroke-width="2" stroke-linecap="round" stroke-linejoin="round"/>
<path d="M20 30H20.01" stroke="#8FCC93" stroke-width="2" stroke-linecap="round" stroke-linejoin="round"/>
<path d="M24 24H24.01" stroke="#8FCC93" stroke-width="2" stroke-linecap="round" stroke-linejoin="round"/>
<path d="M24 28H24.01" stroke="#8FCC93" stroke-width="2" stroke-linecap="round" stroke-linejoin="round"/>
</g>
<defs>
<clipPath id="clip0_951_3033">
<rect width="24" height="24" fill="white" transform="translate(8 8)"/>
</clipPath>
</defs>
</svg>
