<svg width="40" height="40" viewBox="0 0 40 40" fill="none" xmlns="http://www.w3.org/2000/svg">
<rect x="1" y="1" width="38" height="38" rx="9" fill="white" stroke="#8FCC93" stroke-width="2"/>
<g clip-path="url(#clip0_951_3018)">
<path d="M20 25C22.7614 25 25 22.7614 25 20C25 17.2386 22.7614 15 20 15C17.2386 15 15 17.2386 15 20C15 22.7614 17.2386 25 20 25Z" stroke="#8FCC93" stroke-width="2" stroke-linecap="round" stroke-linejoin="round"/>
<path d="M20 9V11" stroke="#8FCC93" stroke-width="2" stroke-linecap="round" stroke-linejoin="round"/>
<path d="M20 29V31" stroke="#8FCC93" stroke-width="2" stroke-linecap="round" stroke-linejoin="round"/>
<path d="M12.2197 12.2197L13.6397 13.6397" stroke="#8FCC93" stroke-width="2" stroke-linecap="round" stroke-linejoin="round"/>
<path d="M26.3604 26.3604L27.7804 27.7804" stroke="#8FCC93" stroke-width="2" stroke-linecap="round" stroke-linejoin="round"/>
<path d="M9 20H11" stroke="#8FCC93" stroke-width="2" stroke-linecap="round" stroke-linejoin="round"/>
<path d="M29 20H31" stroke="#8FCC93" stroke-width="2" stroke-linecap="round" stroke-linejoin="round"/>
<path d="M12.2197 27.7804L13.6397 26.3604" stroke="#8FCC93" stroke-width="2" stroke-linecap="round" stroke-linejoin="round"/>
<path d="M26.3604 13.6397L27.7804 12.2197" stroke="#8FCC93" stroke-width="2" stroke-linecap="round" stroke-linejoin="round"/>
</g>
<defs>
<clipPath id="clip0_951_3018">
<rect width="24" height="24" fill="white" transform="translate(8 8)"/>
</clipPath>
</defs>
</svg>
