<svg width="20" height="19" viewBox="0 0 20 19" fill="none" xmlns="http://www.w3.org/2000/svg">
<path d="M9.16699 2.76758H3.33366C2.89163 2.76758 2.46771 2.94317 2.15515 3.25573C1.84259 3.56829 1.66699 3.99222 1.66699 4.43424V16.1009C1.66699 16.5429 1.84259 16.9669 2.15515 17.2794C2.46771 17.592 2.89163 17.7676 3.33366 17.7676H15.0003C15.4424 17.7676 15.8663 17.592 16.1788 17.2794C16.4914 16.9669 16.667 16.5429 16.667 16.1009V10.2676" stroke="#BDBDBD" stroke-width="2" stroke-linecap="round" stroke-linejoin="round"/>
<path d="M15.417 1.51777C15.7485 1.18625 16.1982 1 16.667 1C17.1358 1 17.5855 1.18625 17.917 1.51777C18.2485 1.84929 18.4348 2.29893 18.4348 2.76777C18.4348 3.23661 18.2485 3.68625 17.917 4.01777L10.0003 11.9344L6.66699 12.7678L7.50033 9.43443L15.417 1.51777Z" stroke="#BDBDBD" stroke-width="2" stroke-linecap="round" stroke-linejoin="round"/>
</svg>
