<svg width="82" height="96" viewBox="0 0 82 96" fill="none" xmlns="http://www.w3.org/2000/svg">
<path d="M76.7976 71.471C76.9138 71.5464 77.0202 71.6489 77.1479 71.6914C78.4174 72.1245 79.3599 72.9791 80.1146 74.0445C81.7596 76.3667 82.077 78.9073 81.2429 81.6008C80.9545 82.5289 80.5946 83.4357 80.2849 84.3599C80.2211 84.5494 80.1843 84.7737 80.2211 84.967C80.4436 86.1658 80.1398 87.2177 79.3831 88.1554C78.5336 89.2054 77.5001 90.0329 76.3177 90.6768C74.4947 91.6687 72.5556 92.3531 70.5371 92.8153C69.763 92.9912 68.9715 93.0956 68.1858 93.2155C67.7988 93.2754 67.4601 93.3779 67.1369 93.639C66.1964 94.393 65.0875 94.8126 63.9264 95.0968C62.6936 95.3985 61.4396 95.5705 60.1739 95.6479C58.7477 95.7349 57.3195 95.818 55.8912 95.8606C53.7315 95.9244 51.5718 95.9669 49.4101 95.9921C47.6897 96.0114 45.9673 96.0095 44.2469 95.9785C42.2188 95.9437 40.1906 95.878 38.1625 95.8064C36.266 95.7388 34.3694 95.6344 32.471 95.5725C31.3679 95.5357 30.2629 95.5609 29.1598 95.5435C28.1863 95.5299 27.2129 95.5009 26.2395 95.4719C24.6487 95.4255 23.0599 95.3849 21.4711 95.325C18.8101 95.2264 16.1608 94.9982 13.523 94.6154C12.3541 94.4452 11.164 94.4201 9.98734 94.2886C9.15132 94.1939 8.30755 94.0914 7.49475 93.8826C6.39747 93.6003 5.32148 93.229 4.24742 92.8636C3.88359 92.7399 3.53912 92.5368 3.21013 92.3319C2.60633 91.9529 2.23283 91.3845 2.02576 90.7155C1.85159 90.1509 1.97545 89.623 2.31992 89.1474C2.40507 89.0294 2.5057 88.925 2.61988 88.7896C2.54828 88.6891 2.48054 88.5847 2.40313 88.4861C1.85159 87.7997 1.52453 87.0166 1.36197 86.1542C1.29618 85.8062 1.18974 85.464 1.07749 85.1295C0.814302 84.3464 0.496922 83.5788 0.27437 82.7841C-0.0430099 81.6452 -0.0623623 80.4813 0.109874 79.3076C0.313074 77.9212 0.616907 76.5639 1.16458 75.2704C1.55356 74.3481 2.10898 73.5341 2.80953 72.8167C2.94307 72.6814 3.0495 72.5112 3.13659 72.3411C3.37462 71.879 3.57008 71.3956 3.82554 70.9431C4.8725 69.0811 6.41295 67.8379 8.51656 67.368C9.41257 67.1669 10.3241 67.2114 11.2201 67.4396C11.3285 67.4666 11.4368 67.4995 11.6129 67.5498C11.5588 67.1534 11.5201 66.7938 11.4601 66.438C11.1446 64.5373 11.2433 62.6541 11.6845 60.7824C11.9226 59.7692 12.1974 58.7657 12.6735 57.8357C12.8708 57.449 13.1147 57.0758 13.3895 56.7394C13.6411 56.4319 14.0243 56.4049 14.3126 56.5944C14.6261 56.7993 14.7442 57.2208 14.5061 57.5321C13.6004 58.7212 13.2753 60.1269 12.9618 61.5403C12.5786 63.2612 12.5883 64.984 12.9192 66.7125C13.0799 67.5575 13.1437 68.4121 13.0876 69.2803C13.0353 70.0769 13.165 70.8658 13.3721 71.6392C13.6991 72.8612 14.003 74.0909 14.3513 75.3071C14.5197 75.8968 14.7422 76.4769 14.988 77.0396C15.1757 77.4688 15.2764 77.9038 15.2376 78.364C15.1428 79.47 15.4544 80.4484 16.1259 81.3223C16.1356 81.3359 16.1453 81.3494 16.155 81.361C16.691 81.9623 16.8168 82.5714 16.3311 83.2965C16.0021 83.7876 16.0504 84.3889 16.1704 84.9535C16.3388 85.7443 16.6871 86.4559 17.2077 87.0765C17.5948 87.5367 18.005 87.9776 18.3863 88.4416C18.5488 88.6388 18.7153 88.8612 18.783 89.1009C18.9378 89.6385 19.2997 89.913 19.8087 90.0271C20.6002 90.205 21.3975 90.3577 22.189 90.5298C22.5374 90.6052 22.8915 90.6768 23.2244 90.7986C24.1668 91.1428 25.1364 91.1234 26.1118 91.0383C26.2356 91.0267 26.3808 90.9861 26.4678 90.9049C27.0504 90.3713 27.7354 90.0078 28.4689 89.6849C28.3586 89.3059 28.2405 88.9405 28.1457 88.5692C27.9309 87.7243 28.0818 86.918 28.4786 86.1658C28.8017 85.551 29.3456 85.2261 30.0151 85.1546C30.3054 83.1863 30.6673 81.2276 31.1202 79.2863C31.4724 77.782 32.1942 76.4692 33.3167 75.3961C33.6224 75.1022 33.7927 74.787 33.8508 74.35C34.0482 72.8554 34.2746 71.3627 34.5378 69.8777C34.7352 68.7737 35.07 67.7006 35.5809 66.6971C35.7647 66.3374 35.9679 65.9778 36.2253 65.6704C36.4034 65.4577 36.6666 65.2895 36.9259 65.1773C37.2181 65.0497 37.5626 65.216 37.7213 65.4867C37.88 65.7574 37.8529 66.1325 37.5839 66.3258C37.1194 66.6584 36.9046 67.1457 36.6898 67.6329C36.1479 68.8607 35.8654 70.16 35.6602 71.4768C35.4861 72.5982 35.3371 73.7255 35.1919 74.8508C35.1319 75.3206 34.9713 75.7402 34.6171 76.0554C33.158 77.3547 32.4981 79.0466 32.1826 80.9202C31.9639 82.2156 31.7065 83.5053 31.4666 84.7969C31.3485 85.435 31.1898 85.5684 30.5028 85.6012C30.5802 86.0827 30.3499 86.394 29.9474 86.6338C29.8081 86.7169 29.6842 86.8793 29.6204 87.0321C29.2952 87.819 29.481 88.5654 29.8952 89.2576C29.9861 89.4103 30.2261 89.5225 30.4157 89.5553C30.8763 89.6346 31.2866 89.8009 31.664 90.0696C32.7671 90.8624 34.0172 91.2878 35.3332 91.5623C36.0492 91.7112 36.7091 91.6822 37.3284 91.2356C37.7135 90.9571 38.1219 90.9997 38.5031 91.2858C38.685 91.4231 38.8631 91.5623 39.0469 91.6977C39.4049 91.9606 39.7997 92.0786 40.239 91.9548C40.6744 91.8311 41.1021 91.6745 41.5414 91.5604C42.0252 91.4347 42.5149 91.2646 43.0083 91.2452C44.3204 91.195 45.528 90.8083 46.6872 90.2359C46.8382 90.1625 46.9466 90.0097 47.084 89.9053C47.2465 89.7816 47.4071 89.6037 47.591 89.5708C47.8252 89.5263 47.9838 89.4296 48.098 89.244C48.4522 88.6678 48.9708 88.2444 49.4411 87.7726C50.1165 87.0959 50.8132 86.4307 51.4189 85.6921C52.4194 84.4701 52.9806 83.0528 53.0987 81.4596C53.1703 80.4832 53.4664 79.5512 53.8186 78.6386C54.2037 77.639 54.6121 76.649 54.9507 75.6339C55.4965 74.0058 55.6861 72.3121 55.7306 70.6028C55.7442 70.102 55.6997 69.6012 55.6822 69.1005C55.6687 68.6848 55.8409 68.3812 56.1525 68.2768C56.5492 68.1414 56.9634 68.3541 57.035 68.795C57.1162 69.3054 57.1762 69.8294 57.1588 70.3437C57.1046 71.9505 56.9866 73.5573 56.557 75.1138C56.2996 76.0496 55.9609 76.9661 55.6242 77.8768C55.2429 78.9112 54.7688 79.9147 54.5811 81.011C54.4882 81.5544 54.4476 82.1074 54.3508 82.6487C54.0412 84.3967 53.1858 85.8797 52.0188 87.181C51.3802 87.8925 50.6584 88.5286 49.9733 89.1996C49.8165 89.3542 49.6636 89.5128 49.4527 89.7274C49.9442 89.71 50.3468 89.739 50.7319 89.6694C51.0977 89.6037 51.4034 89.6578 51.6995 89.8628C51.7653 89.9092 51.8388 89.9459 51.9046 89.9942C53.1451 90.9049 54.5366 91.4521 56.0383 91.7499C57.5497 92.0515 59.0515 92.4015 60.5939 92.5194C61.4183 92.5832 62.2117 92.4556 63.0013 92.2545C63.189 92.2062 63.3768 92.1521 63.5645 92.0979C64.1141 91.9336 64.6734 91.8504 65.2462 91.9181C66.2061 92.0322 67.1563 91.9413 68.1084 91.8214C70.4791 91.5217 72.7394 90.8411 74.8992 89.826C76.0564 89.2827 77.1131 88.5924 77.9723 87.6353C78.1775 87.4072 78.3768 87.1655 78.5374 86.9044C78.8471 86.4056 78.9903 85.8584 78.8277 85.2745C78.7019 84.8162 78.7619 84.3909 78.9187 83.9442C79.3425 82.7357 79.8263 81.537 80.103 80.2918C80.6546 77.8149 79.9153 75.6745 78.1175 73.9014C77.5369 73.3291 76.8383 72.954 76.0081 72.8883C75.7526 72.867 75.4914 72.8921 75.2359 72.9269C74.4386 73.0371 73.9277 72.4629 74.1309 71.6779C74.158 71.5735 74.1773 71.4516 74.1522 71.3511C73.6897 69.5935 73.2871 67.8185 72.7375 66.0899C71.8415 63.2767 70.0108 61.144 67.6091 59.4773C67.344 59.2936 67.0498 59.1486 66.7557 59.0132C66.3551 58.8295 66.0532 58.555 65.8442 58.1683C65.4513 57.4393 65.0585 56.7104 64.6559 55.9872C63.9186 54.6608 63.1039 53.3963 61.935 52.3947C61.6447 52.1453 61.3331 51.9635 60.9751 51.8475C60.7274 51.7683 60.559 51.8224 60.4797 52.0718C60.2165 52.8897 59.6263 53.4388 58.9721 53.9338C57.8884 54.7517 56.6595 55.2409 55.3339 55.4922C54.794 55.5947 54.2424 55.6663 53.6928 55.6895C53.1664 55.7107 52.8432 55.2119 53.0484 54.7536C53.1703 54.481 53.4006 54.3476 53.6986 54.307C54.2598 54.2296 54.8269 54.1639 55.3803 54.044C56.4583 53.812 57.4491 53.375 58.3084 52.6751C58.7244 52.3367 59.1173 51.9809 59.1831 51.3815C59.2179 51.0567 59.4598 50.8402 59.7617 50.7087C60.1178 50.5521 60.4778 50.4032 60.8319 50.2388C61.9098 49.7419 62.7652 48.982 63.3845 47.9785C63.8431 47.2341 64.1121 46.4259 63.9844 45.5249C63.9302 45.1478 64.1296 44.8539 64.4431 44.7611C64.7837 44.6606 65.1378 44.8056 65.283 45.1652C65.3759 45.3992 65.4204 45.6699 65.4165 45.9212C65.3894 47.3656 64.8379 48.6069 63.8722 49.6626C63.4484 50.1267 62.9626 50.5366 62.4614 51.0142C63.5045 51.8437 64.4082 52.8336 65.0991 53.9976C65.7842 55.1539 66.4364 56.3275 67.1137 57.5186C67.5414 56.2077 67.6885 54.8948 67.7175 53.5606C67.7485 52.1008 67.7736 50.6391 68.1394 49.2102C68.329 48.4658 68.6019 47.7562 69.0354 47.1162C69.7824 46.0102 70.8255 45.3605 72.1569 45.2909C73.3819 45.2271 74.5024 45.5945 75.4333 46.4259C76.3274 47.2206 76.9737 48.1873 77.2931 49.3436C77.4092 49.7632 77.5717 50.0377 78.0149 50.1982C78.6884 50.4419 79.1819 50.9542 79.5941 51.5304C80.3314 52.5649 80.7649 53.7308 81.0261 54.9663C81.2739 56.1419 81.239 57.3233 81.1094 58.5047C81.0765 58.8044 81.0958 59.0732 81.239 59.3496C82.2008 61.2078 82.1892 63.1239 81.537 65.0632C81.2022 66.0571 80.6294 66.9272 80.0605 67.7992C79.5476 68.5881 79.0522 69.3886 78.5723 70.1987C78.2936 70.6686 77.9781 71.0881 77.5137 71.3859C77.2873 71.5309 77.055 71.6276 76.786 71.4845C76.2519 71.1403 76.1958 70.6589 76.6873 70.2703C77.0318 69.9976 77.2524 69.6573 77.4692 69.2919C77.9007 68.5668 78.3458 67.8495 78.8084 67.1437C79.3522 66.3142 79.9134 65.4964 80.2288 64.5451C80.7475 62.9712 80.7688 61.4224 79.956 59.9258C79.7489 59.543 79.6541 59.1428 79.6908 58.7077C79.7257 58.3036 79.7469 57.8976 79.7837 57.4954C79.9327 55.8441 79.5573 54.3031 78.7774 52.8549C78.3729 52.1028 77.8253 51.5092 76.9505 51.2849C76.5461 51.1805 76.2867 50.8943 76.1745 50.4825C76.1068 50.233 76.0313 49.9836 75.9558 49.7361C75.65 48.7442 75.1101 47.9012 74.2663 47.296C72.9775 46.3718 70.9203 46.335 69.9546 48.342C69.8076 48.6475 69.6876 48.9685 69.5869 49.2933C69.2831 50.2775 69.1863 51.2984 69.1592 52.3193C69.1109 54.0711 69.0993 55.8267 68.5903 57.5283C68.5187 57.768 68.4316 58.0039 68.3445 58.2649C68.331 58.2456 68.3368 58.263 68.3503 58.2707C68.4819 58.3655 68.6174 58.4544 68.749 58.5511C71.0055 60.2159 72.7801 62.2789 73.8096 64.9047C74.2509 66.0319 74.5431 67.223 74.8682 68.3928C75.1488 69.406 75.3811 70.4327 75.65 71.5174C76.0332 71.498 76.4164 71.4845 76.7976 71.471ZM1.76838 78.2654C1.45874 79.2012 1.38133 80.1661 1.42971 81.1425C1.48196 82.1944 1.80708 83.1785 2.19606 84.1472C2.43216 84.7331 2.66826 85.3151 2.77083 85.9493C2.99338 87.3279 3.7907 88.2328 5.12408 88.6562C5.38727 88.7394 5.65047 88.8206 5.91947 88.8805C6.58519 89.0275 7.25285 89.1628 7.9205 89.2982C8.92876 89.4993 9.79575 89.915 10.3473 90.8431C10.5466 91.1795 10.8679 91.4038 11.2607 91.4251C11.7755 91.4521 12.3154 91.5101 12.8031 91.3883C14.1868 91.0441 15.5512 90.6226 16.9194 90.2166C17.1458 90.1489 17.3529 90.0155 17.6257 89.884C17.4729 89.6365 17.3664 89.42 17.2193 89.2382C16.7491 88.6582 16.2091 88.1264 15.795 87.5116C14.7306 85.9338 14.2952 84.2497 15.1525 82.4206C15.137 82.3877 15.1293 82.3548 15.1119 82.3278C15.0693 82.2601 15.0248 82.1905 14.9764 82.1267C14.1191 80.9917 13.7262 79.7252 13.8385 78.2964C13.8559 78.0682 13.7765 77.8149 13.6837 77.5983C13.3295 76.7766 13.0392 75.9374 12.8379 75.0635C12.6696 74.3365 12.4857 73.6133 12.269 72.8999C11.9323 71.7919 11.6652 70.6744 11.7 69.5065C11.7097 69.2029 11.5684 69.0734 11.3207 68.967C10.5331 68.6287 9.7106 68.561 8.88619 68.7254C7.18898 69.0637 5.95817 70.0653 5.09892 71.5348C4.81251 72.024 4.60544 72.5576 4.34418 73.0623C4.23387 73.2769 4.11776 73.507 3.94358 73.6675C2.93145 74.6091 2.3683 75.7982 2.00447 77.0995C1.8961 77.4862 1.83804 77.8884 1.75676 78.2828L1.76838 78.2654Z" fill="#050505"/>
<path d="M8.38172 31.1027C7.85533 30.9983 7.38701 30.9364 6.93803 30.8088C4.69896 30.1708 3.34816 28.68 2.84306 26.4274C2.45988 24.7163 2.69211 23.038 3.22624 21.3925C4.80927 16.5181 9.26612 12.0381 14.0462 10.5125C15.7666 9.96339 17.5064 9.81258 19.3042 10.2689C19.4339 10.0755 19.5635 9.87252 19.7029 9.67723C20.4905 8.56351 21.5162 7.7727 22.8573 7.46333C23.3237 7.35699 23.8153 7.37052 24.392 7.32218C24.5429 7.14623 24.7635 6.88714 24.9861 6.62998C25.795 5.69801 26.7723 5.02321 27.9818 4.73318C28.9378 4.50309 29.888 4.5843 30.8092 4.9188C31.0279 4.99807 31.2427 5.15082 31.4014 5.32484C31.6646 5.61294 31.6278 6.02091 31.3666 6.29741C31.1131 6.56617 30.6641 6.65511 30.3912 6.42309C29.7564 5.88557 29.0404 5.94937 28.3205 6.10212C27.5367 6.26841 26.8768 6.68218 26.3272 7.25644C26.0137 7.58514 25.7234 7.93511 25.4292 8.28315C25.019 8.76653 24.5545 9.03916 23.8927 8.78394C23.5385 8.64665 23.1844 8.80134 22.8515 8.91928C21.9458 9.24025 21.2375 9.82804 20.7498 10.6479C20.4034 11.2337 20.1151 11.8525 19.7996 12.4577C19.7242 12.6007 19.6642 12.7554 19.5713 12.8869C19.3313 13.2253 18.9056 13.3103 18.5862 13.0977C18.2534 12.8772 18.1605 12.477 18.3598 12.1115C18.4508 11.9453 18.5495 11.7828 18.6637 11.5837C17.7134 11.3188 16.8116 11.3439 15.9117 11.4986C13.5062 11.9143 11.4549 13.0648 9.61447 14.6116C7.38701 16.4852 5.67238 18.7397 4.67767 21.4989C4.20934 22.7943 3.94615 24.1285 4.11064 25.5109C4.26159 26.7987 4.74153 27.9298 5.81172 28.7322C6.74644 29.4322 7.82243 29.6912 8.97584 29.6468C9.32612 29.6332 9.48868 29.4476 9.48674 29.0822C9.48481 28.4286 9.55447 27.7886 9.76735 27.1661C9.98023 26.5435 10.3324 26.0291 10.9033 25.6966C11.1801 25.5361 11.2749 25.3292 11.2846 25.0256C11.3097 24.2135 11.3736 23.4053 11.5962 22.6184C11.9193 21.4776 12.438 20.4412 13.2682 19.5789C13.3243 19.5209 13.3843 19.4648 13.4443 19.4106C13.8314 19.0703 14.23 19.0607 14.5184 19.3855C14.7932 19.6929 14.7661 20.0912 14.4197 20.4257C13.2914 21.5143 12.8444 22.8891 12.7205 24.405C12.6818 24.8729 12.6721 25.3466 12.6025 25.8106C12.527 26.3114 12.3412 26.7368 11.7452 26.8528C11.4684 26.907 11.2672 27.1525 11.1839 27.4232C11.0678 27.808 10.973 28.2044 10.9208 28.6007C10.8743 28.9526 10.8956 29.3142 10.8898 29.6719C10.8859 29.9136 10.8124 30.1321 10.6131 30.2674C10.0944 30.6174 9.87379 31.1549 9.67833 31.7099C9.60866 31.909 9.56415 32.1178 9.4732 32.3073C9.29515 32.6824 8.9352 32.8255 8.58685 32.6863C8.23077 32.5432 8.07208 32.2106 8.17852 31.8123C8.23464 31.5784 8.30818 31.3483 8.38172 31.1027Z" fill="#050505"/>
<path d="M66.2936 25.7623C66.9555 26.6401 67.4335 27.5411 67.6463 28.5581C67.7818 29.2078 67.8728 29.8691 67.9502 30.5284C67.9792 30.7778 68.0353 30.9944 68.1727 31.2052C68.6295 31.909 68.9081 32.6804 69.0455 33.5099C69.2487 34.7358 68.9217 35.8611 68.405 36.9478C68.2192 37.3403 67.8708 37.4775 67.5244 37.3403C67.1761 37.203 67.0077 36.8646 67.118 36.4586C67.1858 36.2091 67.2903 35.9694 67.3909 35.7296C67.9057 34.5347 67.807 33.3494 67.1451 32.2744C66.6961 31.5455 66.5646 30.7894 66.4833 29.9793C66.3691 28.8327 66.0304 27.7538 65.3221 26.8199C65.1867 26.6401 65.0338 26.4738 64.8828 26.294C64.5925 26.3713 64.3294 26.4448 64.0642 26.5125C62.1193 27.0152 60.2034 26.7754 58.2914 26.2998C56.0968 25.7545 54.4751 24.4107 53.1437 22.6647C52.5747 21.9165 52.0619 21.1256 51.5258 20.3503C51.3613 20.1125 51.3594 19.865 51.5084 19.6175C51.6555 19.3777 51.9341 19.2559 52.2206 19.2985C52.4992 19.341 52.6908 19.5053 52.8398 19.7296C53.1553 20.2014 53.4785 20.6693 53.7842 21.1488C54.3919 22.104 55.1563 22.918 56.0175 23.645C56.5052 24.0569 57.049 24.3836 57.6489 24.6021C59.141 25.1493 60.6776 25.4626 62.2741 25.3814C63.0889 25.3407 63.8784 25.1629 64.6351 24.8496C65.1576 24.6331 65.6976 24.4513 66.2065 24.2096C66.9593 23.8519 67.627 23.3647 68.2327 22.7885C69.9706 21.1372 70.4021 19.1457 69.6842 16.9086C69.0629 14.9751 67.8612 13.4476 66.162 12.3242C65.8911 12.1444 65.6066 11.9878 65.3318 11.8157C64.4455 11.2627 63.474 10.9804 62.4425 10.8721C60.7646 10.6981 59.0868 10.5105 57.4089 10.3326C57.0219 10.292 56.6329 10.265 56.2459 10.2224C56.1181 10.2089 55.9885 10.1818 55.8646 10.1432C55.4369 10.0136 55.2299 9.68878 55.3189 9.30208C55.3982 8.95984 55.7504 8.73555 56.1452 8.78002C57.0006 8.87283 57.854 8.96564 58.7094 9.06038C59.9673 9.19767 61.2233 9.36975 62.4851 9.46836C64.1068 9.59404 65.5176 10.2282 66.8587 11.0983C68.4417 12.1231 69.628 13.492 70.4815 15.1568C71.1375 16.4349 71.482 17.7922 71.391 19.2404C71.2962 20.7679 70.7524 22.1117 69.7325 23.2583C68.9023 24.1922 67.9173 24.9231 66.8045 25.4896C66.6536 25.567 66.5007 25.652 66.2936 25.7623Z" fill="#050505"/>
<path d="M9.4977 46.0799C6.91996 45.061 6.49034 42.588 8.17013 40.7859C8.16626 40.7569 8.17206 40.7183 8.15465 40.6989C7.34765 39.7418 6.97609 38.6242 6.92964 37.3848C6.88126 36.0894 7.1309 34.8674 7.83146 33.7595C7.88371 33.6763 7.93403 33.5912 7.99789 33.5197C8.26883 33.2123 8.70812 33.1485 9.00615 33.367C9.31579 33.5932 9.38933 34.0089 9.12614 34.3627C8.59782 35.0685 8.39075 35.8825 8.33462 36.7294C8.25141 37.9552 8.5146 39.0883 9.42416 39.9932C9.50544 40.0725 9.58285 40.1575 9.65446 40.2445C10.0589 40.7395 9.98925 41.1804 9.48996 41.5825C9.2287 41.7933 8.97325 42.0369 8.79908 42.3192C8.35785 43.0404 8.56685 43.9086 9.28289 44.363C9.63704 44.5873 10.026 44.7613 10.4169 44.9198C11.0962 45.1944 11.2355 45.699 10.9607 46.2404C10.8814 46.3951 10.8543 46.5807 10.8311 46.7567C10.7343 47.4953 10.9337 47.7989 11.6632 47.9999C12.0058 48.0928 12.358 48.1682 12.7102 48.2126C13.2134 48.2764 13.5133 48.8294 13.3159 49.2664C13.1185 49.7111 13.3798 50.2138 13.8326 50.4188C14.0629 50.5232 14.2855 50.645 14.539 50.7726C14.6358 50.7204 14.7732 50.6296 14.9202 50.5696C15.226 50.4439 15.5589 50.5425 15.7466 50.7939C15.9479 51.0627 15.9362 51.3662 15.7156 51.6447C15.3363 52.1222 15.3441 52.3562 15.7659 52.799C16.1201 53.1722 16.542 53.4506 17.0548 53.5376C17.5096 53.6149 17.8308 53.8296 18.0224 54.253C18.2411 54.7383 18.632 55.0709 19.1236 55.2275C19.77 55.4344 20.4299 55.6142 21.0995 55.7225C21.6781 55.8153 22.1019 56.0434 22.3651 56.5771C22.5277 56.9077 22.8044 57.1359 23.1276 57.308C23.7217 57.6232 24.3468 57.8184 25.0261 57.8648C25.6395 57.9074 26.2511 58.0041 26.8587 58.1046C27.3426 58.1839 27.6038 58.5474 27.5206 58.9631C27.4432 59.3556 27.1181 59.5412 26.6207 59.4851C26.4117 59.4619 26.1988 59.4561 25.9918 59.4291C25.477 59.3633 24.9622 59.2957 24.4494 59.2202C23.5514 59.0868 22.7212 58.7697 21.9877 58.2341C21.7439 58.0563 21.5039 57.83 21.353 57.5729C21.1478 57.2248 20.875 57.0934 20.4976 57.047C19.7874 56.958 19.0946 56.7859 18.4424 56.4746C17.8134 56.1749 17.2696 55.7728 16.9232 55.154C16.8148 54.9587 16.6542 54.8911 16.4626 54.8369C15.8724 54.6687 15.3692 54.3477 14.9202 53.9378C14.3145 53.3848 13.9681 52.7139 13.9952 51.8399C13.3469 51.8709 12.8824 51.5461 12.4664 51.1129C12.0425 50.6702 11.8645 50.1249 11.8006 49.5023C11.0304 49.2896 10.235 49.1156 9.77251 48.3751C9.32934 47.6635 9.39901 46.8843 9.4977 46.0799Z" fill="#050505"/>
<path d="M71.4531 82.3859C71.3544 84.1899 70.6461 85.671 69.1172 86.6958C68.8676 86.8621 68.5657 86.9839 68.2696 87.0438C67.0214 87.2932 66.0518 86.5759 65.8931 85.3075C65.8157 84.6907 65.8506 84.0797 66.0344 83.4784C66.3731 82.3801 66.9401 81.4346 67.8574 80.725C68.3703 80.3306 68.9469 80.0618 69.6069 80.0986C70.6016 80.1527 71.3254 80.9435 71.4376 82.0476C71.4512 82.1578 71.4492 82.2719 71.4531 82.3859Z" fill="#050505"/>
<path d="M37.478 3.01627C37.9018 2.9776 38.2869 2.9254 38.672 2.91186C39.5429 2.87706 39.8796 3.20382 39.9067 4.07392C39.9086 4.12032 39.928 4.16673 39.9493 4.25567C40.2299 4.14739 40.4989 4.04298 40.7679 3.93857C40.9343 3.87283 41.091 3.78195 41.2633 3.73748C41.6271 3.64467 41.9638 3.82062 42.1012 4.15126C42.227 4.45482 42.1187 4.78739 41.7955 4.98848C41.5903 5.11609 41.3639 5.21083 41.1414 5.30751C40.6034 5.54147 40.046 5.71162 39.4519 5.72709C38.5868 5.74836 38.2404 5.40419 38.2637 4.5399C38.2656 4.49349 38.2501 4.44902 38.2308 4.33301C37.7353 4.44129 37.2515 4.54376 36.7697 4.65398C36.6748 4.67524 36.5897 4.72938 36.4968 4.75452C36.1988 4.8338 35.9104 4.82993 35.6859 4.58437C35.4518 4.32721 35.4401 4.02171 35.5717 3.72008C35.7924 3.21543 36.0323 2.71851 36.2665 2.21772C36.3129 2.11911 36.3613 2.0205 36.4581 1.81941C36.2626 1.91996 36.1523 1.96636 36.0517 2.02824C34.9408 2.70884 34.1184 3.65047 33.5417 4.81253C33.381 5.13736 33.2862 5.45446 33.4314 5.83343C33.5804 6.22787 33.3907 6.59525 33.0579 6.72286C32.7076 6.85627 32.3708 6.71512 32.1599 6.34389C31.9238 5.92818 31.8774 5.4796 31.9838 5.02328C32.0457 4.75645 32.1386 4.49156 32.2586 4.246C33.0598 2.60443 34.2577 1.3399 35.893 0.508478C36.4174 0.24165 36.969 0.0502303 37.5612 0.00769255C37.7373 -0.00584219 37.9211 -0.00970926 38.0934 0.0270279C38.6062 0.131439 38.8636 0.628357 38.6488 1.10981C38.5578 1.31476 38.4088 1.49265 38.283 1.68213C38.0585 2.0205 37.8282 2.35307 37.6095 2.69531C37.5515 2.78425 37.5263 2.89446 37.478 3.01627Z" fill="#050505"/>
<path d="M39.6427 59.4696C39.2267 59.8524 38.7932 60.1618 38.2455 60.2565C37.4482 60.3938 36.6586 60.3416 35.8826 60.1386C35.6949 60.0902 35.5129 59.9336 35.3833 59.7789C35.1781 59.5334 35.1994 59.2163 35.3833 58.9649C35.5497 58.7367 35.8168 58.6594 36.1206 58.7174C36.5483 58.7986 36.976 58.8895 37.4075 58.9262C37.8972 58.9688 38.3248 58.8257 38.6655 58.4274C39.1202 57.8976 39.3447 57.8609 39.993 58.0948C40.2059 58.1722 40.4226 58.2495 40.6433 58.294C41.0942 58.3848 41.3419 58.2534 41.5257 57.8338C41.6573 57.536 41.8876 57.4297 42.1934 57.3446C42.7275 57.1957 43.1862 57.2499 43.7087 57.4684C44.2757 57.7042 44.9027 57.6849 45.4949 57.3581C45.7697 57.2073 46.1123 57.1706 46.4277 57.1048C47.0702 56.9695 47.6895 56.8051 48.1404 56.2696C48.3765 55.9892 48.7074 55.9911 49.0422 56.0491C49.3925 56.1091 49.7447 56.1787 50.0969 56.2154C50.4085 56.2483 50.7084 56.1845 50.991 55.9776C50.9968 55.8597 50.9949 55.732 51.0084 55.6083C51.0432 55.2912 51.2484 55.0437 51.5367 54.9818C51.8386 54.918 52.0825 55.0321 52.2605 55.2738C52.454 55.5367 52.5044 55.8345 52.4347 56.1535C52.336 56.606 52.0863 56.9521 51.7012 57.2035C51.1478 57.565 50.5343 57.6714 49.886 57.623C49.8221 57.6192 49.7563 57.6056 49.6944 57.5921C49.2241 57.4916 48.8216 57.5283 48.3997 57.8628C47.8462 58.3017 47.1244 58.4003 46.4393 58.5434C46.3135 58.5705 46.1781 58.584 46.0658 58.642C45.0208 59.1834 43.9641 59.0635 42.8998 58.7155C42.8688 58.7058 42.8378 58.7 42.7662 58.6807C41.9766 59.7673 40.9142 59.9549 39.6427 59.4696Z" fill="#050505"/>
<path d="M36.2512 41.0526C36.1641 42.3461 35.6725 43.3245 34.5965 43.9393C33.983 44.2912 33.3405 44.2564 32.7522 43.8659C31.8833 43.2877 31.1944 42.5646 30.8789 41.5243C30.5093 40.3024 30.9931 39.3704 32.2297 39.092C32.9245 38.9353 33.6328 38.8793 34.3546 38.945C35.1384 39.0166 35.6532 39.4129 35.957 40.1032C36.1002 40.428 36.1699 40.7819 36.2512 41.0526Z" fill="#050505"/>
<path d="M17.6744 44.3879C17.628 44.2796 17.5873 44.1732 17.539 44.0727C17.1945 43.3612 17.2487 42.6631 17.5912 41.9671C18.4814 40.1631 20.6179 39.03 22.6035 39.3201C22.7776 39.3452 22.9557 39.3935 23.1144 39.4689C23.4298 39.614 23.573 39.8982 23.5247 40.223C23.4801 40.5324 23.2382 40.7586 22.8899 40.7954C22.7641 40.8089 22.6286 40.7973 22.5048 40.7683C21.0901 40.4512 19.3658 41.3387 18.8123 42.6709C18.6924 42.959 18.6885 43.2393 18.8336 43.5139C18.9246 43.686 19.031 43.8503 19.1239 44.0205C19.3697 44.4749 19.3174 44.8074 18.9478 45.1555C18.9014 45.1999 18.8452 45.2347 18.7988 45.2792C18.4505 45.6195 18.373 46.0082 18.6343 46.4239C18.7949 46.6791 19.0272 46.8937 19.2439 47.1103C19.302 47.1683 19.4181 47.1838 19.5071 47.1876C20.0509 47.2128 20.3489 47.4409 20.3489 47.845C20.3489 48.2511 19.9348 48.6687 19.4916 48.6919C19.3503 48.6996 19.1975 48.6803 19.062 48.6339C18.0286 48.282 17.0997 46.9846 17.088 45.9057C17.0822 45.432 17.2429 45.0163 17.5041 44.6334C17.5622 44.5541 17.6164 44.4749 17.6744 44.3879Z" fill="#050505"/>
<path d="M54.1902 8.64275C54.1902 9.1068 53.7567 9.4355 53.3097 9.32142C52.3382 9.07586 51.3667 8.82257 50.3971 8.56734C50.163 8.50547 49.9327 8.42619 49.7043 8.34305C49.205 8.16323 48.7677 7.8848 48.4599 7.44589C48.2297 7.11719 47.9239 7.00311 47.5426 7.00118C47.2349 6.99925 46.9272 6.97798 46.6195 6.96444C46.1202 6.94317 45.6945 6.75562 45.4023 6.35151C45.1488 6.00154 44.8294 5.89906 44.4288 5.98027C44.0166 6.06342 43.6025 6.13882 43.1961 6.24323C42.7839 6.34958 42.4549 6.23743 42.2885 5.89713C42.1298 5.57036 42.2498 5.20299 42.6078 4.98257C43.051 4.70994 43.5677 4.70414 44.0592 4.61326C44.2489 4.57846 44.4463 4.58233 44.6417 4.56493C45.2842 4.50692 45.8358 4.70607 46.2441 5.20686C46.4705 5.48335 46.7202 5.6129 47.0801 5.5897C47.353 5.5723 47.6297 5.60903 47.9045 5.62837C48.4987 5.67091 49.025 5.88166 49.3773 6.37085C49.7043 6.82523 50.1417 7.06112 50.6584 7.18487C51.4151 7.36662 52.1775 7.52323 52.9323 7.71079C53.2129 7.78039 53.4896 7.88287 53.7528 8.00468C54.018 8.13036 54.1631 8.36626 54.1902 8.64275Z" fill="#050505"/>
<path d="M50.4132 43.9685C50.7964 44.4964 51.0519 45.0242 51.0712 45.6545C51.0886 46.1708 50.9512 46.6252 50.6087 46.9983C50.3687 47.2574 50.0959 47.4972 49.8036 47.6964C49.6256 47.8182 49.3876 47.8839 49.1708 47.9052C48.8302 47.94 48.5496 47.7254 48.4645 47.4295C48.3696 47.0989 48.5109 46.7915 48.8244 46.6078C49.0315 46.486 49.2463 46.368 49.4282 46.2133C49.6953 45.991 49.7611 45.6893 49.6024 45.378C49.4863 45.1518 49.3276 44.943 49.1728 44.74C49.0953 44.6394 48.9754 44.5718 48.8863 44.477C48.4838 44.0555 48.5322 43.5741 49.0063 43.2299C49.5463 42.8393 49.5617 42.733 49.1689 42.2032C48.8825 41.8165 48.5186 41.5226 48.0987 41.2983C47.4214 40.9386 46.7227 40.6506 45.9332 40.6293C45.5152 40.6177 45.252 40.3277 45.2481 39.9525C45.2442 39.5813 45.5093 39.2971 45.9196 39.2545C46.0957 39.2371 46.2815 39.2275 46.4537 39.2584C47.762 39.4808 48.9444 39.9815 49.9062 40.9212C50.1017 41.1127 50.2797 41.3312 50.4287 41.5612C50.9396 42.3482 51.0867 43.1487 50.4132 43.9685Z" fill="#050505"/>
<path d="M24.6492 67.018C24.6725 66.7395 24.6551 66.552 24.7092 66.3876C24.8505 65.9584 24.7441 65.5717 24.6028 65.1676C24.3241 64.369 24.1248 63.5492 24.1383 62.6965C24.1422 62.3891 24.1654 62.0797 24.2138 61.7781C24.268 61.4494 24.4131 61.1593 24.7228 60.9892C24.9918 60.8403 25.253 60.8654 25.4988 61.0453C25.7233 61.2116 25.8491 61.517 25.7272 61.7819C25.4079 62.4799 25.5298 63.176 25.6962 63.8721C25.8007 64.3129 25.9342 64.748 26.0833 65.1753C26.2226 65.5697 26.2652 65.9448 26.1433 66.3606C25.9555 66.9948 26.1239 67.6289 26.3406 68.2148C26.6813 69.139 27.1089 70.0323 27.5018 70.9372C27.554 71.0552 27.6256 71.1673 27.6624 71.2891C27.7611 71.612 27.6411 71.9156 27.3625 72.0877C27.0838 72.2578 26.7587 72.223 26.5148 71.9852C26.4452 71.9175 26.3794 71.8402 26.3406 71.7532C25.8549 70.7129 25.2743 69.7094 24.9782 68.5899C24.8312 68.0427 24.7441 67.482 24.6492 67.018Z" fill="#050505"/>
<path d="M41.269 36.7524C41.3077 37.8255 40.8742 38.5139 40.162 38.7884C39.4653 39.0572 38.6486 38.831 38.1455 38.2122C37.7217 37.6921 37.5552 37.1005 37.7197 36.4373C38.0371 35.1476 39.4924 34.6584 40.5239 35.4976C41.0019 35.8862 41.2554 36.3986 41.269 36.7524Z" fill="#050505"/>
<path d="M28.9876 37.6303C29.0263 38.8098 28.0586 39.5581 27.0562 39.2603C26.3344 39.0457 25.8757 38.4269 25.8428 37.6207C25.8118 36.8589 26.1447 36.3213 26.8182 36.0506C27.6213 35.7277 28.5599 36.1396 28.8405 36.9575C28.9276 37.2146 28.9585 37.4911 28.9876 37.6303Z" fill="#050505"/>
<path d="M32.549 60.7033C32.2296 60.6066 31.8948 60.5409 31.5949 60.4017C31.3627 60.2934 31.1478 60.2412 30.8982 60.276C30.3118 60.3552 29.7351 60.2876 29.1662 60.1387C28.783 60.0381 28.5004 59.8119 28.3727 59.4233C28.2818 59.1468 28.363 58.8568 28.5778 58.6769C28.8062 58.4855 29.0965 58.4256 29.3423 58.6073C29.8338 58.9728 30.3815 58.9534 30.9214 58.8568C31.3336 58.7833 31.68 58.8394 32.0342 59.0443C32.5257 59.3305 32.5315 59.3208 33.0037 58.9457C33.2979 58.7117 33.6327 58.7001 33.8959 58.9128C34.1571 59.1255 34.2423 59.4736 34.0643 59.7907C33.7372 60.3688 33.2089 60.6047 32.549 60.7033Z" fill="#050505"/>
<path d="M66.6419 79.033C65.9704 79.0504 65.5311 78.6443 65.5156 77.9773C65.5098 77.7201 65.5156 77.4572 65.5505 77.2019C65.6588 76.415 66.4929 75.8485 67.3193 75.9799C67.8979 76.0727 68.5965 76.8442 68.4224 77.6795C68.2172 78.6811 67.805 78.8783 66.6419 79.033Z" fill="#050505"/>
<path d="M72.8154 76.8712C72.7206 77.1748 72.6722 77.5035 72.5232 77.78C72.2426 78.3001 71.6369 78.4567 71.0969 78.1996C71.0389 78.1725 70.9847 78.1358 70.9266 78.1048C70.0016 77.5982 69.8294 76.9312 70.4274 76.0746C70.5377 75.9161 70.7428 75.8194 70.9112 75.7092C70.975 75.6666 71.0757 75.684 71.1434 75.6434C71.7975 75.2528 72.4613 75.7053 72.7051 76.5154C72.738 76.6218 72.7419 76.7378 72.7593 76.8499C72.7806 76.8577 72.798 76.8654 72.8154 76.8712Z" fill="#050505"/>
<path d="M75.4952 79.8856C75.4971 79.9532 75.499 79.9861 75.499 80.0171C75.5184 80.5198 75.3152 80.9084 74.8585 81.123C74.4405 81.3203 74.0573 81.1578 73.7322 80.8891C73.3606 80.5816 73.2503 80.1659 73.3858 79.7038C73.4399 79.5221 73.5328 79.3422 73.6431 79.1876C73.9102 78.8163 74.2682 78.6094 74.7346 78.7467C75.1875 78.8782 75.412 79.2204 75.4719 79.6787C75.4855 79.758 75.4913 79.8392 75.4952 79.8856Z" fill="#050505"/>
<path d="M66.3433 39.587C66.7943 39.5812 67.1484 39.8944 67.1561 40.3024C67.162 40.7007 66.8717 40.9849 66.4498 40.9927C66.0105 40.9985 65.666 40.6717 65.666 40.2521C65.668 39.8712 65.9524 39.5909 66.3433 39.587Z" fill="#050505"/>
<path d="M65.5561 43.2648C65.1594 43.2744 64.8478 42.9748 64.8381 42.5726C64.8285 42.1878 65.1071 41.8881 65.4884 41.8726C65.8754 41.8572 66.216 42.1607 66.2392 42.5416C66.2605 42.9322 65.9586 43.2551 65.5561 43.2648Z" fill="#050505"/>
<path d="M3.8877 81.8949C3.93608 81.6474 3.97091 81.2394 4.10251 80.8663C4.18766 80.6246 4.40827 80.4254 4.58051 80.2185C4.67147 80.1083 4.79339 80.0271 4.88821 79.9208C5.23075 79.5379 5.67199 79.5108 6.02807 79.886C6.19257 80.06 6.3319 80.2669 6.44221 80.4815C7.02085 81.5933 7.43499 82.765 7.6827 83.9928C7.76785 84.4124 7.70205 84.8358 7.56272 85.236C7.31501 85.9418 6.71895 86.1815 6.04742 85.8412C5.84809 85.7407 5.6507 85.6111 5.49201 85.4545C4.54955 84.5187 4.01929 83.3818 3.8877 81.8949Z" fill="#050505"/>
<path d="M4.95809 77.3414C4.93099 77.674 4.92519 77.9022 4.89423 78.1245C4.84391 78.4667 4.60781 78.7007 4.30011 78.7394C4.02143 78.7742 3.71566 78.6156 3.60148 78.3198C3.42731 77.8693 3.2454 77.4207 3.2783 76.918C3.30346 76.5274 3.49698 76.2432 3.83178 76.1562C4.20334 76.0595 4.55362 76.1948 4.72005 76.5641C4.84584 76.8387 4.90003 77.1442 4.95809 77.3414Z" fill="#050505"/>
<path d="M1.75521 78.2809C1.81907 78.2093 1.87713 78.132 1.9468 78.0682C2.2816 77.7569 2.73057 77.7801 2.99957 78.1494C3.14858 78.3543 3.25502 78.598 3.34791 78.8358C3.48725 79.1974 3.3634 79.5357 3.05956 79.7136C2.74412 79.8973 2.34352 79.82 2.11904 79.4874C1.8752 79.1239 1.68361 78.7294 1.76682 78.2654C1.76876 78.2654 1.75521 78.2809 1.75521 78.2809Z" fill="#050505"/>
<path d="M5.7917 77.7164C5.76461 77.1886 6.07038 76.771 6.57547 76.6433C6.99349 76.537 7.3844 76.8057 7.45601 77.2485C7.53729 77.7493 7.06315 78.3893 6.55806 78.4589C6.14972 78.5131 5.81493 78.1902 5.7917 77.7164Z" fill="#050505"/>
</svg>
