<svg width="64" height="64" viewBox="0 0 64 64" fill="none" xmlns="http://www.w3.org/2000/svg">
<rect x="1" y="1" width="62" height="62" rx="31" fill="white" stroke="#8FCC93" stroke-width="2"/>
<path d="M31.9247 49.9201C22.9161 49.9201 15.5838 42.5877 15.5838 33.5792C15.5838 31.9825 15.8132 30.4093 16.2674 28.8969L15.9256 14.5647C15.9256 14.3961 16.0099 14.2416 16.1503 14.1527C16.2955 14.0637 16.4734 14.0637 16.6186 14.1433L24.967 18.7927C27.1489 17.7626 29.49 17.2429 31.9247 17.2429C34.3595 17.2429 36.6912 17.7626 38.8684 18.788L47.0014 14.1433C47.1466 14.059 47.3245 14.059 47.4697 14.1433C47.6148 14.2276 47.7038 14.3821 47.6991 14.5506L47.582 28.8876C48.0362 30.4046 48.2656 31.9778 48.2656 33.5745C48.2656 42.5831 40.9333 49.9154 31.9247 49.9154V49.9201ZM16.8761 15.356L17.2038 28.9484C17.2038 28.9999 17.1992 29.0468 17.1851 29.0936C16.745 30.5404 16.5202 32.0481 16.5202 33.5792C16.5202 42.0727 23.4312 48.9836 31.9247 48.9836C40.4183 48.9836 47.3292 42.0727 47.3292 33.5792C47.3292 32.0528 47.1045 30.5404 46.6643 29.0936C46.6503 29.0468 46.6456 28.9999 46.6456 28.9531L46.758 15.3607L39.1166 19.7198C38.9808 19.7947 38.8169 19.7994 38.6812 19.7339C36.5695 18.6991 34.2939 18.1794 31.9247 18.1794C29.5555 18.1794 27.2753 18.7038 25.1542 19.7432C25.0185 19.8134 24.8546 19.8088 24.7188 19.7339L16.8761 15.356Z" fill="#8FCC93"/>
<path d="M26.8726 31.4628C26.8726 32.2588 26.2265 32.9049 25.4305 32.9049C24.6345 32.9049 23.9884 32.2588 23.9884 31.4628C23.9884 30.6668 24.6345 30.0207 25.4305 30.0207C26.2265 30.0207 26.8726 30.6668 26.8726 31.4628Z" fill="#8FCC93"/>
<path d="M39.8611 31.4628C39.8611 32.2588 39.2149 32.9049 38.419 32.9049C37.623 32.9049 36.9768 32.2588 36.9768 31.4628C36.9768 30.6668 37.623 30.0207 38.419 30.0207C39.2149 30.0207 39.8611 30.6668 39.8611 31.4628Z" fill="#8FCC93"/>
<path d="M28.6799 42.4332C26.6338 42.4332 24.967 40.7664 24.967 38.7202C24.967 38.4627 25.1777 38.252 25.4352 38.252C25.6927 38.252 25.9034 38.4627 25.9034 38.7202C25.9034 40.2513 27.1489 41.4968 28.6799 41.4968C30.211 41.4968 31.4565 40.2513 31.4565 38.7202C31.4565 38.4627 31.6672 38.252 31.9247 38.252C32.1822 38.252 32.3929 38.4627 32.3929 38.7202C32.3929 40.7664 30.7261 42.4332 28.6799 42.4332Z" fill="#8FCC93"/>
<path d="M35.1742 42.4332C33.128 42.4332 31.4612 40.7664 31.4612 38.7202C31.4612 38.4627 31.6719 38.252 31.9294 38.252C32.1869 38.252 32.3976 38.4627 32.3976 38.7202C32.3976 40.2513 33.6431 41.4968 35.1742 41.4968C36.7053 41.4968 37.9507 40.2513 37.9507 38.7202C37.9507 38.4627 38.1614 38.252 38.419 38.252C38.6765 38.252 38.8872 38.4627 38.8872 38.7202C38.8872 40.7664 37.2203 42.4332 35.1742 42.4332Z" fill="#8FCC93"/>
<path d="M31.9528 39.1838C31.5736 39.1838 31.1896 39.0433 30.8431 38.7624L29.8973 37.9055C29.8692 37.8821 29.8505 37.854 29.8271 37.8259C29.5181 37.3858 29.4853 36.8192 29.7334 36.3417C29.9816 35.8641 30.4686 35.5691 31.007 35.5691H32.8518C33.3856 35.5691 33.8772 35.8641 34.1254 36.3417C34.3735 36.8192 34.3361 37.3858 34.0317 37.8259C34.013 37.854 33.9896 37.8821 33.9615 37.9055L33.0391 38.7436C32.7207 39.0386 32.3461 39.1838 31.9575 39.1838H31.9528ZM30.5716 37.2547L31.4518 38.0554C31.7749 38.3129 32.1167 38.3222 32.4023 38.0554L33.2826 37.2547C33.3668 37.1049 33.3715 36.9316 33.2919 36.7771C33.203 36.6085 33.0391 36.5102 32.8518 36.5102H31.007C30.8197 36.5102 30.6512 36.6085 30.5669 36.7771C30.4873 36.9316 30.492 37.1049 30.5762 37.2547H30.5716Z" fill="#8FCC93"/>
<path d="M19.1329 23.7044C19.0627 23.7044 18.9878 23.6856 18.9222 23.6529C18.7724 23.5779 18.6741 23.4281 18.6647 23.2596L18.4119 18.5586C18.4025 18.3901 18.4868 18.2262 18.6272 18.1372C18.7724 18.0483 18.9503 18.0389 19.1001 18.1185L23.1596 20.3098C23.3048 20.3894 23.3984 20.5345 23.4031 20.7031C23.4125 20.8669 23.3282 21.0261 23.1924 21.1151L19.3858 23.6248C19.3062 23.6763 19.2172 23.6997 19.1282 23.6997L19.1329 23.7044ZM19.3904 19.3452L19.5543 22.398L22.0265 20.7686L19.3904 19.3452Z" fill="#8FCC93"/>
<path d="M44.7165 23.7044C44.6276 23.7044 44.5386 23.6763 44.459 23.6295L40.6524 21.1198C40.5166 21.0308 40.437 20.8716 40.4417 20.7078C40.451 20.5439 40.54 20.394 40.6851 20.3144L44.7446 18.1232C44.8945 18.0436 45.0724 18.0483 45.2175 18.1419C45.3627 18.2309 45.4423 18.3947 45.4329 18.5633L45.1801 23.2642C45.1707 23.4328 45.0724 23.5826 44.9225 23.6575C44.857 23.6903 44.7821 23.709 44.7118 23.709L44.7165 23.7044ZM41.8229 20.7686L44.2951 22.398L44.459 19.3452L41.8229 20.7686Z" fill="#8FCC93"/>
<path d="M21.4459 36.234C21.4459 36.234 21.4132 36.234 21.3944 36.234L11.2949 35.1056C11.0374 35.0775 10.8548 34.8433 10.8829 34.5905C10.9109 34.333 11.1451 34.1457 11.3979 34.1785L21.4974 35.3022C21.755 35.3303 21.9376 35.5644 21.9095 35.8172C21.8814 36.056 21.68 36.234 21.4459 36.234Z" fill="#8FCC93"/>
<path d="M11.3464 39.961C11.1123 39.961 10.9063 39.7831 10.8829 39.5443C10.8548 39.2868 11.0374 39.0573 11.2949 39.0293L21.3944 37.9055C21.6473 37.8774 21.8814 38.06 21.9095 38.3176C21.9376 38.5751 21.755 38.8045 21.4974 38.8326L11.3979 39.9563C11.3979 39.9563 11.3651 39.9563 11.3464 39.9563V39.961Z" fill="#8FCC93"/>
<path d="M42.0898 36.234C41.8557 36.234 41.6497 36.056 41.6263 35.8172C41.5982 35.5597 41.7808 35.3303 42.0383 35.3022L52.1378 34.1785C52.3954 34.1457 52.6248 34.333 52.6529 34.5905C52.681 34.848 52.4984 35.0775 52.2408 35.1056L42.1413 36.2293C42.1413 36.2293 42.1085 36.2293 42.0898 36.2293V36.234Z" fill="#8FCC93"/>
<path d="M52.1847 39.961C52.1847 39.961 52.1519 39.961 52.1332 39.961L42.0336 38.8373C41.7761 38.8092 41.5935 38.5751 41.6216 38.3222C41.6497 38.0647 41.8838 37.8774 42.1366 37.9102L52.2362 39.0339C52.4937 39.062 52.6763 39.2961 52.6482 39.549C52.6201 39.7878 52.4188 39.9657 52.1847 39.9657V39.961Z" fill="#8FCC93"/>
<path d="M31.9247 49.9201C22.9161 49.9201 15.5838 42.5877 15.5838 33.5792C15.5838 31.9825 15.8132 30.4093 16.2674 28.8969L15.9256 14.5647C15.9256 14.3961 16.0099 14.2416 16.1503 14.1527C16.2955 14.0637 16.4734 14.0637 16.6186 14.1433L24.967 18.7927C27.1489 17.7626 29.49 17.2429 31.9247 17.2429C34.3595 17.2429 36.6912 17.7626 38.8684 18.788L47.0014 14.1433C47.1466 14.059 47.3245 14.059 47.4697 14.1433C47.6148 14.2276 47.7038 14.3821 47.6991 14.5506L47.582 28.8876C48.0362 30.4046 48.2656 31.9778 48.2656 33.5745C48.2656 42.5831 40.9333 49.9154 31.9247 49.9154V49.9201ZM16.8761 15.356L17.2038 28.9484C17.2038 28.9999 17.1992 29.0468 17.1851 29.0936C16.745 30.5404 16.5202 32.0481 16.5202 33.5792C16.5202 42.0727 23.4312 48.9836 31.9247 48.9836C40.4183 48.9836 47.3292 42.0727 47.3292 33.5792C47.3292 32.0528 47.1045 30.5404 46.6643 29.0936C46.6503 29.0468 46.6456 28.9999 46.6456 28.9531L46.758 15.3607L39.1166 19.7198C38.9808 19.7947 38.8169 19.7994 38.6812 19.7339C36.5695 18.6991 34.2939 18.1794 31.9247 18.1794C29.5555 18.1794 27.2753 18.7038 25.1542 19.7432C25.0185 19.8134 24.8546 19.8088 24.7188 19.7339L16.8761 15.356Z" stroke="#8FCC93"/>
<path d="M26.8726 31.4628C26.8726 32.2588 26.2265 32.9049 25.4305 32.9049C24.6345 32.9049 23.9884 32.2588 23.9884 31.4628C23.9884 30.6668 24.6345 30.0207 25.4305 30.0207C26.2265 30.0207 26.8726 30.6668 26.8726 31.4628Z" stroke="#8FCC93"/>
<path d="M39.8611 31.4628C39.8611 32.2588 39.2149 32.9049 38.419 32.9049C37.623 32.9049 36.9768 32.2588 36.9768 31.4628C36.9768 30.6668 37.623 30.0207 38.419 30.0207C39.2149 30.0207 39.8611 30.6668 39.8611 31.4628Z" stroke="#8FCC93"/>
<path d="M28.6799 42.4332C26.6338 42.4332 24.967 40.7664 24.967 38.7202C24.967 38.4627 25.1777 38.252 25.4352 38.252C25.6927 38.252 25.9034 38.4627 25.9034 38.7202C25.9034 40.2513 27.1489 41.4968 28.6799 41.4968C30.211 41.4968 31.4565 40.2513 31.4565 38.7202C31.4565 38.4627 31.6672 38.252 31.9247 38.252C32.1822 38.252 32.3929 38.4627 32.3929 38.7202C32.3929 40.7664 30.7261 42.4332 28.6799 42.4332Z" stroke="#8FCC93"/>
<path d="M35.1742 42.4332C33.128 42.4332 31.4612 40.7664 31.4612 38.7202C31.4612 38.4627 31.6719 38.252 31.9294 38.252C32.1869 38.252 32.3976 38.4627 32.3976 38.7202C32.3976 40.2513 33.6431 41.4968 35.1742 41.4968C36.7053 41.4968 37.9507 40.2513 37.9507 38.7202C37.9507 38.4627 38.1614 38.252 38.419 38.252C38.6765 38.252 38.8872 38.4627 38.8872 38.7202C38.8872 40.7664 37.2203 42.4332 35.1742 42.4332Z" stroke="#8FCC93"/>
<path d="M31.9528 39.1838C31.5736 39.1838 31.1896 39.0433 30.8431 38.7624L29.8973 37.9055C29.8692 37.8821 29.8505 37.854 29.8271 37.8259C29.5181 37.3858 29.4853 36.8192 29.7334 36.3417C29.9816 35.8641 30.4686 35.5691 31.007 35.5691H32.8518C33.3856 35.5691 33.8772 35.8641 34.1254 36.3417C34.3735 36.8192 34.3361 37.3858 34.0317 37.8259C34.013 37.854 33.9896 37.8821 33.9615 37.9055L33.0391 38.7436C32.7207 39.0386 32.3461 39.1838 31.9575 39.1838H31.9528ZM30.5716 37.2547L31.4518 38.0554C31.7749 38.3129 32.1167 38.3222 32.4023 38.0554L33.2826 37.2547C33.3668 37.1049 33.3715 36.9316 33.2919 36.7771C33.203 36.6085 33.0391 36.5102 32.8518 36.5102H31.007C30.8197 36.5102 30.6512 36.6085 30.5669 36.7771C30.4873 36.9316 30.492 37.1049 30.5762 37.2547H30.5716Z" stroke="#8FCC93"/>
<path d="M19.1329 23.7044C19.0627 23.7044 18.9878 23.6856 18.9222 23.6529C18.7724 23.5779 18.6741 23.4281 18.6647 23.2596L18.4119 18.5586C18.4025 18.3901 18.4868 18.2262 18.6272 18.1372C18.7724 18.0483 18.9503 18.0389 19.1001 18.1185L23.1596 20.3098C23.3048 20.3894 23.3984 20.5345 23.4031 20.7031C23.4125 20.8669 23.3282 21.0261 23.1924 21.1151L19.3858 23.6248C19.3062 23.6763 19.2172 23.6997 19.1282 23.6997L19.1329 23.7044ZM19.3904 19.3452L19.5543 22.398L22.0265 20.7686L19.3904 19.3452Z" stroke="#8FCC93"/>
<path d="M44.7165 23.7044C44.6276 23.7044 44.5386 23.6763 44.459 23.6295L40.6524 21.1198C40.5166 21.0308 40.437 20.8716 40.4417 20.7078C40.451 20.5439 40.54 20.394 40.6851 20.3144L44.7446 18.1232C44.8945 18.0436 45.0724 18.0483 45.2175 18.1419C45.3627 18.2309 45.4423 18.3947 45.4329 18.5633L45.1801 23.2642C45.1707 23.4328 45.0724 23.5826 44.9225 23.6575C44.857 23.6903 44.7821 23.709 44.7118 23.709L44.7165 23.7044ZM41.8229 20.7686L44.2951 22.398L44.459 19.3452L41.8229 20.7686Z" stroke="#8FCC93"/>
<path d="M21.4459 36.234C21.4459 36.234 21.4132 36.234 21.3944 36.234L11.2949 35.1056C11.0374 35.0775 10.8548 34.8433 10.8829 34.5905C10.9109 34.333 11.1451 34.1457 11.3979 34.1785L21.4974 35.3022C21.755 35.3303 21.9376 35.5644 21.9095 35.8172C21.8814 36.056 21.68 36.234 21.4459 36.234Z" stroke="#8FCC93"/>
<path d="M11.3464 39.961C11.1123 39.961 10.9063 39.7831 10.8829 39.5443C10.8548 39.2868 11.0374 39.0573 11.2949 39.0293L21.3944 37.9055C21.6473 37.8774 21.8814 38.06 21.9095 38.3176C21.9376 38.5751 21.755 38.8045 21.4974 38.8326L11.3979 39.9563C11.3979 39.9563 11.3651 39.9563 11.3464 39.9563V39.961Z" stroke="#8FCC93"/>
<path d="M42.0898 36.234C41.8557 36.234 41.6497 36.056 41.6263 35.8172C41.5982 35.5597 41.7808 35.3303 42.0383 35.3022L52.1378 34.1785C52.3954 34.1457 52.6248 34.333 52.6529 34.5905C52.681 34.848 52.4984 35.0775 52.2408 35.1056L42.1413 36.2293C42.1413 36.2293 42.1085 36.2293 42.0898 36.2293V36.234Z" stroke="#8FCC93"/>
<path d="M52.1847 39.961C52.1847 39.961 52.1519 39.961 52.1332 39.961L42.0336 38.8373C41.7761 38.8092 41.5935 38.5751 41.6216 38.3222C41.6497 38.0647 41.8838 37.8774 42.1366 37.9102L52.2362 39.0339C52.4937 39.062 52.6763 39.2961 52.6482 39.549C52.6201 39.7878 52.4188 39.9657 52.1847 39.9657V39.961Z" stroke="#8FCC93"/>
</svg>
