<svg width="66" height="66" viewBox="0 0 66 66" fill="none" xmlns="http://www.w3.org/2000/svg">
<path d="M33.4995 17C22.0037 17 13 21.1634 13 26.4767V34.9137C13 38.7818 17.8276 42.1605 25.35 43.6264C26.1553 47.2631 29.5016 50 33.4995 50C37.4974 50 40.8437 47.2641 41.649 43.6274C49.1744 42.1605 54 38.7847 54 34.9137V26.4767C54 21.1634 44.9953 17.001 33.4995 17.001V17ZM25.1861 41.4783C19.2152 40.2004 15.1471 37.5768 15.1471 34.9137V30.7444C15.3639 30.9472 15.596 31.1451 15.8424 31.3391C15.9412 31.4582 16.0623 31.5458 16.1957 31.6108C18.9179 33.5935 23.1958 35.0486 28.3013 35.6452C26.5075 37.0333 25.3245 39.1214 25.1861 41.4783ZM18.5922 30.6962C22.0658 28.7144 27.5897 27.5153 33.4995 27.5153C39.4093 27.5153 44.9332 28.7144 48.4068 30.6972C45.2163 32.5322 39.9977 33.8761 33.4995 33.8761C27.0013 33.8761 21.7838 32.5313 18.5922 30.6962ZM34.5735 47.8272V43.5378C35.1151 43.1972 35.4755 42.6095 35.4755 41.9371C35.4755 40.8817 34.5908 40.0262 33.4995 40.0262C32.4081 40.0262 31.5235 40.8817 31.5235 41.9371C31.5235 42.6085 31.8838 43.1962 32.4254 43.5368V47.8263C29.523 47.332 27.3097 44.8826 27.3097 41.9371C27.3097 38.6361 30.086 35.9514 33.4995 35.9514C36.913 35.9514 39.6892 38.6361 39.6892 41.9371C39.6892 44.8826 37.475 47.333 34.5735 47.8263V47.8272ZM51.8529 34.9137C51.8529 37.5787 47.7858 40.1984 41.8129 41.4773C41.6744 39.1204 40.4915 37.0333 38.6977 35.6442C43.7859 35.0496 48.0546 33.6024 50.7779 31.6295C50.9275 31.5615 51.0639 31.4621 51.1719 31.3272C51.4131 31.1372 51.6402 30.9433 51.8529 30.7434V34.9127V34.9137ZM50.2658 29.372C46.4725 26.898 40.2991 25.438 33.4995 25.438C26.6999 25.438 20.5275 26.898 16.7342 29.372C15.7131 28.4427 15.1471 27.4513 15.1471 26.4767C15.1471 22.903 22.5218 19.0773 33.4995 19.0773C44.4771 19.0773 51.8529 22.903 51.8529 26.4767C51.8529 27.4513 51.2869 28.4427 50.2658 29.372Z" fill="white"/>
</svg>
