<svg width="66" height="66" viewBox="0 0 66 66" fill="none" xmlns="http://www.w3.org/2000/svg">
<path d="M43.6557 15.2037C39.5674 14.4454 35.2918 15.8574 33 18.5524C30.7062 15.8574 26.4276 14.4454 22.3443 15.2037C17.2247 16.1502 13.8568 19.9919 13.1015 25.7438C11.4006 38.7043 31.6259 50.3738 32.4878 50.8638C32.6473 50.9553 32.8236 51 33 51C33.1764 51 33.3527 50.9553 33.5122 50.8638C34.3741 50.3738 54.5994 38.7043 52.8985 25.7438C52.1432 19.9919 48.7753 16.1502 43.6557 15.2037ZM33 48.6862C29.8942 46.8015 13.811 36.4912 15.185 26.0274C15.8108 21.2586 18.5579 18.0817 22.7189 17.3122C23.3298 17.1993 23.9475 17.1454 24.5613 17.1454C27.7778 17.1454 30.8697 18.6327 32.0733 20.9272C32.441 21.6225 33.559 21.6225 33.9267 20.9272C35.3615 18.1946 39.4817 16.6056 43.2811 17.3111C47.4431 18.0807 50.1892 21.2576 50.815 26.0264C52.188 36.4902 36.1048 46.8005 33 48.6852V48.6862Z" fill="white"/>
<path d="M33.0005 31C28.5141 31 25 33.1962 25 36C25 38.8038 28.5141 41 33.0005 41C37.487 41 41 38.8038 41 36C41 33.1962 37.486 31 33.0005 31ZM33.0005 38.9649C29.5825 38.9649 27.2005 37.4024 27.2005 36C27.2005 34.5976 29.5814 33.0351 33.0005 33.0351C36.4196 33.0351 38.7995 34.5976 38.7995 36C38.7995 37.4024 36.4186 38.9649 33.0005 38.9649Z" fill="white"/>
<path d="M33.0005 29C34.6546 29 36 27.6536 36 25.9995C36 24.3454 34.6546 23 33.0005 23C31.3464 23 30 24.3454 30 25.9995C30 27.6536 31.3464 29 33.0005 29ZM33.0005 25.2006C33.4406 25.2006 33.7994 25.5594 33.7994 25.9995C33.7994 26.4396 33.4406 26.7994 33.0005 26.7994C32.5604 26.7994 32.2006 26.4406 32.2006 25.9995C32.2006 25.5583 32.5594 25.2006 33.0005 25.2006Z" fill="white"/>
<path d="M29 28.0005C29 26.3464 27.878 25 26.4996 25C25.1212 25 24 26.3464 24 28.0005C24 29.6546 25.1212 31 26.4996 31C27.878 31 29 29.6546 29 28.0005ZM25.8338 28.0005C25.8338 27.5594 26.1328 27.2006 26.4996 27.2006C26.8663 27.2006 27.1662 27.5594 27.1662 28.0005C27.1662 28.4417 26.8672 28.7994 26.4996 28.7994C26.1319 28.7994 25.8338 28.4406 25.8338 28.0005Z" fill="white"/>
<path d="M39.9995 25C38.3454 25 37 26.3464 37 28.0005C37 29.6546 38.3454 31 39.9995 31C41.6536 31 43 29.6546 43 28.0005C43 26.3464 41.6536 25 39.9995 25ZM39.9995 28.7994C39.5594 28.7994 39.2006 28.4406 39.2006 28.0005C39.2006 27.5604 39.5594 27.2006 39.9995 27.2006C40.4396 27.2006 40.7994 27.5594 40.7994 28.0005C40.7994 28.4417 40.4406 28.7994 39.9995 28.7994Z" fill="white"/>
</svg>
