<svg width="66" height="66" viewBox="0 0 66 66" fill="none" xmlns="http://www.w3.org/2000/svg">
<path d="M30.2303 46.9221L37.0258 46.6234C38.2131 48.1276 39.9795 48.9232 42.289 48.9917C42.486 48.9979 42.6791 49 42.8701 49C48.5464 49 51.255 46.4501 52.5323 44.2706C54.9428 40.1584 54.3527 33.709 50.9939 27.438C50.4148 26.356 49.8267 25.3954 49.2305 24.5416C49.1975 24.4814 49.1595 24.4233 49.1145 24.3694C49.1015 24.3528 49.0865 24.3352 49.0725 24.3186C44.1984 17.5164 38.7512 17.8069 32.4898 18.1378C25.0122 18.5341 21.4344 26.1578 20.4692 28.6247H13.3816C12.8945 28.6247 12.4704 28.9702 12.3564 29.4609C12.2864 29.7586 10.698 36.8128 14.8449 41.9582C17.8626 45.7011 23.0477 47.3755 30.2303 46.9242V46.9221ZM47.4961 25.7709C48.0493 26.5666 48.5994 27.4722 49.1505 28.5003C52.1412 34.0845 52.7473 39.6916 50.7299 43.1336C49.2535 45.6544 46.3609 46.9169 42.349 46.8039C40.5476 46.7499 39.2813 46.1607 38.4882 45.003C38.4521 44.9303 38.4091 44.8629 38.3581 44.8007C38.3551 44.7955 38.3521 44.7903 38.3491 44.7861C35.7826 40.5049 39.3343 30.2628 40.9027 26.7128C41.6639 25.1412 42.6941 24.2335 43.8823 24.0851C45.1016 23.9368 46.5249 24.5945 47.4961 25.7719V25.7709ZM14.2668 30.8116H16.0452C15.5751 31.7649 14.7969 32.3707 14.1248 32.738C14.1378 31.9599 14.2018 31.2929 14.2658 30.8116H14.2668ZM18.3127 30.8116H21.1983C21.6514 30.8116 22.0545 30.5097 22.1986 30.0646C22.2296 29.9713 25.3072 20.7085 32.6789 20.3174C37.0758 20.084 40.5466 19.8993 43.6763 21.9077C43.6613 21.9098 43.6453 21.9118 43.6303 21.9129C42.289 22.0799 40.3986 22.8776 39.0003 25.7657C38.7672 26.2937 33.6971 37.8907 35.8956 44.4832L30.1233 44.7374C23.6249 45.1357 19.0399 43.7374 16.4743 40.565C15.105 38.872 14.4939 36.8761 14.2548 35.0742C15.4821 34.5793 17.5745 33.3791 18.3127 30.8116Z" fill="white"/>
<path d="M26.8963 31.6507C27.2282 31.2945 27.7708 31.2945 28.1026 31.6507C28.3196 31.8836 28.6041 32 28.8885 32C29.173 32 29.4574 31.8836 29.6745 31.6507C30.1085 31.1849 30.1085 30.4308 29.6745 29.965C28.4766 28.6783 26.5234 28.6783 25.3255 29.965C24.8915 30.4308 24.8915 31.1849 25.3255 31.6507C25.7596 32.1164 26.4623 32.1164 26.8963 31.6507Z" fill="white"/>
</svg>
