<svg width="66" height="66" viewBox="0 0 66 66" fill="none" xmlns="http://www.w3.org/2000/svg">
<path d="M33.0005 50C44.963 50 53 46.5935 53 41.5228C53 41.4286 52.9879 41.3344 52.9626 41.2433L49.9674 30.1446C49.9563 27.6164 49.6684 26.2196 48.1077 24.7934C46.8591 23.6538 45.158 23.0167 43.467 23.0167C43.4245 23.0167 43.3821 23.0167 43.3377 23.0177C42.8012 21.2005 41.4001 19.6487 39.6192 18.9873C37.9221 18.3582 35.9593 18.5659 34.4036 19.4785C33.0955 17.6907 30.7912 16.694 28.5779 17.084C26.2919 17.4871 24.418 19.3145 23.8594 21.5378C21.5996 21.5003 19.3379 22.5386 17.9186 24.3477C16.4578 26.2104 15.8255 28.1745 16.0204 30.1882L13.0374 41.2433C13.0121 41.3344 13 41.4276 13 41.5228C13 46.5935 21.038 50 32.9995 50H33.0005ZM19.5944 25.6695C20.743 24.2038 22.7371 23.429 24.5807 23.746C24.8777 23.7977 25.1898 23.7186 25.4272 23.5262C25.6656 23.3348 25.8101 23.0501 25.8242 22.7442C25.903 21.0729 27.3051 19.4785 28.9467 19.1888C30.5983 18.9032 32.45 19.9192 33.0914 21.4629C33.2268 21.787 33.5117 22.024 33.8541 22.097C34.1925 22.1668 34.5531 22.0696 34.8067 21.8275C35.8532 20.8328 37.5322 20.4935 38.8777 20.9919C40.2293 21.4943 41.2769 22.8475 41.4244 24.2839C41.4557 24.5806 41.6072 24.8501 41.8456 25.0284C42.082 25.2066 42.382 25.2765 42.676 25.2249C44.0801 24.9676 45.6136 25.4072 46.6712 26.3735C47.6309 27.2497 47.838 27.9456 47.838 30.2946C47.838 32.1249 42.0567 34.7818 32.9985 34.7818C23.9402 34.7818 18.159 32.1239 18.159 30.2946C18.159 30.2692 18.1469 30.249 18.1448 30.2247C18.1428 30.2014 18.1529 30.1801 18.1499 30.1568C18.1499 30.1548 18.1499 30.1527 18.1499 30.1507C17.9529 28.6232 18.4257 27.1575 19.5924 25.6695H19.5944ZM17.4508 33.07C20.2511 35.5851 26.7697 36.9191 33.0005 36.9191C39.2313 36.9191 45.75 35.5851 48.5502 33.07L50.8655 41.6515C50.6938 44.6872 44.4458 47.8637 33.0005 47.8637C21.5552 47.8637 15.3072 44.6872 15.1355 41.6515L17.4508 33.07Z" fill="white"/>
<path d="M26.8061 25.3063C28.8103 25.8957 30.4646 27.8384 30.827 30.0314C30.9215 30.5997 31.3826 31 31.9039 31C31.9673 31 32.0317 30.9944 32.095 30.9822C32.6911 30.8699 33.0888 30.2605 32.9829 29.6222C32.4709 26.5206 30.2216 23.8773 27.3855 23.0432C26.8029 22.8686 26.1996 23.239 26.0397 23.8639C25.8787 24.4889 26.2224 25.1339 26.805 25.3052L26.8061 25.3063Z" fill="white"/>
</svg>
