<svg width="66" height="66" viewBox="0 0 66 66" fill="none" xmlns="http://www.w3.org/2000/svg">
<path d="M44.8434 19.4669C41.5553 16.5863 37.3488 15 33.0005 15C28.6522 15 24.4447 16.5873 21.1566 19.4669C17.2451 22.8919 15 27.8251 15 32.9995C15 38.1739 17.2431 43.1051 21.1566 46.5331C24.4478 49.4147 28.6532 51 33.0005 51C37.3478 51 41.5553 49.4127 44.8434 46.5331C48.7559 43.1061 51 38.1729 51 32.9995C51 27.8261 48.7559 22.8929 44.8434 19.4669ZM23.127 43.022C22.9557 43.2358 22.7763 43.4386 22.5929 43.6352C22.4449 43.7923 22.2949 43.9464 22.1398 44.0913C22.0607 44.1653 21.9756 44.2292 21.8935 44.3001C18.8608 41.3201 17.1357 37.2515 17.1357 32.9985C17.1357 28.7454 18.8608 24.6768 21.8935 21.6979C21.9746 21.7688 22.0597 21.8327 22.1398 21.9067C22.2949 22.0516 22.4449 22.2057 22.5929 22.3628C22.7763 22.5584 22.9557 22.7621 23.127 22.976C23.2639 23.1463 23.3987 23.3217 23.5274 23.5031C23.6906 23.7322 23.8457 23.9704 23.9957 24.2146C24.1133 24.4062 24.2298 24.5988 24.3393 24.7995C24.4812 25.06 24.612 25.3316 24.7397 25.6063C24.836 25.8141 24.9343 26.0199 25.0225 26.2347C25.1421 26.5267 25.2465 26.8307 25.3499 27.1348C25.4239 27.3527 25.5029 27.5666 25.5688 27.7906C25.6651 28.118 25.7421 28.4576 25.8202 28.7961C25.8698 29.014 25.9276 29.2269 25.9702 29.4489C26.0421 29.83 26.0908 30.2222 26.1405 30.6145C26.1648 30.8071 26.2003 30.9956 26.2185 31.1912C26.2733 31.7842 26.3047 32.3863 26.3047 32.9965C26.3047 33.6066 26.2733 34.2097 26.2185 34.8017C26.2003 34.9983 26.1648 35.1879 26.1405 35.3825C26.0918 35.7727 26.0432 36.164 25.9712 36.543C25.9286 36.767 25.8708 36.9819 25.8202 37.2019C25.7431 37.5384 25.6661 37.8759 25.5708 38.2013C25.5049 38.4273 25.4249 38.6432 25.3509 38.8632C25.2475 39.1662 25.1441 39.4683 25.0255 39.7582C24.9363 39.9751 24.838 40.1829 24.7407 40.3917C24.614 40.6653 24.4832 40.935 24.3423 41.1944C24.2319 41.3961 24.1153 41.5898 23.9967 41.7823C23.8467 42.0266 23.6916 42.2638 23.5294 42.4919C23.3997 42.6733 23.2659 42.8486 23.1281 43.0199L23.127 43.022ZM32.9995 48.8613C29.5918 48.8613 26.2824 47.7534 23.5517 45.7212C23.5963 45.6796 23.6348 45.6289 23.6784 45.5874C23.8335 45.4384 23.9774 45.2732 24.1254 45.115C24.3596 44.8657 24.5907 44.6143 24.8076 44.3427C24.9546 44.1592 25.0914 43.9636 25.2303 43.77C25.4279 43.4943 25.6205 43.2135 25.8019 42.9176C25.9317 42.7057 26.0553 42.4888 26.1759 42.2678C26.3432 41.9628 26.5023 41.6516 26.6523 41.3303C26.7608 41.0982 26.8662 40.864 26.9665 40.6238C27.1054 40.2883 27.2311 39.9447 27.3507 39.596C27.4348 39.3507 27.521 39.1074 27.596 38.8561C27.7065 38.4851 27.7987 38.104 27.8879 37.7208C27.9457 37.4745 28.0085 37.2333 28.0572 36.9829C28.1403 36.5532 28.1991 36.1133 28.2548 35.6703C28.2822 35.4544 28.3217 35.2426 28.342 35.0247C28.4059 34.3587 28.4423 33.6837 28.4423 32.9995C28.4423 32.3153 28.4048 31.6403 28.342 30.9743C28.3207 30.7554 28.2822 30.5446 28.2548 30.3277C28.1991 29.8857 28.1403 29.4458 28.0572 29.0161C28.0085 28.7657 27.9447 28.5234 27.8879 28.2771C27.7987 27.894 27.7065 27.5129 27.596 27.1419C27.521 26.8905 27.4348 26.6473 27.3507 26.402C27.2311 26.0523 27.1054 25.7087 26.9665 25.3742C26.8672 25.134 26.7618 24.8998 26.6523 24.6677C26.5023 24.3474 26.3442 24.0352 26.1759 23.7311C26.0543 23.5102 25.9317 23.2933 25.8009 23.0804C25.6195 22.7855 25.4269 22.5057 25.2292 22.229C25.0894 22.0344 24.9535 21.8398 24.8056 21.6553C24.5886 21.3837 24.3575 21.1323 24.1234 20.8839C23.9744 20.7248 23.8315 20.5596 23.6754 20.4106C23.6318 20.368 23.5933 20.3173 23.5487 20.2768C26.2783 18.2435 29.5877 17.1367 32.9964 17.1367C36.4052 17.1367 39.7136 18.2435 42.4432 20.2768C42.3986 20.3184 42.3601 20.369 42.3165 20.4106C42.1614 20.5596 42.0175 20.7248 41.8685 20.8839C41.6353 21.1333 41.4043 21.3837 41.1863 21.6553C41.0394 21.8398 40.9025 22.0344 40.7626 22.229C40.565 22.5047 40.3724 22.7855 40.191 23.0804C40.0602 23.2923 39.9376 23.5092 39.8159 23.7311C39.6487 24.0362 39.4906 24.3474 39.3396 24.6677C39.2311 24.8998 39.1247 25.134 39.0253 25.3742C38.8865 25.7097 38.7608 26.0533 38.6412 26.402C38.5571 26.6473 38.4709 26.8905 38.3959 27.1419C38.2854 27.5129 38.1932 27.893 38.104 28.2771C38.0472 28.5234 37.9833 28.7647 37.9347 29.0161C37.8516 29.4458 37.7928 29.8857 37.737 30.3277C37.7097 30.5446 37.6702 30.7554 37.6499 30.9743C37.586 31.6403 37.5495 32.3153 37.5495 32.9995C37.5495 33.6837 37.587 34.3587 37.6499 35.0247C37.6702 35.2436 37.7097 35.4544 37.737 35.6703C37.7928 36.1123 37.8516 36.5522 37.9347 36.9829C37.9833 37.2333 38.0462 37.4745 38.104 37.7208C38.1932 38.104 38.2854 38.4851 38.3959 38.8561C38.4709 39.1074 38.5571 39.3507 38.6412 39.596C38.7618 39.9457 38.8865 40.2893 39.0253 40.6238C39.1247 40.864 39.2301 41.0971 39.3396 41.3303C39.4896 41.6516 39.6487 41.9628 39.8159 42.2678C39.9366 42.4888 40.0602 42.7057 40.19 42.9176C40.3714 43.2125 40.564 43.4933 40.7616 43.77C40.9005 43.9636 41.0373 44.1592 41.1843 44.3427C41.4012 44.6153 41.6323 44.8657 41.8664 45.115C42.0154 45.2732 42.1584 45.4394 42.3135 45.5874C42.357 45.63 42.3956 45.6806 42.4402 45.7212C39.7105 47.7545 36.4011 48.8613 32.9934 48.8613H32.9995ZM44.1035 44.3011C44.0224 44.2302 43.9372 44.1663 43.8572 44.0923C43.7021 43.9474 43.5521 43.7933 43.4041 43.6362C43.2206 43.4406 43.0422 43.2368 42.8699 43.023C42.7321 42.8517 42.5983 42.6763 42.4685 42.4949C42.3054 42.2668 42.1503 42.0286 42.0013 41.7854C41.8827 41.5928 41.7661 41.3992 41.6556 41.1975C41.5147 40.938 41.384 40.6684 41.2573 40.3947C41.16 40.1859 41.0617 39.9781 40.9725 39.7612C40.8539 39.4713 40.7495 39.1693 40.6471 38.8662C40.5721 38.6463 40.493 38.4304 40.4271 38.2043C40.3319 37.879 40.2548 37.5414 40.1778 37.2049C40.1271 36.985 40.0693 36.7701 40.0268 36.5461C39.9548 36.167 39.9062 35.7757 39.8575 35.3855C39.8332 35.1909 39.7977 35.0014 39.7795 34.8047C39.7247 34.2118 39.6933 33.6097 39.6933 32.9995C39.6933 32.3893 39.7247 31.7862 39.7795 31.1943C39.7977 30.9987 39.8332 30.8111 39.8575 30.6175C39.9062 30.2253 39.9558 29.833 40.0278 29.4519C40.0704 29.2299 40.1281 29.0171 40.1778 28.7991C40.2558 28.4596 40.3329 28.121 40.4292 27.7937C40.4951 27.5696 40.5731 27.3558 40.6481 27.1378C40.7515 26.8328 40.8559 26.5287 40.9755 26.2378C41.0637 26.0229 41.162 25.8161 41.2583 25.6093C41.386 25.3347 41.5168 25.063 41.6587 24.8025C41.7681 24.6018 41.8847 24.4092 42.0023 24.2177C42.1523 23.9734 42.3084 23.7352 42.4705 23.5061C42.6003 23.3247 42.7341 23.1493 42.8709 22.9791C43.0433 22.7652 43.2216 22.5615 43.4051 22.3658C43.5531 22.2087 43.7031 22.0547 43.8582 21.9097C43.9372 21.8357 44.0224 21.7719 44.1045 21.7009C47.1372 24.6799 48.8623 28.7485 48.8623 33.0015C48.8623 37.2546 47.1372 41.3232 44.1045 44.3032L44.1035 44.3011Z" fill="white"/>
</svg>
