<svg width="66" height="66" viewBox="0 0 66 66" fill="none" xmlns="http://www.w3.org/2000/svg">
<path d="M16.5709 16.742C16.0546 17.4111 15.8325 18.2385 15.9446 19.0768C16.0586 19.8732 16.4579 20.5813 17.0802 21.0872L11.1786 28.9231C10.8834 29.3157 10.9625 29.8777 11.3537 30.1731C11.745 30.4686 12.3073 30.3895 12.6025 29.9979L18.4981 22.1709L20.014 23.3148L18.6162 25.1709C18.321 25.5635 18.4001 26.1255 18.7913 26.421C19.1825 26.7164 19.7449 26.6373 20.0401 26.2457L21.4379 24.3896L22.9538 25.5345L20.3352 29.0683C20.0401 29.46 20.1191 30.0229 20.5104 30.3184C20.9016 30.6139 21.4639 30.5347 21.7591 30.1431L24.3777 26.6093L25.8937 27.7532L19.998 35.5801C19.7029 35.9717 19.7819 36.5346 20.1732 36.8301C20.5644 37.1256 21.1267 37.0465 21.4219 36.6548L27.3165 28.8279L28.8325 29.9728L26.2139 33.5056C25.9187 33.8973 25.9977 34.4602 26.389 34.7557C26.7802 35.0512 27.3426 34.9721 27.6377 34.5804L30.2563 31.0476L31.7593 32.1825C31.7593 32.1825 31.7663 32.1895 31.7713 32.1925L25.8777 40.0174C25.5825 40.409 25.6615 40.972 26.0528 41.2674C26.444 41.5629 27.0063 41.4838 27.3015 41.0922L33.0731 33.4285C33.3502 33.746 33.6194 34.0696 33.8505 34.4262L37.787 41.7512C38.4854 42.835 39.3599 43.7796 40.3906 44.5619L49.336 51.312C50.0635 51.8599 50.959 52.0933 51.8616 51.9661C52.7642 51.8389 53.5626 51.3691 54.111 50.6409L55.3127 49.0473C55.8601 48.3191 56.0932 47.4226 55.9661 46.5191C55.9601 46.473 55.9521 46.43 55.9441 46.3859C55.792 45.5385 55.3337 44.7893 54.6423 44.2674L45.5667 37.4171C44.8113 36.8482 44.1559 36.161 43.6576 35.4428L39.7332 28.7057C39.0758 27.7481 38.2743 26.9088 37.3537 26.2096L22.1213 14.6365C20.7595 13.5988 18.7993 13.8572 17.7537 15.2125L16.5709 16.742ZM20.8736 16.2822L36.1039 27.8563C36.8504 28.4233 37.4988 29.1014 37.9911 29.8095L41.9135 36.5467C42.5789 37.5153 43.3914 38.3627 44.324 39.0658L53.3975 45.9161C53.6867 46.1325 53.8638 46.4921 53.9219 46.8036C53.9719 47.1612 53.8798 47.5137 53.6637 47.8012L52.462 49.3948C52.2458 49.6833 51.9316 49.8696 51.5754 49.9197C51.2182 49.9698 50.865 49.8776 50.5788 49.6603L41.6343 42.9122C40.7998 42.2801 40.0884 41.5118 39.564 40.7005L35.6486 33.4105L35.6086 33.3444C34.9112 32.2546 34.0347 31.308 33.004 30.5307L18.4041 19.5116C18.1879 19.3493 18.0458 19.1169 17.9988 18.8505C17.9958 18.8344 17.9928 18.8184 17.9918 18.8024C17.9528 18.5179 18.0288 18.2365 18.2059 18.0081L19.3887 16.4776C19.7459 16.0158 20.4113 15.9287 20.8766 16.2832L20.8736 16.2822Z" fill="white"/>
<path d="M14.8603 32C14.6862 32 14.5111 31.9463 14.3593 31.8358C13.9727 31.5528 13.8846 31.0043 14.1609 30.6107L16.4403 27.3664C16.7176 26.9729 17.2551 26.882 17.6407 27.1639C18.0273 27.447 18.1154 27.9954 17.8391 28.389L15.5597 31.6333C15.3917 31.8719 15.1275 32 14.8593 32H14.8603Z" fill="white"/>
<path d="M15.9146 37C15.7295 37 15.5434 36.9463 15.382 36.8358C14.971 36.5528 14.8774 36.0044 15.1711 35.611L18.3419 31.3663C18.6367 30.9729 19.2081 30.882 19.618 31.1639C20.029 31.4469 20.1227 31.9953 19.8289 32.3888L16.6581 36.6334C16.4794 36.8719 16.1986 37 15.9135 37H15.9146Z" fill="white"/>
<path d="M24.711 38C24.568 38 24.4224 37.961 24.297 37.8806C23.9774 37.6749 23.9046 37.2762 24.133 36.9901L24.711 36.2663C24.9402 35.9803 25.3844 35.9142 25.7031 36.1192C26.0226 36.3249 26.0953 36.7236 25.867 37.0097L25.289 37.7335C25.1502 37.9076 24.9318 38 24.7102 38H24.711Z" fill="white"/>
</svg>
