<svg width="66" height="66" viewBox="0 0 66 66" fill="none" xmlns="http://www.w3.org/2000/svg">
<path d="M50.1699 42.5473L47.1154 45.602L41.0388 39.5261L45.8157 34.7489C46.2344 34.3302 46.2344 33.6524 45.8157 33.2337L42.7276 30.1445C42.5264 29.9433 42.2541 29.8305 41.9696 29.8305C41.685 29.8305 41.4127 29.9433 41.2115 30.1445L40.6821 30.6739L25.6004 15.5904C25.1817 15.1717 24.5039 15.1717 24.0853 15.5904L20.5958 19.08L15.8291 14.314C15.4104 13.8953 14.7326 13.8953 14.314 14.314C13.8953 14.7327 13.8953 15.4105 14.314 15.8292L19.0807 20.5952L15.5913 24.0848C15.3901 24.286 15.2773 24.5584 15.2773 24.8429C15.2773 25.1275 15.3901 25.3998 15.5913 25.601L23.5102 33.5213L30.672 40.6835L30.1426 41.213C29.7239 41.6317 29.7239 42.3095 30.1426 42.7281L33.2307 45.8164C33.44 46.0257 33.7144 46.1304 33.9887 46.1304C34.2631 46.1304 34.5374 46.0257 34.7468 45.8164L39.5227 41.0402L45.5992 47.1161L42.5447 50.1708C42.1261 50.5895 42.1261 51.2673 42.5447 51.686C42.754 51.8953 43.0284 52 43.3028 52C43.5771 52 43.8515 51.8953 44.0608 51.686L47.8724 47.8742C47.8724 47.8742 47.8734 47.8742 47.8744 47.8732C47.8744 47.8732 47.8744 47.8722 47.8754 47.8712L51.686 44.0604C52.1047 43.6417 52.1047 42.9639 51.686 42.5452C51.2674 42.1265 50.5896 42.1265 50.1709 42.5452L50.1699 42.5473ZM30.0918 37.073L31.6963 35.4684C32.1149 35.0497 32.1149 34.3719 31.6963 33.9532C31.2776 33.5345 30.5998 33.5345 30.1812 33.9532L28.5767 35.5578L25.7833 32.7642L27.3878 31.1597C27.8064 30.741 27.8064 30.0632 27.3878 29.6445C26.9691 29.2258 26.2914 29.2258 25.8727 29.6445L24.2682 31.2491L21.4758 28.4565L23.0803 26.852C23.499 26.4333 23.499 25.7555 23.0803 25.3368C22.6617 24.9181 21.9839 24.9181 21.5652 25.3368L19.9607 26.9414L17.8644 24.8449L24.8434 17.8667L39.167 32.1921L32.1881 39.1704L30.0928 37.075L30.0918 37.073ZM38.7677 38.767C38.7677 38.767 38.7666 38.767 38.7656 38.768C38.7656 38.768 38.7656 38.769 38.7646 38.77L33.9897 43.5452L32.4167 41.9721L41.9696 32.4187L43.5426 33.9928L38.7677 38.768V38.767Z" fill="white"/>
</svg>
