<svg width="66" height="66" viewBox="0 0 66 66" fill="none" xmlns="http://www.w3.org/2000/svg">
<path d="M22.463 32.5104C23.5588 33.9085 25.1141 34.7803 26.8405 34.9642C27.0668 34.9888 27.292 35 27.5153 35C29.0047 35 30.436 34.4747 31.6066 33.4844C34.3846 31.1348 34.8066 26.8732 32.5451 23.9871L23.5402 12.4928C22.4443 11.0927 20.89 10.2219 19.1636 10.037C17.4303 9.84993 15.7442 10.3773 14.3985 11.5178C13.0508 12.6553 12.2117 14.271 12.0346 16.0646C11.8576 17.8582 12.3632 19.6171 13.4591 21.0172L22.462 32.5115L22.463 32.5104ZM30.6898 25.5538C32.1181 27.378 31.8525 30.0699 30.0966 31.5559H30.0956C28.3397 33.0419 25.7486 32.7639 24.3183 30.9407L20.5713 26.1568L26.9428 20.7699L30.6898 25.5538ZM15.9105 13.4443C16.6483 12.8188 17.5533 12.4867 18.4937 12.4867C18.6354 12.4867 18.777 12.4938 18.9206 12.5102C20.0116 12.6256 20.9933 13.1765 21.6859 14.0595L25.4328 18.8424L19.0613 24.2293L15.3153 19.4464C14.6238 18.5613 14.3041 17.4494 14.4162 16.316C14.5284 15.1827 15.0586 14.1627 15.9105 13.4432V13.4443Z" fill="white"/>
<path d="M51.2624 20.7586C48.6228 19.2191 45.2125 20.0971 43.6602 22.72L37.7636 32.6883C36.2133 35.3122 37.0989 38.6998 39.7376 40.2423C40.6191 40.7565 41.5864 41 42.5406 41C44.447 41 46.3059 40.0268 47.3398 38.2799L53.2364 28.3105C54.7867 25.6866 53.9011 22.299 51.2624 20.7566V20.7586ZM45.2256 37.0451C44.3582 38.5084 42.4559 39.0015 40.9822 38.1406C39.5086 37.2796 39.0154 35.3884 39.8798 33.9251L42.2057 29.9923L47.5506 33.1123L45.2246 37.0451H45.2256ZM51.1212 27.0767L48.7953 31.0096L43.4494 27.8886L45.7764 23.9547C46.6428 22.4934 48.5431 22.0023 50.0198 22.8593C51.4934 23.7202 51.9867 25.6115 51.1222 27.0757L51.1212 27.0767Z" fill="white"/>
<path d="M18.9148 37.7017C14.0642 39.6778 11.7261 45.2322 13.7023 50.0837C15.2025 53.7651 18.7621 56 22.5131 56C23.704 56 24.9156 55.7739 26.0847 55.297C30.9363 53.3199 33.2743 47.7655 31.2972 42.915C29.3201 38.0646 23.7644 35.7266 18.9148 37.7017ZM15.5921 48.0124C14.8693 44.7077 16.5876 41.2542 19.824 39.9345C20.6976 39.5796 21.6009 39.411 22.4893 39.411C24.8998 39.411 27.1982 40.6534 28.507 42.7504L15.5921 48.0124ZM25.1744 53.0641C21.936 54.3848 18.2941 53.1137 16.5014 50.2443L29.4053 44.9863C30.1292 48.291 28.4098 51.7444 25.1734 53.0641H25.1744Z" fill="white"/>
</svg>
