<svg width="64" height="64" viewBox="0 0 64 64" fill="none" xmlns="http://www.w3.org/2000/svg">
<rect x="1" y="1" width="62" height="62" rx="31" fill="white" stroke="#8FCC93" stroke-width="2"/>
<path d="M32.32 48.64C24.0959 48.64 17.4033 41.317 17.4033 32.32C17.4033 30.7067 17.6187 29.1121 18.0402 27.583C18.1105 27.3352 18.3681 27.1902 18.6163 27.2557C18.8645 27.3258 19.0097 27.583 18.9441 27.8308C18.5413 29.2805 18.34 30.7909 18.34 32.32C18.34 40.8027 24.6111 47.7048 32.32 47.7048C40.0289 47.7048 46.3 40.8027 46.3 32.32C46.3 30.7909 46.0986 29.2805 45.6959 27.8308C45.6256 27.583 45.7755 27.3258 46.0237 27.2557C46.2719 27.1855 46.5295 27.3352 46.5998 27.583C47.0213 29.1121 47.2367 30.7067 47.2367 32.32C47.2367 41.317 40.5441 48.64 32.32 48.64Z" fill="#8FCC93"/>
<path d="M25.3464 18.5439C25.1731 18.5439 25.0045 18.4457 24.9249 18.282C24.8125 18.0482 24.9061 17.7676 25.1403 17.6554C27.3883 16.5565 29.805 16 32.32 16C34.835 16 37.247 16.5565 39.4903 17.6507C39.7245 17.7629 39.8182 18.0435 39.7058 18.2773C39.5934 18.5111 39.3123 18.6047 39.0782 18.4924C36.966 17.459 34.6898 16.9399 32.32 16.9399C29.9502 16.9399 27.6693 17.4637 25.5478 18.5018C25.4822 18.5345 25.4119 18.5485 25.3417 18.5485L25.3464 18.5439Z" fill="#8FCC93"/>
<path d="M25.8241 31.6466C26.6207 31.6466 27.2666 31.0018 27.2666 30.2063C27.2666 29.4109 26.6207 28.7661 25.8241 28.7661C25.0274 28.7661 24.3816 29.4109 24.3816 30.2063C24.3816 31.0018 25.0274 31.6466 25.8241 31.6466Z" fill="#8FCC93"/>
<path d="M38.8159 31.6466C39.6126 31.6466 40.2584 31.0018 40.2584 30.2063C40.2584 29.4109 39.6126 28.7661 38.8159 28.7661C38.0192 28.7661 37.3734 29.4109 37.3734 30.2063C37.3734 31.0018 38.0192 31.6466 38.8159 31.6466Z" fill="#8FCC93"/>
<path d="M29.0744 41.1627C27.0277 41.1627 25.3604 39.498 25.3604 37.4545C25.3604 37.1973 25.5712 36.9869 25.8288 36.9869C26.0863 36.9869 26.2971 37.1973 26.2971 37.4545C26.2971 38.9836 27.5429 40.2275 29.0744 40.2275C30.6059 40.2275 31.8516 38.9836 31.8516 37.4545C31.8516 37.1973 32.0624 36.9869 32.32 36.9869C32.5776 36.9869 32.7883 37.1973 32.7883 37.4545C32.7883 39.498 31.121 41.1627 29.0744 41.1627Z" fill="#8FCC93"/>
<path d="M35.5703 41.1627C33.5236 41.1627 31.8563 39.498 31.8563 37.4545C31.8563 37.1973 32.0671 36.9869 32.3247 36.9869C32.5823 36.9869 32.793 37.1973 32.793 37.4545C32.793 38.9836 34.0388 40.2275 35.5703 40.2275C37.1018 40.2275 38.3476 38.9836 38.3476 37.4545C38.3476 37.1973 38.5583 36.9869 38.8159 36.9869C39.0735 36.9869 39.2842 37.1973 39.2842 37.4545C39.2842 39.498 37.6169 41.1627 35.5703 41.1627Z" fill="#8FCC93"/>
<path d="M32.3481 37.9174C31.9687 37.9174 31.5847 37.7771 31.2381 37.4966L30.2921 36.6408C30.264 36.6174 30.2452 36.5894 30.2218 36.5613C29.9127 36.1218 29.8799 35.5559 30.1235 35.079C30.3717 34.602 30.8588 34.3074 31.3974 34.3074H33.2473C33.7859 34.3074 34.273 34.602 34.5212 35.079C34.7694 35.5559 34.732 36.1218 34.4228 36.5613C34.4041 36.5894 34.3807 36.6174 34.3526 36.6408L33.43 37.4779C33.1115 37.7725 32.7368 37.9174 32.3481 37.9174ZM30.9665 35.9908L31.847 36.7905C32.1701 37.0477 32.512 37.057 32.7977 36.7905L33.6782 35.9908C33.7625 35.8412 33.7672 35.6682 33.6875 35.5139C33.5986 35.3455 33.4346 35.2473 33.2473 35.2473H31.3974C31.21 35.2473 31.0414 35.3455 30.9571 35.5139C30.8775 35.6682 30.8822 35.8412 30.9665 35.9908Z" fill="#8FCC93"/>
<path d="M15.75 43.0566H15.7453C13.6378 43.0566 12.125 41.0552 12.0595 40.971C12.0501 40.957 12.0407 40.9429 12.0267 40.9242C11.8628 40.6437 8.10199 33.9473 12.008 25.6377C15.9561 17.2439 24.3535 18.1744 24.4378 18.1838C24.6954 18.2165 24.878 18.4503 24.8452 18.7029C24.8125 18.96 24.5783 19.1377 24.3254 19.1097C24.0069 19.0723 16.5134 18.2633 12.8603 26.0305C9.27284 33.6574 12.584 39.9796 12.8276 40.4286C12.9868 40.6296 14.2185 42.1167 15.75 42.1167C16.6961 42.1167 17.6093 41.5415 18.4664 40.4052C18.621 40.1994 18.916 40.1573 19.1221 40.3117C19.3282 40.466 19.3703 40.7606 19.2158 40.9663C18.176 42.3505 17.0099 43.0519 15.75 43.0519V43.0566Z" fill="#8FCC93"/>
<path d="M48.89 43.0566C47.6348 43.0566 46.4686 42.3552 45.4242 40.971C45.2697 40.7652 45.3118 40.4706 45.5179 40.3163C45.724 40.162 46.019 40.2041 46.1736 40.4099C47.0306 41.5462 47.9439 42.1214 48.89 42.1214H48.8946C50.4355 42.1214 51.6532 40.6343 51.8124 40.4332C52.056 39.989 55.3578 33.6434 51.7796 26.0352C48.1266 18.268 40.6284 19.077 40.3146 19.1144C40.057 19.1471 39.8228 18.9647 39.7947 18.7075C39.762 18.4503 39.9446 18.2165 40.2022 18.1885C40.2865 18.1791 48.6839 17.2486 52.632 25.6424C56.538 33.952 52.7772 40.6483 52.6133 40.9289C52.6039 40.9429 52.5946 40.9616 52.5852 40.9757C52.5196 41.0598 51.0069 43.0566 48.8993 43.0613H48.8946L48.89 43.0566Z" fill="#8FCC93"/>
<path d="M32.32 48.64C24.0959 48.64 17.4033 41.317 17.4033 32.32C17.4033 30.7067 17.6187 29.1121 18.0402 27.583C18.1105 27.3352 18.3681 27.1902 18.6163 27.2557C18.8645 27.3258 19.0097 27.583 18.9441 27.8308C18.5413 29.2805 18.34 30.7909 18.34 32.32C18.34 40.8027 24.6111 47.7048 32.32 47.7048C40.0289 47.7048 46.3 40.8027 46.3 32.32C46.3 30.7909 46.0986 29.2805 45.6959 27.8308C45.6256 27.583 45.7755 27.3258 46.0237 27.2557C46.2719 27.1855 46.5295 27.3352 46.5998 27.583C47.0213 29.1121 47.2367 30.7067 47.2367 32.32C47.2367 41.317 40.5441 48.64 32.32 48.64Z" stroke="#8FCC93"/>
<path d="M25.3464 18.5439C25.1731 18.5439 25.0045 18.4457 24.9249 18.282C24.8125 18.0482 24.9061 17.7676 25.1403 17.6554C27.3883 16.5565 29.805 16 32.32 16C34.835 16 37.247 16.5565 39.4903 17.6507C39.7245 17.7629 39.8182 18.0435 39.7058 18.2773C39.5934 18.5111 39.3123 18.6047 39.0782 18.4924C36.966 17.459 34.6898 16.9399 32.32 16.9399C29.9502 16.9399 27.6693 17.4637 25.5478 18.5018C25.4822 18.5345 25.4119 18.5485 25.3417 18.5485L25.3464 18.5439Z" stroke="#8FCC93"/>
<path d="M25.8241 31.6466C26.6207 31.6466 27.2666 31.0018 27.2666 30.2063C27.2666 29.4109 26.6207 28.7661 25.8241 28.7661C25.0274 28.7661 24.3816 29.4109 24.3816 30.2063C24.3816 31.0018 25.0274 31.6466 25.8241 31.6466Z" stroke="#8FCC93"/>
<path d="M38.8159 31.6466C39.6126 31.6466 40.2584 31.0018 40.2584 30.2063C40.2584 29.4109 39.6126 28.7661 38.8159 28.7661C38.0192 28.7661 37.3734 29.4109 37.3734 30.2063C37.3734 31.0018 38.0192 31.6466 38.8159 31.6466Z" stroke="#8FCC93"/>
<path d="M29.0744 41.1627C27.0277 41.1627 25.3604 39.498 25.3604 37.4545C25.3604 37.1973 25.5712 36.9869 25.8288 36.9869C26.0863 36.9869 26.2971 37.1973 26.2971 37.4545C26.2971 38.9836 27.5429 40.2275 29.0744 40.2275C30.6059 40.2275 31.8516 38.9836 31.8516 37.4545C31.8516 37.1973 32.0624 36.9869 32.32 36.9869C32.5776 36.9869 32.7883 37.1973 32.7883 37.4545C32.7883 39.498 31.121 41.1627 29.0744 41.1627Z" stroke="#8FCC93"/>
<path d="M35.5703 41.1627C33.5236 41.1627 31.8563 39.498 31.8563 37.4545C31.8563 37.1973 32.0671 36.9869 32.3247 36.9869C32.5823 36.9869 32.793 37.1973 32.793 37.4545C32.793 38.9836 34.0388 40.2275 35.5703 40.2275C37.1018 40.2275 38.3476 38.9836 38.3476 37.4545C38.3476 37.1973 38.5583 36.9869 38.8159 36.9869C39.0735 36.9869 39.2842 37.1973 39.2842 37.4545C39.2842 39.498 37.6169 41.1627 35.5703 41.1627Z" stroke="#8FCC93"/>
<path d="M32.3481 37.9174C31.9687 37.9174 31.5847 37.7771 31.2381 37.4966L30.2921 36.6408C30.264 36.6174 30.2452 36.5894 30.2218 36.5613C29.9127 36.1218 29.8799 35.5559 30.1235 35.079C30.3717 34.602 30.8588 34.3074 31.3974 34.3074H33.2473C33.7859 34.3074 34.273 34.602 34.5212 35.079C34.7694 35.5559 34.732 36.1218 34.4228 36.5613C34.4041 36.5894 34.3807 36.6174 34.3526 36.6408L33.43 37.4779C33.1115 37.7725 32.7368 37.9174 32.3481 37.9174ZM30.9665 35.9908L31.847 36.7905C32.1701 37.0477 32.512 37.057 32.7977 36.7905L33.6782 35.9908C33.7625 35.8412 33.7672 35.6682 33.6875 35.5139C33.5986 35.3455 33.4346 35.2473 33.2473 35.2473H31.3974C31.21 35.2473 31.0414 35.3455 30.9571 35.5139C30.8775 35.6682 30.8822 35.8412 30.9665 35.9908Z" stroke="#8FCC93"/>
<path d="M15.75 43.0566H15.7453C13.6378 43.0566 12.125 41.0552 12.0595 40.971C12.0501 40.957 12.0407 40.9429 12.0267 40.9242C11.8628 40.6437 8.10199 33.9473 12.008 25.6377C15.9561 17.2439 24.3535 18.1744 24.4378 18.1838C24.6954 18.2165 24.878 18.4503 24.8452 18.7029C24.8125 18.96 24.5783 19.1377 24.3254 19.1097C24.0069 19.0723 16.5134 18.2633 12.8603 26.0305C9.27284 33.6574 12.584 39.9796 12.8276 40.4286C12.9868 40.6296 14.2185 42.1167 15.75 42.1167C16.6961 42.1167 17.6093 41.5415 18.4664 40.4052C18.621 40.1994 18.916 40.1573 19.1221 40.3117C19.3282 40.466 19.3703 40.7606 19.2158 40.9663C18.176 42.3505 17.0099 43.0519 15.75 43.0519V43.0566Z" stroke="#8FCC93"/>
<path d="M48.89 43.0566C47.6348 43.0566 46.4686 42.3552 45.4242 40.971C45.2697 40.7652 45.3118 40.4706 45.5179 40.3163C45.724 40.162 46.019 40.2041 46.1736 40.4099C47.0306 41.5462 47.9439 42.1214 48.89 42.1214H48.8946C50.4355 42.1214 51.6532 40.6343 51.8124 40.4332C52.056 39.989 55.3578 33.6434 51.7796 26.0352C48.1266 18.268 40.6284 19.077 40.3146 19.1144C40.057 19.1471 39.8228 18.9647 39.7947 18.7075C39.762 18.4503 39.9446 18.2165 40.2022 18.1885C40.2865 18.1791 48.6839 17.2486 52.632 25.6424C56.538 33.952 52.7772 40.6483 52.6133 40.9289C52.6039 40.9429 52.5946 40.9616 52.5852 40.9757C52.5196 41.0598 51.0069 43.0566 48.8993 43.0613H48.8946L48.89 43.0566Z" stroke="#8FCC93"/>
</svg>
