<svg width="30" height="30" viewBox="0 0 30 30" fill="none" xmlns="http://www.w3.org/2000/svg">
<mask id="mask0_270_12" style="mask-type:luminance" maskUnits="userSpaceOnUse" x="15" y="13" width="11" height="11">
<path d="M25.4861 15.2473C25.4861 14.4827 25.418 13.7445 25.2947 13.0361H15.3187V17.2169H21.0207C20.774 18.5674 20.0276 19.7127 18.908 20.4774V23.1884H22.3318C24.3341 21.3082 25.4894 18.5376 25.4894 15.2473H25.4861Z" fill="white"/>
</mask>
<g mask="url(#mask0_270_12)">
<path d="M31.3724 7.03442H9.43125V29.1927H31.3724V7.03442Z" fill="#3E82F1"/>
</g>
<mask id="mask1_270_12" style="mask-type:luminance" maskUnits="userSpaceOnUse" x="5" y="17" width="18" height="9">
<path d="M15.3188 25.8058C18.1778 25.8058 20.5761 24.8392 22.3285 23.1874L18.9048 20.4764C17.9572 21.1252 16.7434 21.5092 15.3188 21.5092C12.5603 21.5092 10.2237 19.6092 9.39292 17.0537H5.85234V19.8541C7.59505 23.3861 11.1778 25.8058 15.3188 25.8058Z" fill="white"/>
</mask>
<g mask="url(#mask1_270_12)">
<path d="M28.2116 11.0491H-0.0351562V31.8071H28.2116V11.0491Z" fill="#32A753"/>
</g>
<mask id="mask2_270_12" style="mask-type:luminance" maskUnits="userSpaceOnUse" x="4" y="10" width="6" height="10">
<path d="M9.38934 17.0534C9.1784 16.4046 9.05832 15.7128 9.05832 15.0011C9.05832 14.2895 9.1784 13.5976 9.38934 12.9488V10.1484H5.84876C5.13156 11.6082 4.72266 13.2567 4.72266 15.0011C4.72266 16.7456 5.13156 18.3941 5.84876 19.8538L9.38934 17.0534Z" fill="white"/>
</mask>
<g mask="url(#mask2_270_12)">
<path d="M15.2759 4.1438H-1.16133V25.8552H15.2759V4.1438Z" fill="#F9BB00"/>
</g>
<mask id="mask3_270_12" style="mask-type:luminance" maskUnits="userSpaceOnUse" x="5" y="4" width="18" height="9">
<path d="M15.3188 8.49435C16.8732 8.49435 18.272 9.04052 19.3688 10.1097L22.4064 7.01139C20.5728 5.26694 18.1746 4.19775 15.3188 4.19775C11.1778 4.19775 7.59505 6.61748 5.85234 10.1494L9.39292 12.9498C10.227 10.3944 12.5603 8.49435 15.3188 8.49435Z" fill="white"/>
</mask>
<g mask="url(#mask3_270_12)">
<path d="M28.2895 -1.80688H-0.0351562V18.9512H28.2895V-1.80688Z" fill="#E74133"/>
</g>
</svg>
