<svg width="30" height="30" viewBox="0 0 30 30" fill="none" xmlns="http://www.w3.org/2000/svg">
<g clip-path="url(#clip0_270_38)">
<path d="M15.0017 30.0034C23.2869 30.0034 30.0034 23.2869 30.0034 15.0017C30.0034 6.7165 23.2869 0 15.0017 0C6.7165 0 0 6.7165 0 15.0017C0 23.2869 6.7165 30.0034 15.0017 30.0034Z" fill="#F8E049"/>
<path d="M15.0015 6.16773C9.69287 6.16773 5.38711 9.5699 5.38711 13.7696C5.38711 16.5009 7.21141 18.8968 9.94957 20.235C9.74763 20.9846 9.22054 22.9561 9.11443 23.3771C8.98437 23.9008 9.30611 23.8939 9.51831 23.7536C9.6826 23.6441 12.1538 21.9635 13.2183 21.2379C13.7967 21.3235 14.3922 21.368 15.0015 21.368C20.3101 21.368 24.6159 17.9658 24.6159 13.7661C24.6159 9.56647 20.3101 6.16431 15.0015 6.16431" fill="#371C1D"/>
<path d="M8.29361 12.3695H9.28277C9.28277 12.3695 9.28962 15.0871 9.28277 15.7203C9.28277 16.1824 10.313 16.1892 10.3096 15.7272V12.4037C10.3096 12.4037 10.645 12.4037 11.2987 12.4037C11.9148 12.4037 11.9148 11.4351 11.2987 11.4351C10.6039 11.4351 8.29019 11.4146 8.29019 11.4146C7.70833 11.4146 7.71175 12.3626 8.29019 12.3626" fill="#F8E049"/>
<mask id="mask0_270_38" style="mask-type:luminance" maskUnits="userSpaceOnUse" x="7" y="11" width="5" height="6">
<path d="M8.29361 12.3695H9.28277C9.28277 12.3695 9.28962 15.0871 9.28277 15.7203C9.28277 16.1824 10.313 16.1892 10.3096 15.7272V12.4037C10.3096 12.4037 10.645 12.4037 11.2987 12.4037C11.9148 12.4037 11.9148 11.4351 11.2987 11.4351C10.6039 11.4351 8.29019 11.4146 8.29019 11.4146C7.70833 11.4146 7.71175 12.3626 8.29019 12.3626" fill="white"/>
</mask>
<g mask="url(#mask0_270_38)">
<path d="M11.9186 11.4214H7.71211V16.1892H11.9186V11.4214Z" fill="#F8E049"/>
</g>
<path d="M13.0302 12.5442L13.5813 14.2693H12.4347L13.0302 12.5442ZM12.4141 11.7365C12.1711 12.2739 11.2915 14.8067 11.0006 15.4775C10.7884 15.9635 11.6988 16.3606 11.911 15.8745L12.1095 15.1832H13.9201C13.9201 15.1832 13.8585 15.2105 14.0981 15.8472C14.2932 16.3606 15.2345 16.0046 15.0394 15.4912C14.7621 14.7553 13.8003 12.113 13.6258 11.7399C13.5436 11.5654 13.2561 11.4421 12.9755 11.4421C12.7427 11.4421 12.5168 11.5277 12.421 11.7399" fill="#F8E049"/>
<mask id="mask1_270_38" style="mask-type:luminance" maskUnits="userSpaceOnUse" x="10" y="11" width="6" height="6">
<path d="M13.0302 12.5442L13.5813 14.2693H12.4347L13.0302 12.5442ZM12.4141 11.7365C12.1711 12.2739 11.2915 14.8067 11.0006 15.4775C10.7884 15.9635 11.6988 16.3606 11.911 15.8745L12.1095 15.1832H13.9201C13.9201 15.1832 13.8585 15.2105 14.0981 15.8472C14.2932 16.3606 15.2345 16.0046 15.0394 15.4912C14.7621 14.7553 13.8003 12.113 13.6258 11.7399C13.5436 11.5654 13.2561 11.4421 12.9755 11.4421C12.7427 11.4421 12.5168 11.5277 12.421 11.7399" fill="white"/>
</mask>
<g mask="url(#mask1_270_38)">
<path d="M15.2274 11.4387H10.7848V16.3571H15.2274V11.4387Z" fill="#F8E049"/>
</g>
<path d="M15.3812 11.8939C15.3812 12.753 15.3846 15.5289 15.3846 15.5289C15.3846 15.5289 15.3059 16.0799 15.7782 16.0799C16.2506 16.0799 17.3013 16.0731 17.7668 16.0731C18.2323 16.0731 18.2289 15.0839 17.7668 15.0839C17.3047 15.0839 16.4525 15.0805 16.4525 15.0805C16.4525 15.0805 16.4559 12.5135 16.4525 11.8905C16.4525 11.5893 16.1855 11.4387 15.9185 11.4387C15.6516 11.4387 15.3812 11.5893 15.3812 11.8939Z" fill="#F8E049"/>
<mask id="mask2_270_38" style="mask-type:luminance" maskUnits="userSpaceOnUse" x="15" y="11" width="4" height="6">
<path d="M15.3812 11.8939C15.3812 12.753 15.3846 15.5289 15.3846 15.5289C15.3846 15.5289 15.3059 16.0799 15.7782 16.0799C16.2506 16.0799 17.3013 16.0731 17.7668 16.0731C18.2323 16.0731 18.2289 15.0839 17.7668 15.0839C17.3047 15.0839 16.4525 15.0805 16.4525 15.0805C16.4525 15.0805 16.4559 12.5135 16.4525 11.8905C16.4525 11.5893 16.1855 11.4387 15.9185 11.4387C15.6516 11.4387 15.3812 11.5893 15.3812 11.8939Z" fill="white"/>
</mask>
<g mask="url(#mask2_270_38)">
<path d="M18.2289 11.4421H15.3059V16.0833H18.2289V11.4421Z" fill="#F8E049"/>
</g>
<path d="M18.3563 11.757C18.3666 12.1335 18.3426 15.5459 18.346 15.7992C18.346 16.1996 19.3626 16.1962 19.3626 15.7992C19.3626 15.3371 19.3626 14.4575 19.3626 14.4575L19.6604 14.2179L20.9644 15.9977C21.228 16.3468 22.0597 15.717 21.7961 15.3679L20.4099 13.5436C20.4099 13.5436 21.3512 12.5271 21.7208 12.1574C21.9365 11.9418 21.269 11.2675 21.05 11.4832C20.8412 11.6919 19.366 13.1671 19.366 13.1671C19.366 13.1671 19.3797 12.2396 19.366 11.7296C19.3592 11.5345 19.123 11.4421 18.88 11.4421C18.6199 11.4421 18.3529 11.5482 18.3563 11.757Z" fill="#F8E049"/>
<mask id="mask3_270_38" style="mask-type:luminance" maskUnits="userSpaceOnUse" x="18" y="11" width="4" height="6">
<path d="M18.3563 11.757C18.3666 12.1335 18.3426 15.5459 18.346 15.7992C18.346 16.1996 19.3626 16.1962 19.3626 15.7992C19.3626 15.3371 19.3626 14.4575 19.3626 14.4575L19.6604 14.2179L20.9644 15.9977C21.228 16.3468 22.0597 15.717 21.7961 15.3679L20.4099 13.5436C20.4099 13.5436 21.3512 12.5271 21.7208 12.1574C21.9365 11.9418 21.269 11.2675 21.05 11.4832C20.8412 11.6919 19.366 13.1671 19.366 13.1671C19.366 13.1671 19.3797 12.2396 19.366 11.7296C19.3592 11.5345 19.123 11.4421 18.88 11.4421C18.6199 11.4421 18.3529 11.5482 18.3563 11.757Z" fill="white"/>
</mask>
<g mask="url(#mask3_270_38)">
<path d="M22.0558 11.271H18.3422V16.3469H22.0558V11.271Z" fill="#F8E049"/>
</g>
</g>
<defs>
<clipPath id="clip0_270_38">
<rect width="30" height="30" fill="white"/>
</clipPath>
</defs>
</svg>
