<svg width="34" height="34" viewBox="0 0 34 34" fill="none" xmlns="http://www.w3.org/2000/svg">
<circle cx="17" cy="17" r="17" fill="#8FCC93"/>
<path d="M16.167 10.3333H10.3337C9.89163 10.3333 9.46771 10.5088 9.15515 10.8214C8.84259 11.134 8.66699 11.5579 8.66699 11.9999V23.6666C8.66699 24.1086 8.84259 24.5325 9.15515 24.8451C9.46771 25.1577 9.89163 25.3333 10.3337 25.3333H22.0003C22.4424 25.3333 22.8663 25.1577 23.1788 24.8451C23.4914 24.5325 23.667 24.1086 23.667 23.6666V17.8333" stroke="white" stroke-width="2" stroke-linecap="round" stroke-linejoin="round"/>
<path d="M22.417 9.08344C22.7485 8.75192 23.1982 8.56567 23.667 8.56567C24.1358 8.56567 24.5855 8.75192 24.917 9.08344C25.2485 9.41496 25.4348 9.8646 25.4348 10.3334C25.4348 10.8023 25.2485 11.2519 24.917 11.5834L17.0003 19.5001L13.667 20.3334L14.5003 17.0001L22.417 9.08344Z" stroke="white" stroke-width="2" stroke-linecap="round" stroke-linejoin="round"/>
</svg>
