<svg width="8" height="6" viewBox="0 0 8 6" fill="none" xmlns="http://www.w3.org/2000/svg">
<path d="M6.09834 0.348921C6.2216 0.231574 6.38562 0.1667 6.5558 0.167988C6.72598 0.169275 6.88901 0.236624 7.01048 0.355823C7.13195 0.475022 7.20236 0.636747 7.20686 0.806874C7.21136 0.977 7.14959 1.14222 7.03459 1.26767L3.54334 5.63392C3.48331 5.69858 3.41085 5.75047 3.3303 5.78649C3.24976 5.82251 3.16278 5.84192 3.07456 5.84355C2.98634 5.84518 2.8987 5.82901 2.81688 5.796C2.73505 5.76299 2.66072 5.71381 2.59834 5.65142L0.283089 3.33617C0.218613 3.27609 0.166898 3.20364 0.13103 3.12314C0.0951623 3.04264 0.0758756 2.95574 0.0743209 2.86763C0.0727662 2.77951 0.0889755 2.69199 0.121981 2.61027C0.154987 2.52856 0.204114 2.45433 0.26643 2.39201C0.328747 2.3297 0.402976 2.28057 0.484691 2.24756C0.566405 2.21456 0.653931 2.19835 0.742046 2.1999C0.830161 2.20146 0.91706 2.22074 0.99756 2.25661C1.07806 2.29248 1.15051 2.3442 1.21059 2.40867L3.04284 4.24005L6.08171 0.368172C6.08718 0.361435 6.09215 0.355008 6.09834 0.348921Z" fill="white"/>
</svg>
